<svg width="698" height="43" viewBox="0 0 698 43" fill="none" xmlns="http://www.w3.org/2000/svg">
<path d="M13.568 42L0.24 2.8H3.264L15.92 40.264H14.408L27.456 2.8H30.2L43.136 40.264H41.68L54.448 2.8H57.248L43.976 42H40.952L28.408 5.768H29.136L16.592 42H13.568ZM79.6848 12.544C82.0741 12.544 84.1461 13.0107 85.9008 13.944C87.6928 14.84 89.0741 16.2213 90.0448 18.088C91.0528 19.9173 91.5568 22.1947 91.5568 24.92V42H88.7568V25.144C88.7568 21.8587 87.9168 19.3573 86.2368 17.64C84.5941 15.9227 82.2794 15.064 79.2928 15.064C77.0154 15.064 75.0368 15.5307 73.3568 16.464C71.6768 17.3973 70.3888 18.704 69.4928 20.384C68.6341 22.064 68.2048 24.08 68.2048 26.432V42H65.4048V0.447998H68.2048V20.888L67.7007 19.992C68.5968 17.6773 70.0714 15.8667 72.1248 14.56C74.1781 13.216 76.6981 12.544 79.6848 12.544ZM121.508 42V35.336L121.396 34.328V23.352C121.396 20.6267 120.65 18.5547 119.156 17.136C117.7 15.7173 115.554 15.008 112.716 15.008C110.7 15.008 108.815 15.3627 107.06 16.072C105.343 16.744 103.868 17.6213 102.636 18.704L101.236 16.688C102.692 15.3813 104.447 14.3733 106.5 13.664C108.554 12.9173 110.7 12.544 112.94 12.544C116.562 12.544 119.343 13.4587 121.284 15.288C123.226 17.1173 124.196 19.8427 124.196 23.464V42H121.508ZM110.98 42.224C108.815 42.224 106.93 41.888 105.324 41.216C103.756 40.5067 102.543 39.5173 101.684 38.248C100.863 36.9787 100.452 35.5227 100.452 33.88C100.452 32.3867 100.788 31.0427 101.46 29.848C102.17 28.616 103.327 27.6267 104.932 26.88C106.538 26.096 108.684 25.704 111.372 25.704H122.124V27.888H111.428C108.404 27.888 106.276 28.448 105.044 29.568C103.85 30.688 103.252 32.088 103.252 33.768C103.252 35.6347 103.962 37.128 105.38 38.248C106.799 39.368 108.796 39.928 111.372 39.928C113.836 39.928 115.908 39.368 117.588 38.248C119.306 37.128 120.575 35.504 121.396 33.376L122.18 35.28C121.396 37.408 120.052 39.1067 118.148 40.376C116.282 41.608 113.892 42.224 110.98 42.224ZM144.245 42.224C141.669 42.224 139.69 41.5147 138.309 40.096C136.965 38.6773 136.293 36.736 136.293 34.272V6.384H139.093V33.992C139.093 35.8587 139.56 37.296 140.493 38.304C141.426 39.312 142.77 39.816 144.525 39.816C146.354 39.816 147.866 39.2747 149.061 38.192L150.237 40.152C149.49 40.8613 148.576 41.384 147.493 41.72C146.448 42.056 145.365 42.224 144.245 42.224ZM130.917 15.176V12.768H148.389V15.176H130.917ZM183.684 42.224C180.959 42.224 178.495 41.608 176.292 40.376C174.127 39.1067 172.41 37.352 171.14 35.112C169.871 32.872 169.236 30.296 169.236 27.384C169.236 24.4347 169.871 21.8587 171.14 19.656C172.41 17.416 174.127 15.68 176.292 14.448C178.495 13.1787 180.959 12.544 183.684 12.544C186.26 12.544 188.575 13.1413 190.628 14.336C192.719 15.5307 194.362 17.2293 195.556 19.432C196.788 21.6347 197.404 24.2853 197.404 27.384C197.404 30.408 196.807 33.04 195.612 35.28C194.418 37.52 192.775 39.2373 190.684 40.432C188.631 41.6267 186.298 42.224 183.684 42.224ZM183.852 39.704C186.092 39.704 188.09 39.2 189.844 38.192C191.636 37.1467 193.036 35.6907 194.044 33.824C195.09 31.9573 195.612 29.8107 195.612 27.384C195.612 24.92 195.09 22.7733 194.044 20.944C193.036 19.0773 191.636 17.64 189.844 16.632C188.09 15.5867 186.092 15.064 183.852 15.064C181.612 15.064 179.596 15.5867 177.804 16.632C176.05 17.64 174.65 19.0773 173.604 20.944C172.596 22.7733 172.092 24.92 172.092 27.384C172.092 29.8107 172.596 31.9573 173.604 33.824C174.65 35.6907 176.05 37.1467 177.804 38.192C179.596 39.2 181.612 39.704 183.852 39.704ZM195.668 42V32.424L196.172 27.328L195.612 22.232V0.447998H198.412V42H195.668ZM221.641 42.224C218.841 42.224 216.34 41.5893 214.137 40.32C211.972 39.0507 210.236 37.296 208.929 35.056C207.66 32.816 207.025 30.2587 207.025 27.384C207.025 24.472 207.66 21.9147 208.929 19.712C210.236 17.472 211.972 15.7173 214.137 14.448C216.34 13.1787 218.841 12.544 221.641 12.544C224.441 12.544 226.943 13.1787 229.145 14.448C231.348 15.7173 233.084 17.472 234.353 19.712C235.623 21.9147 236.257 24.472 236.257 27.384C236.257 30.2587 235.623 32.816 234.353 35.056C233.084 37.296 231.348 39.0507 229.145 40.32C226.943 41.5893 224.441 42.224 221.641 42.224ZM221.641 39.704C223.881 39.704 225.897 39.2 227.689 38.192C229.481 37.1467 230.881 35.6907 231.889 33.824C232.897 31.9573 233.401 29.8107 233.401 27.384C233.401 24.92 232.897 22.7733 231.889 20.944C230.881 19.0773 229.481 17.64 227.689 16.632C225.897 15.5867 223.881 15.064 221.641 15.064C219.401 15.064 217.385 15.5867 215.593 16.632C213.839 17.64 212.439 19.0773 211.393 20.944C210.385 22.7733 209.881 24.92 209.881 27.384C209.881 29.8107 210.385 31.9573 211.393 33.824C212.439 35.6907 213.839 37.1467 215.593 38.192C217.385 39.2 219.401 39.704 221.641 39.704ZM256.816 42.224C253.866 42.224 251.253 41.5893 248.976 40.32C246.736 39.0507 244.962 37.296 243.656 35.056C242.386 32.816 241.752 30.2587 241.752 27.384C241.752 24.472 242.349 21.9147 243.544 19.712C244.776 17.472 246.456 15.7173 248.584 14.448C250.712 13.1787 253.101 12.544 255.752 12.544C258.402 12.544 260.773 13.16 262.864 14.392C264.992 15.624 266.653 17.36 267.848 19.6C269.08 21.8027 269.696 24.36 269.696 27.272C269.696 27.384 269.677 27.5147 269.64 27.664C269.64 27.776 269.64 27.9067 269.64 28.056H243.824V25.872H268.128L267.008 26.936C267.045 24.6587 266.56 22.624 265.552 20.832C264.581 19.0027 263.256 17.584 261.576 16.576C259.896 15.5307 257.954 15.008 255.752 15.008C253.586 15.008 251.645 15.5307 249.928 16.576C248.248 17.584 246.922 19.0027 245.952 20.832C244.981 22.624 244.496 24.6773 244.496 26.992V27.496C244.496 29.8853 245.018 32.0133 246.064 33.88C247.146 35.7093 248.621 37.1467 250.488 38.192C252.354 39.2 254.482 39.704 256.872 39.704C258.738 39.704 260.474 39.368 262.08 38.696C263.722 38.024 265.104 36.9973 266.224 35.616L267.848 37.464C266.578 39.032 264.973 40.2267 263.032 41.048C261.128 41.832 259.056 42.224 256.816 42.224ZM285.75 42.224C283.323 42.224 281.046 41.8693 278.918 41.16C276.827 40.4507 275.203 39.5547 274.046 38.472L275.334 36.232C276.454 37.2027 277.947 38.0427 279.814 38.752C281.681 39.424 283.697 39.76 285.862 39.76C288.923 39.76 291.126 39.256 292.47 38.248C293.814 37.24 294.486 35.9147 294.486 34.272C294.486 33.0773 294.131 32.144 293.422 31.472C292.75 30.7627 291.835 30.2213 290.678 29.848C289.521 29.4747 288.251 29.176 286.87 28.952C285.489 28.6907 284.107 28.4107 282.726 28.112C281.345 27.8133 280.075 27.384 278.918 26.824C277.761 26.264 276.827 25.4987 276.118 24.528C275.446 23.52 275.11 22.1947 275.11 20.552C275.11 19.0587 275.521 17.7147 276.342 16.52C277.163 15.3253 278.395 14.3733 280.038 13.664C281.681 12.9173 283.734 12.544 286.198 12.544C288.027 12.544 289.857 12.8053 291.686 13.328C293.553 13.8507 295.065 14.5413 296.222 15.4L294.934 17.64C293.702 16.7067 292.321 16.0347 290.79 15.624C289.259 15.2133 287.71 15.008 286.142 15.008C283.305 15.008 281.214 15.5307 279.87 16.576C278.563 17.6213 277.91 18.928 277.91 20.496C277.91 21.728 278.246 22.7173 278.918 23.464C279.627 24.1733 280.561 24.7333 281.718 25.144C282.875 25.5173 284.145 25.8347 285.526 26.096C286.907 26.32 288.289 26.5813 289.67 26.88C291.051 27.1787 292.321 27.608 293.478 28.168C294.635 28.6907 295.55 29.4373 296.222 30.408C296.931 31.3413 297.286 32.6107 297.286 34.216C297.286 35.8213 296.838 37.2213 295.942 38.416C295.083 39.6107 293.795 40.544 292.078 41.216C290.361 41.888 288.251 42.224 285.75 42.224ZM337.123 42.28C334.174 42.28 331.448 41.7947 328.947 40.824C326.446 39.816 324.262 38.416 322.395 36.624C320.566 34.832 319.147 32.7413 318.139 30.352C317.131 27.9253 316.627 25.2747 316.627 22.4C316.627 19.5253 317.131 16.8933 318.139 14.504C319.147 12.0773 320.584 9.968 322.451 8.176C324.318 6.384 326.483 5.00267 328.947 4.032C331.448 3.024 334.192 2.52 337.179 2.52C340.016 2.52 342.648 2.968 345.075 3.864C347.502 4.76 349.574 6.104 351.291 7.896L349.499 9.8C347.782 8.12 345.896 6.92533 343.843 6.216C341.827 5.50666 339.624 5.152 337.235 5.152C334.696 5.152 332.344 5.58133 330.179 6.44C328.014 7.29866 326.128 8.512 324.523 10.08C322.918 11.648 321.667 13.4773 320.771 15.568C319.912 17.6587 319.483 19.936 319.483 22.4C319.483 24.864 319.912 27.1413 320.771 29.232C321.667 31.3227 322.918 33.152 324.523 34.72C326.128 36.288 328.014 37.5013 330.179 38.36C332.344 39.2187 334.696 39.648 337.235 39.648C339.55 39.648 341.734 39.2933 343.787 38.584C345.878 37.8747 347.782 36.6987 349.499 35.056L351.123 37.24C349.368 38.92 347.259 40.1893 344.795 41.048C342.368 41.8693 339.811 42.28 337.123 42.28ZM348.379 36.96V22.568H351.123V37.24L348.379 36.96ZM363.691 42V2.8H380.043C384.262 2.8 387.566 3.65866 389.955 5.376C392.345 7.09333 393.539 9.576 393.539 12.824C393.539 14.952 393.035 16.744 392.027 18.2C391.019 19.656 389.619 20.7573 387.827 21.504C386.073 22.2133 384.094 22.568 381.891 22.568L382.899 21.448C385.587 21.448 387.883 21.84 389.787 22.624C391.691 23.408 393.129 24.5467 394.099 26.04C395.107 27.5333 395.611 29.4 395.611 31.64C395.611 34.9253 394.417 37.4827 392.027 39.312C389.638 41.104 386.017 42 381.163 42H363.691ZM366.547 39.536H381.163C384.934 39.536 387.809 38.9013 389.787 37.632C391.766 36.3253 392.755 34.2533 392.755 31.416C392.755 28.616 391.766 26.5813 389.787 25.312C387.809 24.0053 384.934 23.352 381.163 23.352H366.211V20.888H379.931C383.329 20.888 385.961 20.2347 387.827 18.928C389.694 17.6213 390.627 15.6613 390.627 13.048C390.627 10.472 389.694 8.53066 387.827 7.224C385.961 5.91733 383.329 5.264 379.931 5.264H366.547V39.536ZM405.801 42V2.8H419.857C423.142 2.8 425.961 3.32266 428.313 4.368C430.665 5.41333 432.475 6.92533 433.745 8.904C435.014 10.8453 435.649 13.216 435.649 16.016C435.649 18.7413 435.014 21.0933 433.745 23.072C432.475 25.0507 430.665 26.5627 428.313 27.608C425.961 28.6533 423.142 29.176 419.857 29.176H407.369L408.657 27.832V42H405.801ZM408.657 28L407.369 26.6H419.857C424.075 26.6 427.267 25.6853 429.433 23.856C431.635 21.9893 432.737 19.376 432.737 16.016C432.737 12.6187 431.635 10.0053 429.433 8.176C427.267 6.30933 424.075 5.376 419.857 5.376H407.369L408.657 3.976V28ZM466.711 42.224C464.284 42.224 462.007 41.8693 459.879 41.16C457.788 40.4507 456.164 39.5547 455.007 38.472L456.295 36.232C457.415 37.2027 458.908 38.0427 460.775 38.752C462.641 39.424 464.657 39.76 466.823 39.76C469.884 39.76 472.087 39.256 473.431 38.248C474.775 37.24 475.447 35.9147 475.447 34.272C475.447 33.0773 475.092 32.144 474.383 31.472C473.711 30.7627 472.796 30.2213 471.639 29.848C470.481 29.4747 469.212 29.176 467.831 28.952C466.449 28.6907 465.068 28.4107 463.687 28.112C462.305 27.8133 461.036 27.384 459.879 26.824C458.721 26.264 457.788 25.4987 457.079 24.528C456.407 23.52 456.071 22.1947 456.071 20.552C456.071 19.0587 456.481 17.7147 457.303 16.52C458.124 15.3253 459.356 14.3733 460.999 13.664C462.641 12.9173 464.695 12.544 467.159 12.544C468.988 12.544 470.817 12.8053 472.647 13.328C474.513 13.8507 476.025 14.5413 477.183 15.4L475.895 17.64C474.663 16.7067 473.281 16.0347 471.751 15.624C470.22 15.2133 468.671 15.008 467.103 15.008C464.265 15.008 462.175 15.5307 460.831 16.576C459.524 17.6213 458.871 18.928 458.871 20.496C458.871 21.728 459.207 22.7173 459.879 23.464C460.588 24.1733 461.521 24.7333 462.679 25.144C463.836 25.5173 465.105 25.8347 466.487 26.096C467.868 26.32 469.249 26.5813 470.631 26.88C472.012 27.1787 473.281 27.608 474.439 28.168C475.596 28.6907 476.511 29.4373 477.183 30.408C477.892 31.3413 478.247 32.6107 478.247 34.216C478.247 35.8213 477.799 37.2213 476.903 38.416C476.044 39.6107 474.756 40.544 473.039 41.216C471.321 41.888 469.212 42.224 466.711 42.224ZM494.573 42.224C491.997 42.224 490.018 41.5147 488.637 40.096C487.293 38.6773 486.621 36.736 486.621 34.272V6.384H489.421V33.992C489.421 35.8587 489.888 37.296 490.821 38.304C491.754 39.312 493.098 39.816 494.853 39.816C496.682 39.816 498.194 39.2747 499.389 38.192L500.565 40.152C499.818 40.8613 498.904 41.384 497.821 41.72C496.776 42.056 495.693 42.224 494.573 42.224ZM481.245 15.176V12.768H498.717V15.176H481.245ZM526.798 42V35.336L526.686 34.328V23.352C526.686 20.6267 525.939 18.5547 524.446 17.136C522.99 15.7173 520.843 15.008 518.006 15.008C515.99 15.008 514.104 15.3627 512.35 16.072C510.632 16.744 509.158 17.6213 507.926 18.704L506.526 16.688C507.982 15.3813 509.736 14.3733 511.79 13.664C513.843 12.9173 515.99 12.544 518.23 12.544C521.851 12.544 524.632 13.4587 526.574 15.288C528.515 17.1173 529.486 19.8427 529.486 23.464V42H526.798ZM516.27 42.224C514.104 42.224 512.219 41.888 510.614 41.216C509.046 40.5067 507.832 39.5173 506.974 38.248C506.152 36.9787 505.742 35.5227 505.742 33.88C505.742 32.3867 506.078 31.0427 506.75 29.848C507.459 28.616 508.616 27.6267 510.222 26.88C511.827 26.096 513.974 25.704 516.662 25.704H527.414V27.888H516.718C513.694 27.888 511.566 28.448 510.334 29.568C509.139 30.688 508.542 32.088 508.542 33.768C508.542 35.6347 509.251 37.128 510.669 38.248C512.088 39.368 514.086 39.928 516.662 39.928C519.126 39.928 521.198 39.368 522.878 38.248C524.595 37.128 525.864 35.504 526.686 33.376L527.47 35.28C526.686 37.408 525.342 39.1067 523.438 40.376C521.571 41.608 519.182 42.224 516.27 42.224ZM555.302 12.544C557.691 12.544 559.763 13.0107 561.518 13.944C563.31 14.84 564.691 16.2213 565.662 18.088C566.67 19.9173 567.174 22.1947 567.174 24.92V42H564.374V25.144C564.374 21.8587 563.534 19.3573 561.854 17.64C560.211 15.9227 557.897 15.064 554.91 15.064C552.633 15.064 550.654 15.5307 548.974 16.464C547.294 17.3973 546.006 18.704 545.11 20.384C544.251 22.064 543.822 24.08 543.822 26.432V42H541.022V12.768H543.71V20.888L543.318 19.992C544.214 17.6773 545.689 15.8667 547.742 14.56C549.795 13.216 552.315 12.544 555.302 12.544ZM589.958 42.224C587.232 42.224 584.768 41.608 582.566 40.376C580.4 39.1067 578.683 37.352 577.414 35.112C576.144 32.872 575.51 30.296 575.51 27.384C575.51 24.4347 576.144 21.8587 577.414 19.656C578.683 17.416 580.4 15.68 582.566 14.448C584.768 13.1787 587.232 12.544 589.958 12.544C592.534 12.544 594.848 13.1413 596.902 14.336C598.992 15.5307 600.635 17.2293 601.83 19.432C603.062 21.6347 603.678 24.2853 603.678 27.384C603.678 30.408 603.08 33.04 601.886 35.28C600.691 37.52 599.048 39.2373 596.958 40.432C594.904 41.6267 592.571 42.224 589.958 42.224ZM590.126 39.704C592.366 39.704 594.363 39.2 596.118 38.192C597.91 37.1467 599.31 35.6907 600.318 33.824C601.363 31.9573 601.886 29.8107 601.886 27.384C601.886 24.92 601.363 22.7733 600.318 20.944C599.31 19.0773 597.91 17.64 596.118 16.632C594.363 15.5867 592.366 15.064 590.126 15.064C587.886 15.064 585.87 15.5867 584.078 16.632C582.323 17.64 580.923 19.0773 579.878 20.944C578.87 22.7733 578.366 24.92 578.366 27.384C578.366 29.8107 578.87 31.9573 579.878 33.824C580.923 35.6907 582.323 37.1467 584.078 38.192C585.87 39.2 587.886 39.704 590.126 39.704ZM601.942 42V32.424L602.446 27.328L601.886 22.232V0.447998H604.686V42H601.942ZM631.434 42V8.288C631.434 5.86133 632.124 3.92 633.506 2.464C634.924 0.970664 636.94 0.223997 639.554 0.223997C640.636 0.223997 641.7 0.391997 642.746 0.727997C643.791 1.02666 644.65 1.49333 645.322 2.128L644.202 4.256C643.642 3.696 642.97 3.28533 642.186 3.024C641.402 2.76267 640.562 2.632 639.666 2.632C637.874 2.632 636.511 3.136 635.578 4.144C634.644 5.11466 634.178 6.57066 634.178 8.512V13.44L634.234 14.784V42H631.434ZM626.058 15.176V12.768H643.53V15.176H626.058ZM660.18 42.224C657.38 42.224 654.879 41.5893 652.676 40.32C650.511 39.0507 648.775 37.296 647.468 35.056C646.199 32.816 645.564 30.2587 645.564 27.384C645.564 24.472 646.199 21.9147 647.468 19.712C648.775 17.472 650.511 15.7173 652.676 14.448C654.879 13.1787 657.38 12.544 660.18 12.544C662.98 12.544 665.482 13.1787 667.684 14.448C669.887 15.7173 671.623 17.472 672.892 19.712C674.162 21.9147 674.796 24.472 674.796 27.384C674.796 30.2587 674.162 32.816 672.892 35.056C671.623 37.296 669.887 39.0507 667.684 40.32C665.482 41.5893 662.98 42.224 660.18 42.224ZM660.18 39.704C662.42 39.704 664.436 39.2 666.228 38.192C668.02 37.1467 669.42 35.6907 670.428 33.824C671.436 31.9573 671.94 29.8107 671.94 27.384C671.94 24.92 671.436 22.7733 670.428 20.944C669.42 19.0773 668.02 17.64 666.228 16.632C664.436 15.5867 662.42 15.064 660.18 15.064C657.94 15.064 655.924 15.5867 654.132 16.632C652.378 17.64 650.978 19.0773 649.932 20.944C648.924 22.7733 648.42 24.92 648.42 27.384C648.42 29.8107 648.924 31.9573 649.932 33.824C650.978 35.6907 652.378 37.1467 654.132 38.192C655.924 39.2 657.94 39.704 660.18 39.704ZM683.483 42V12.768H686.171V20.776L685.891 19.88C686.712 17.528 688.094 15.7173 690.035 14.448C691.976 13.1787 694.403 12.544 697.315 12.544V15.288C697.203 15.288 697.091 15.288 696.979 15.288C696.867 15.2507 696.755 15.232 696.643 15.232C693.395 15.232 690.856 16.2587 689.027 18.312C687.198 20.328 686.283 23.1467 686.283 26.768V42H683.483Z" fill="white"/>
</svg>
