<svg width="1434" height="176" viewBox="0 0 1434 176" fill="none" xmlns="http://www.w3.org/2000/svg">
<path d="M83.7339 58.5633C83.2433 57.4482 82.3846 56.5424 81.3064 56.0023C80.2282 55.4622 78.9981 55.3219 77.8288 55.6056L63.1284 58.7957C62.8012 57.2601 61.967 55.8844 60.7643 54.8968C59.5616 53.9092 58.0627 53.3691 56.5164 53.3661H43.521L42.1695 52.3309C38.4657 49.5695 34.121 47.8301 29.5588 47.2821C24.9966 46.7342 20.3725 47.3964 16.1371 49.2042L11.8122 51.1478L11.1885 49.9647C11.084 49.7708 10.9409 49.6013 10.7681 49.467C10.5954 49.3326 10.3969 49.2365 10.1854 49.1848C9.97389 49.133 9.75409 49.1268 9.5401 49.1666C9.32611 49.2063 9.12267 49.2911 8.94285 49.4155L2.70506 53.6408C2.37259 53.862 2.13581 54.2039 2.04306 54.5965C1.95032 54.9892 2.00861 55.403 2.20604 55.7535L16.7609 83.2182C16.8646 83.4119 17.0069 83.5815 17.1787 83.7161C17.3506 83.8507 17.5482 83.9473 17.7589 83.9999H18.1332C18.4454 84.0031 18.7507 83.9071 19.0065 83.7253L25.2443 79.4999C25.4526 79.354 25.6224 79.1582 25.7384 78.9297C25.8545 78.7012 25.9133 78.4472 25.9096 78.1901L27.2196 78.5915C30.3638 79.4119 33.6005 79.8097 36.8466 79.7746C42.1856 79.8048 47.4895 78.8971 52.5242 77.0915L81.0309 64.9013C82.1736 64.3721 83.0824 63.4311 83.5817 62.2604C84.081 61.0896 84.1353 59.7723 83.7339 58.5633ZM18.6114 80.1337L5.57444 55.4788L9.21315 53.007L22.2085 77.6619L18.6114 80.1337ZM79.617 62.0492L51.3182 74.1549C46.6423 75.8197 41.7179 76.6489 36.7634 76.6056C33.7911 76.6379 30.8273 76.2757 27.9473 75.5281L24.7245 74.5563C24.5185 74.5147 24.3066 74.5147 24.1007 74.5563L13.2053 54.0211L17.3639 52.183C21.0843 50.5911 25.1476 50.0072 29.1566 50.4886C33.1656 50.97 36.9831 52.5002 40.2358 54.9295L42.0031 56.2816C42.2724 56.4887 42.6011 56.6001 42.9388 56.5985H56.454C57.4191 56.5985 58.3446 56.9881 59.027 57.6814C59.7094 58.3748 60.0927 59.3152 60.0927 60.2957C60.0927 61.2763 59.7094 62.2167 59.027 62.91C58.3446 63.6034 57.4191 63.9929 56.454 63.9929H36.7634C36.3498 63.9929 35.9531 64.1598 35.6607 64.457C35.3682 64.7541 35.2039 65.1572 35.2039 65.5774C35.2039 65.9976 35.3682 66.4007 35.6607 66.6978C35.9531 66.995 36.3498 67.1619 36.7634 67.1619H56.5164C57.9901 67.1602 59.4227 66.6674 60.5944 65.7592C61.7662 64.851 62.6125 63.5775 63.0037 62.1337L78.515 58.7746C78.9665 58.6577 79.4435 58.6984 79.8696 58.8899C80.2956 59.0815 80.646 59.4129 80.8646 59.8309C81.2388 60.7183 80.22 61.7112 79.617 62.0492ZM46.0369 43.3732C46.1815 43.5277 46.3558 43.6505 46.5489 43.7341C46.742 43.8177 46.9498 43.8602 47.1597 43.8591V43.8591C47.3698 43.8615 47.578 43.8195 47.7713 43.7359C47.9646 43.6522 48.1386 43.5287 48.2825 43.3732C48.3865 43.2676 57.4313 33.6126 60.7581 29.8098C63.3988 26.8732 65.8731 23.2605 65.2285 18.3803C64.9532 15.8771 63.8067 13.5562 61.9958 11.8362C60.1848 10.1162 57.8286 9.11036 55.352 9C53.6558 9.07316 52.0077 9.59503 50.5709 10.514C49.134 11.4329 47.9582 12.7171 47.1597 14.2394C46.3682 12.7247 45.2025 11.4452 43.7771 10.5266C42.3518 9.60799 40.7158 9.08191 39.0298 9C36.5555 9.09839 34.1969 10.0909 32.3787 11.7989C30.5605 13.5069 29.402 15.8182 29.1117 18.3169C28.3216 23.2183 30.8583 26.7676 33.5197 29.7887C36.1812 32.8098 45.6418 42.9507 46.0369 43.3732ZM32.189 18.8239C32.3541 17.098 33.1108 15.4859 34.3271 14.2695C35.5433 13.053 37.1416 12.3095 38.8427 12.169H38.9674C42.6269 12.169 45.6003 15.9084 45.6003 20.3239C45.6003 20.7442 45.7646 21.1472 46.057 21.4443C46.3495 21.7415 46.7461 21.9084 47.1597 21.9084C47.5733 21.9084 47.97 21.7415 48.2624 21.4443C48.5549 21.1472 48.7192 20.7442 48.7192 20.3239C48.7192 15.8873 51.7133 12.2324 55.3936 12.169C57.1019 12.3144 58.7058 13.0644 59.9255 14.2883C61.1453 15.5123 61.9035 17.1324 62.068 18.8662C62.567 22.1831 60.966 24.7817 58.3877 27.6972C55.8094 30.6126 49.6964 37.2676 47.1597 39.9718C44.4983 37.1619 37.9486 30.1479 35.8693 27.7183C33.5197 24.9507 31.6276 22.3732 32.189 18.8239Z" fill="#12B7B6"/>
<path d="M316.493 36.7961C316.487 36.385 316.32 35.9923 316.028 35.7016C315.735 35.4109 315.339 35.2453 314.925 35.2399H306.567C306.152 35.2399 305.753 35.4038 305.459 35.6957C305.165 35.9875 305 36.3833 305 36.7961C305 37.2088 305.165 37.6046 305.459 37.8964C305.753 38.1883 306.152 38.3522 306.567 38.3522H314.925C315.339 38.3469 315.735 38.1812 316.028 37.8905C316.32 37.5998 316.487 37.2071 316.493 36.7961V36.7961ZM320.672 19.6366C320.971 19.9172 321.367 20.0732 321.779 20.0724C321.988 20.0738 322.195 20.0342 322.389 19.9559C322.583 19.8775 322.759 19.762 322.907 19.6159C323.201 19.3241 323.366 18.9286 323.366 18.5162C323.366 18.1038 323.201 17.7083 322.907 17.4165L317.913 12.5613C317.62 12.2698 317.221 12.1061 316.806 12.1061C316.391 12.1061 315.992 12.2698 315.699 12.5613C315.405 12.853 315.24 13.2486 315.24 13.661C315.24 14.0733 315.405 14.4689 315.699 14.7606L320.672 19.6366ZM339.979 13.4119C340.186 13.4147 340.391 13.3764 340.582 13.2992C340.774 13.222 340.947 13.1074 341.094 12.9624C341.24 12.8173 341.355 12.6447 341.433 12.4546C341.51 12.2645 341.549 12.0609 341.546 11.8558V3.55617C341.546 3.14345 341.381 2.74765 341.087 2.45582C340.793 2.16398 340.395 2 339.979 2V2C339.563 2 339.165 2.16398 338.871 2.45582C338.577 2.74765 338.412 3.14345 338.412 3.55617V11.8558C338.409 12.0646 338.448 12.2719 338.527 12.4656C338.605 12.6593 338.722 12.8356 338.87 12.9843C339.017 13.1329 339.193 13.2509 339.387 13.3315C339.581 13.412 339.79 13.4535 340 13.4534L339.979 13.4119ZM316.764 61.1346C316.975 61.1357 317.184 61.0939 317.378 61.0119C317.572 60.9298 317.747 60.8091 317.893 60.6574L322.907 55.5532C323.198 55.256 323.359 54.8562 323.353 54.4418C323.347 54.0274 323.175 53.6323 322.876 53.3434C322.577 53.0545 322.174 52.8954 321.757 52.9013C321.34 52.9071 320.942 53.0773 320.651 53.3745L315.657 58.4995C315.363 58.7913 315.198 59.1868 315.198 59.5992C315.198 60.0116 315.363 60.4071 315.657 60.6989C315.795 60.8605 315.964 60.9933 316.154 61.0895C316.344 61.1857 316.551 61.2433 316.764 61.2591V61.1346ZM358.096 19.9479C358.297 19.95 358.496 19.9125 358.683 19.8377C358.869 19.763 359.039 19.6523 359.182 19.5121L364.218 14.6569C364.511 14.3651 364.676 13.9696 364.676 13.5572C364.676 13.1448 364.511 12.7493 364.218 12.4575C363.924 12.1661 363.526 12.0024 363.11 12.0024C362.695 12.0024 362.297 12.1661 362.003 12.4575L356.967 17.3128C356.739 17.525 356.581 17.8009 356.514 18.1042C356.447 18.4074 356.474 18.7237 356.592 19.0114C356.709 19.299 356.912 19.5445 357.173 19.7154C357.434 19.8863 357.741 19.9746 358.054 19.9686L358.096 19.9479ZM352.537 74.663C352.123 74.6683 351.728 74.834 351.435 75.1247C351.142 75.4154 350.976 75.8081 350.97 76.2191V82.4438C350.97 82.8565 351.135 83.2524 351.429 83.5442C351.723 83.8361 352.122 84 352.537 84C352.953 84 353.352 83.8361 353.645 83.5442C353.939 83.2524 354.104 82.8565 354.104 82.4438V76.2191C354.099 75.8081 353.932 75.4154 353.639 75.1247C353.347 74.834 352.951 74.6683 352.537 74.663V74.663ZM359.203 53.499C358.909 53.2075 358.511 53.0439 358.096 53.0439C357.68 53.0439 357.282 53.2075 356.988 53.499C356.695 53.7907 356.53 54.1863 356.53 54.5987C356.53 55.011 356.695 55.4066 356.988 55.6984L362.024 60.8026C362.171 60.9525 362.346 61.0718 362.54 61.1538C362.734 61.2357 362.942 61.2785 363.152 61.2798C363.353 61.2819 363.553 61.2445 363.739 61.1697C363.926 61.0949 364.096 60.9843 364.239 60.8441C364.532 60.5523 364.697 60.1568 364.697 59.7444C364.697 59.332 364.532 58.9365 364.239 58.6447L359.203 53.499ZM342.612 35.2399H340.313L343.991 28.8492C344.199 28.4887 344.254 28.0611 344.144 27.6603C344.035 27.2595 343.769 26.9184 343.406 26.712C343.043 26.5057 342.612 26.451 342.209 26.5599C341.805 26.6689 341.462 26.9326 341.254 27.293L336.26 36.0284C336.126 36.2662 336.056 36.5341 336.056 36.8064C336.056 37.0788 336.126 37.3466 336.26 37.5845C336.4 37.8179 336.599 38.0113 336.837 38.1458C337.075 38.2803 337.344 38.3514 337.618 38.3522H340L336.009 45.3446C335.813 45.6975 335.764 46.1129 335.873 46.5011C335.983 46.8893 336.242 47.2192 336.594 47.4195C336.827 47.5598 337.095 47.6318 337.367 47.627C337.643 47.6241 337.913 47.5498 338.152 47.4115C338.39 47.2733 338.587 47.0758 338.725 46.8386L344.075 37.5223C344.211 37.2844 344.281 37.0151 344.279 36.7416C344.276 36.4681 344.201 36.2001 344.062 35.9644C343.922 35.7288 343.722 35.5339 343.482 35.3994C343.242 35.2649 342.971 35.1956 342.696 35.1984L342.612 35.2399ZM357.239 66.3634H351.012C350.724 66.3634 350.447 66.2497 350.244 66.0473C350.04 65.845 349.925 65.5706 349.925 65.2844V58.0015C349.928 57.0158 350.166 56.0446 350.62 55.168C351.074 54.2915 351.731 53.5346 352.537 52.9595C355.336 50.9838 357.618 48.3717 359.193 45.3415C360.768 42.3112 361.59 38.9507 361.59 35.5408C361.59 32.1308 360.768 28.7703 359.193 25.74C357.618 22.7098 355.336 20.0977 352.537 18.122C349.655 16.1028 346.324 14.805 342.827 14.3389C339.331 13.8729 335.773 14.2525 332.457 15.4454C329.45 16.4977 326.728 18.2247 324.503 20.4918C322.278 22.759 320.609 25.5053 319.627 28.5172C318.123 32.8583 318.063 37.5642 319.454 41.942C320.846 46.3198 323.617 50.1383 327.358 52.835C328.202 53.4327 328.891 54.2196 329.37 55.1318C329.85 56.044 330.105 57.0557 330.116 58.0845V65.2844C330.116 65.4261 330.088 65.5664 330.034 65.6973C329.979 65.8282 329.899 65.9471 329.798 66.0473C329.697 66.1475 329.577 66.227 329.446 66.2812C329.314 66.3355 329.173 66.3634 329.03 66.3634H322.824C320.868 66.3634 318.991 67.135 317.608 68.5086C316.225 69.8822 315.448 71.7452 315.448 73.6877V82.4438C315.448 82.8565 315.613 83.2524 315.907 83.5442C316.201 83.8361 316.599 84 317.015 84C317.431 84 317.829 83.8361 318.123 83.5442C318.417 83.2524 318.582 82.8565 318.582 82.4438V73.6877C318.582 72.5872 319.022 71.5316 319.806 70.7534C320.59 69.9752 321.653 69.538 322.761 69.538H328.925C329.764 69.5329 330.584 69.288 331.287 68.8325C332.114 70.3111 333.326 71.5418 334.797 72.3959C336.267 73.2501 337.941 73.6962 339.645 73.6877H340.355C342.059 73.6962 343.733 73.2501 345.203 72.3959C346.674 71.5418 347.886 70.3111 348.713 68.8325C349.416 69.288 350.236 69.5329 351.075 69.538H357.239C358.347 69.538 359.41 69.9752 360.194 70.7534C360.978 71.5316 361.418 72.5872 361.418 73.6877V82.4438C361.418 82.8565 361.583 83.2524 361.877 83.5442C362.171 83.8361 362.569 84 362.985 84C363.401 84 363.799 83.8361 364.093 83.5442C364.387 83.2524 364.552 82.8565 364.552 82.4438V73.6877C364.552 71.7452 363.775 69.8822 362.392 68.5086C361.009 67.135 359.132 66.3634 357.176 66.3634H357.239ZM340.522 70.5132H339.812C338.324 70.5012 336.887 69.9779 335.744 69.0321C334.601 68.0864 333.823 66.7767 333.543 65.3259H346.875C346.587 66.8193 345.773 68.1619 344.578 69.1127C343.383 70.0634 341.886 70.56 340.355 70.5132H340.522ZM346.958 62.2136H333.376V59.1012H346.958V62.2136ZM347.188 55.9889H332.958C332.422 53.7115 331.08 51.7011 329.176 50.3244C325.992 48.0164 323.634 44.7583 322.446 41.0257C321.258 37.2931 321.303 33.2812 322.573 29.5754C323.399 27.0206 324.81 24.6905 326.695 22.7681C328.581 20.8457 330.889 19.3832 333.439 18.4954C336.283 17.4668 339.336 17.1353 342.337 17.529C345.339 17.9228 348.2 19.0302 350.678 20.7571C353.067 22.4476 355.015 24.6808 356.359 27.2704C357.703 29.8601 358.404 32.7312 358.404 35.6445C358.404 38.5578 357.703 41.4289 356.359 44.0186C355.015 46.6082 353.067 48.8413 350.678 50.5319C348.828 51.8456 347.527 53.787 347.021 55.9889H347.188ZM373.6 35.2399H365.075C364.659 35.2399 364.26 35.4038 363.966 35.6957C363.673 35.9875 363.507 36.3833 363.507 36.7961C363.507 37.2088 363.673 37.6046 363.966 37.8964C364.26 38.1883 364.659 38.3522 365.075 38.3522H373.433C373.848 38.3522 374.247 38.1883 374.541 37.8964C374.835 37.6046 375 37.2088 375 36.7961C375 36.3833 374.835 35.9875 374.541 35.6957C374.247 35.4038 373.848 35.2399 373.433 35.2399H373.6ZM325.54 74.663C325.126 74.6683 324.731 74.834 324.438 75.1247C324.145 75.4154 323.979 75.8081 323.973 76.2191V82.4438C323.973 82.8565 324.138 83.2524 324.432 83.5442C324.726 83.8361 325.125 84 325.54 84C325.956 84 326.355 83.8361 326.648 83.5442C326.942 83.2524 327.107 82.8565 327.107 82.4438V76.2191C327.106 76.001 327.058 75.7856 326.968 75.5866C326.878 75.3876 326.747 75.2094 326.584 75.0631C326.421 74.9169 326.229 74.8058 326.021 74.7369C325.812 74.668 325.592 74.6429 325.373 74.663H325.54Z" fill="#12B7B6"/>
<path d="M1062.87 9.48137C1062.75 9.19043 1062.55 8.94179 1062.29 8.76745C1062.03 8.5931 1061.73 8.50106 1061.42 8.50319H1054.57V1.59197C1054.57 1.27768 1054.48 0.969927 1054.31 0.70841C1054.13 0.446892 1053.89 0.243585 1053.6 0.124666C1053.31 0.00204124 1052.99 -0.0310584 1052.68 0.0295278C1052.38 0.0901139 1052.09 0.241656 1051.87 0.464918L1041.33 11.0976C1041.04 11.3964 1040.87 11.8018 1040.87 12.2246V20.0715L1039.46 21.4962C1036.11 18.4174 1032.16 16.0656 1027.87 14.5861C1023.58 13.1065 1019.03 12.5308 1014.52 12.8945C1010 13.2582 1005.6 14.5535 1001.59 16.7005C997.59 18.8474 994.065 21.8002 991.237 25.3765C988.41 28.9527 986.339 33.0762 985.153 37.4921C983.968 41.908 983.693 46.5223 984.345 51.0498C984.997 55.5773 986.562 59.9217 988.945 63.8144C991.327 67.707 994.475 71.0652 998.195 73.6812L994.654 81.7621C994.487 82.1512 994.479 82.5916 994.633 82.9864C994.787 83.3812 995.091 83.6981 995.476 83.8673C995.862 84.0365 996.298 84.0442 996.69 83.8887C997.081 83.7331 997.395 83.4271 997.563 83.0379L1000.91 75.4037C1005.87 78.2465 1011.48 79.741 1017.18 79.741C1022.89 79.741 1028.49 78.2465 1033.45 75.4037L1036.8 83.0379C1036.97 83.4271 1037.29 83.7331 1037.68 83.8887C1038.07 84.0442 1038.5 84.0365 1038.89 83.8673C1039.28 83.6981 1039.58 83.3812 1039.73 82.9864C1039.89 82.5916 1039.88 82.1512 1039.71 81.7621L1036.13 73.6812C1040 70.9656 1043.25 67.4464 1045.67 63.3595C1048.08 59.2726 1049.6 54.7124 1050.12 49.9844C1050.65 45.2564 1050.17 40.4698 1048.71 35.9453C1047.25 31.4208 1044.85 27.263 1041.67 23.7504L1043.08 22.3256H1050.88C1051.3 22.3252 1051.7 22.157 1052 21.8578L1062.54 11.2251C1062.76 11.0026 1062.91 10.717 1062.97 10.4059C1063.03 10.0947 1063 9.77248 1062.87 9.48137V9.48137ZM1047.19 46.249C1047.21 53.2147 1044.86 59.9759 1040.53 65.4004C1036.2 70.8249 1030.15 74.5835 1023.4 76.0468C1016.66 77.5101 1009.61 76.5893 1003.46 73.4386C997.299 70.2879 992.402 65.0985 989.585 58.7394C986.767 52.3803 986.2 45.2375 987.979 38.507C989.758 31.7765 993.774 25.8669 999.355 21.7677C1004.94 17.6685 1011.74 15.6286 1018.64 15.9896C1025.53 16.3505 1032.09 19.0904 1037.22 23.7504L1030.52 30.5128C1026.48 27.0207 1021.26 25.2428 1015.95 25.552C1010.64 25.8612 1005.66 28.2336 1002.05 32.1712C998.433 36.1089 996.472 41.3058 996.574 46.6713C996.676 52.0367 998.834 57.1537 1002.59 60.9484C1006.36 64.743 1011.43 66.9203 1016.74 67.0234C1022.06 67.1266 1027.21 65.1475 1031.11 61.5015C1035.02 57.8554 1037.37 52.8259 1037.67 47.4683C1037.98 42.1108 1036.22 36.8417 1032.76 32.7669L1039.46 26.0045C1044.43 31.5539 1047.19 38.7674 1047.19 46.249V46.249ZM1016.05 47.3761C1016.34 47.6748 1016.74 47.8425 1017.16 47.8425C1017.58 47.8425 1017.98 47.6748 1018.28 47.3761L1022.98 42.6339C1023.64 43.7221 1024 44.9718 1024.01 46.249C1024.01 47.616 1023.61 48.9522 1022.86 50.0887C1022.1 51.2253 1021.03 52.111 1019.78 52.6341C1018.53 53.1572 1017.15 53.2941 1015.83 53.0275C1014.5 52.7608 1013.28 52.1026 1012.32 51.136C1011.36 50.1695 1010.71 48.938 1010.44 47.5973C1010.18 46.2567 1010.32 44.8671 1010.83 43.6043C1011.35 42.3414 1012.23 41.262 1013.36 40.5026C1014.48 39.7432 1015.81 39.3378 1017.16 39.3378C1018.43 39.3507 1019.67 39.7109 1020.74 40.3798L1016.05 45.122C1015.75 45.421 1015.58 45.8264 1015.58 46.249C1015.58 46.6717 1015.75 47.0771 1016.05 47.3761V47.3761ZM1023.02 38.0832C1020.97 36.5847 1018.44 35.9198 1015.93 36.2211C1013.42 36.5224 1011.11 37.7677 1009.47 39.7087C1007.83 41.6497 1006.97 44.1439 1007.07 46.6937C1007.17 49.2436 1008.22 51.6618 1010.01 53.4662C1011.8 55.2707 1014.19 56.3287 1016.72 56.4294C1019.25 56.53 1021.72 55.6658 1023.64 54.0092C1025.57 52.3526 1026.8 50.0253 1027.1 47.4913C1027.4 44.9573 1026.74 42.4028 1025.25 40.3373L1030.52 35.021C1033.39 38.4903 1034.81 42.9398 1034.51 47.4441C1034.2 51.9484 1032.19 56.1607 1028.89 59.2046C1025.58 62.2486 1021.24 63.89 1016.77 63.7873C1012.29 63.6846 1008.03 61.8458 1004.87 58.6534C1001.71 55.4609 999.883 51.1606 999.781 46.647C999.679 42.1334 1001.31 37.7539 1004.32 34.4196C1007.34 31.0853 1011.51 29.0528 1015.98 28.745C1020.44 28.4372 1024.85 29.8777 1028.29 32.7669L1023.02 38.0832ZM1044.1 12.8838L1051.47 5.44098V9.43887L1044.1 16.8817V12.8838ZM1050.29 19.1358H1046.33L1053.71 11.693H1057.67L1050.29 19.1358Z" fill="#12B7B6"/>
<path d="M1311.05 68.1549C1310.63 68.1604 1310.23 68.3291 1309.93 68.6251C1309.63 68.921 1309.47 69.3209 1309.46 69.7394V82.4155C1309.46 82.8357 1309.63 83.2388 1309.92 83.5359C1310.22 83.8331 1310.63 84 1311.05 84C1311.47 84 1311.87 83.8331 1312.17 83.5359C1312.47 83.2388 1312.63 82.8357 1312.63 82.4155V69.7394C1312.63 69.3209 1312.46 68.921 1312.16 68.6251C1311.87 68.3291 1311.46 68.1604 1311.05 68.1549V68.1549ZM1341.18 65.0071V71.8521C1341.19 72.2707 1341.36 72.6705 1341.65 72.9665C1341.95 73.2625 1342.35 73.4312 1342.77 73.4366H1359.69C1360.11 73.4366 1360.51 73.2697 1360.81 72.9725C1361.11 72.6754 1361.28 72.2724 1361.28 71.8521C1361.28 71.4319 1361.11 71.0288 1360.81 70.7317C1360.51 70.4345 1360.11 70.2676 1359.69 70.2676H1344.36V65.0071C1344.36 63.0404 1343.57 61.1542 1342.18 59.7635C1340.79 58.3728 1338.9 57.5916 1336.93 57.5916H1331.67V51.2535C1333 50.0246 1334.07 48.5318 1334.8 46.8698C1335.52 45.2078 1335.9 43.4128 1335.9 41.5986V29.4085C1335.9 27.3409 1335.07 25.358 1333.61 23.896C1332.15 22.434 1330.16 21.6127 1328.09 21.6127H1317.26C1315.19 21.6127 1313.21 22.434 1311.75 23.896C1310.28 25.358 1309.46 27.3409 1309.46 29.4085V41.5986C1309.46 43.4128 1309.83 45.2078 1310.56 46.8698C1311.29 48.5318 1312.35 50.0246 1313.69 51.2535V57.5916H1308.42C1306.45 57.5916 1304.57 58.3728 1303.17 59.7635C1301.78 61.1542 1301 63.0404 1301 65.0071V82.4155C1301 82.8357 1301.17 83.2388 1301.46 83.5359C1301.76 83.8331 1302.17 84 1302.59 84C1303.01 84 1303.41 83.8331 1303.71 83.5359C1304.01 83.2388 1304.17 82.8357 1304.17 82.4155V65.0071C1304.17 63.8864 1304.62 62.8117 1305.41 62.0193C1306.2 61.2269 1307.28 60.7817 1308.4 60.7817H1313.01C1313.07 60.9002 1313.15 61.0075 1313.25 61.0986C1314.45 62.2662 1315.87 63.1848 1317.42 63.8013C1318.98 64.4178 1320.65 64.72 1322.32 64.6905C1324 64.661 1325.65 64.3005 1327.18 63.6296C1328.72 62.9587 1330.11 61.9908 1331.26 60.7817H1336.91C1337.47 60.7761 1338.03 60.8813 1338.54 61.0911C1339.06 61.301 1339.53 61.6113 1339.93 62.0042C1340.33 62.3971 1340.64 62.8648 1340.86 63.3803C1341.07 63.8957 1341.18 64.4486 1341.18 65.0071ZM1312.63 29.4718C1312.63 28.2447 1313.12 27.0679 1313.99 26.2002C1314.86 25.3326 1316.04 24.8451 1317.26 24.8451H1328.09C1329.32 24.8451 1330.5 25.3326 1331.37 26.2002C1332.24 27.0679 1332.72 28.2447 1332.72 29.4718V32.345C1332.56 32.2778 1332.38 32.242 1332.2 32.2394H1317.39C1316.97 32.2449 1316.57 32.4136 1316.28 32.7096C1315.98 33.0056 1315.81 33.4054 1315.8 33.8239V36.4648H1312.63V29.4718ZM1328.49 59.0493C1326.92 60.5165 1324.89 61.3975 1322.75 61.5438C1320.6 61.69 1318.47 61.0926 1316.71 59.8521C1316.82 59.6573 1316.87 59.4388 1316.86 59.2183V53.5563C1318.67 54.4456 1320.66 54.908 1322.68 54.908C1324.69 54.908 1326.68 54.4456 1328.49 53.5563V59.0493ZM1322.68 51.7395C1320.01 51.7395 1317.46 50.6821 1315.57 48.8002C1313.69 46.9182 1312.63 44.3658 1312.63 41.7042V39.5916H1317.39C1317.81 39.5861 1318.21 39.4174 1318.51 39.1214C1318.8 38.8255 1318.97 38.4256 1318.98 38.0071V35.3662H1332.2C1332.38 35.3636 1332.56 35.3278 1332.72 35.2605V41.5986C1332.73 42.9217 1332.48 44.2335 1331.98 45.4584C1331.48 46.6832 1330.74 47.797 1329.8 48.7356C1328.87 49.6741 1327.76 50.419 1326.54 50.9273C1325.31 51.4356 1324 51.6972 1322.68 51.6972V51.7395ZM1391.41 9H1313.16C1312.74 9.00547 1312.34 9.17417 1312.05 9.47014C1311.75 9.76612 1311.58 10.166 1311.57 10.5845V19.0352C1311.57 19.4554 1311.74 19.8585 1312.04 20.1556C1312.34 20.4528 1312.74 20.6197 1313.16 20.6197C1313.58 20.6197 1313.99 20.4528 1314.28 20.1556C1314.58 19.8585 1314.75 19.4554 1314.75 19.0352V12.169H1389.83V78.7183H1335.9V69.7394C1335.9 69.3192 1335.73 68.9162 1335.43 68.619C1335.13 68.3219 1334.73 68.1549 1334.31 68.1549C1333.89 68.1549 1333.49 68.3219 1333.19 68.619C1332.89 68.9162 1332.72 69.3192 1332.72 69.7394V80.3028C1332.73 80.7214 1332.9 81.1212 1333.19 81.4172C1333.49 81.7132 1333.89 81.8819 1334.31 81.8873H1391.41C1391.83 81.8819 1392.23 81.7132 1392.53 81.4172C1392.83 81.1212 1392.99 80.7214 1393 80.3028V10.5845C1392.99 10.166 1392.83 9.76612 1392.53 9.47014C1392.23 9.17417 1391.83 9.00547 1391.41 9V9ZM1365.65 36.4648C1365.23 36.4652 1364.83 36.6323 1364.53 36.9296L1358.19 43.162L1353.85 39.4648C1353.56 39.205 1353.19 39.0613 1352.79 39.0613C1352.4 39.0613 1352.03 39.205 1351.74 39.4648L1342.41 48.7817C1342.11 49.0788 1341.95 49.4815 1341.95 49.9014C1341.95 50.3213 1342.11 50.7241 1342.41 51.0212C1342.71 51.311 1343.11 51.4768 1343.53 51.4859C1343.95 51.4855 1344.36 51.3184 1344.65 51.0212L1352.94 42.7394L1357.17 46.4578C1357.47 46.7133 1357.84 46.8542 1358.23 46.8542C1358.62 46.8542 1358.99 46.7133 1359.29 46.4578L1366.12 39.6338H1371.94C1372.34 39.6272 1372.74 39.4691 1373.03 39.1902L1379.06 33.338V38.0493C1379.06 38.4695 1379.23 38.8726 1379.53 39.1697C1379.82 39.4669 1380.23 39.6338 1380.65 39.6338C1381.07 39.6338 1381.47 39.4669 1381.77 39.1697C1382.07 38.8726 1382.23 38.4695 1382.23 38.0493V29.5986C1382.24 29.5356 1382.24 29.4715 1382.23 29.4085C1382.25 29.2754 1382.25 29.1401 1382.23 29.007C1382.18 28.8828 1382.11 28.7684 1382.02 28.669C1382.03 28.6127 1382.03 28.5563 1382.02 28.5V28.5C1381.88 28.359 1381.7 28.2446 1381.52 28.162C1381.34 28.0799 1381.14 28.0367 1380.94 28.0352H1372.49C1372.06 28.0352 1371.66 28.2022 1371.36 28.4993C1371.07 28.7965 1370.9 29.1995 1370.9 29.6197C1370.9 30.04 1371.07 30.443 1371.36 30.7402C1371.66 31.0373 1372.06 31.2042 1372.49 31.2042H1377.03L1371.58 36.4859L1365.65 36.4648Z" fill="#12B7B6"/>
<path d="M727.941 48.4146C727.777 48.0226 727.463 47.7105 727.068 47.5463C726.673 47.3821 726.228 47.3791 725.83 47.5379L714.349 52.1093L701.686 21.0071L712.238 17.062C712.445 16.9991 712.637 16.8949 712.801 16.756C712.966 16.617 713.1 16.4462 713.195 16.254C713.29 16.0618 713.344 15.8524 713.354 15.6386C713.365 15.4249 713.33 15.2114 713.254 15.0113C713.177 14.8111 713.06 14.6287 712.909 14.4751C712.758 14.3216 712.578 14.2002 712.378 14.1186C712.178 14.0369 711.963 13.9966 711.747 14.0002C711.53 14.0038 711.317 14.0513 711.12 14.1396L699.132 18.6484C698.882 18.7605 698.664 18.9328 698.499 19.1493C695.105 18.9199 691.702 19.4404 688.537 20.6731L676.254 25.5576L675.895 25.3072C672.97 23.3769 669.633 22.141 666.145 21.696C666.057 21.5884 665.958 21.4905 665.849 21.4037L655.592 14.3066C655.42 14.1887 655.227 14.1055 655.022 14.0616C654.818 14.0178 654.607 14.0142 654.401 14.051C654.195 14.0878 653.999 14.1644 653.823 14.2763C653.647 14.3882 653.495 14.5333 653.376 14.7032C653.257 14.8732 653.173 15.0647 653.128 15.2668C653.084 15.4689 653.08 15.6777 653.117 15.8812C653.155 16.0848 653.232 16.279 653.345 16.453C653.458 16.6269 653.605 16.7771 653.777 16.895L662.768 23.1571L643.773 50.8777L634.466 43.6762C634.133 43.4553 633.729 43.3672 633.333 43.4297C632.938 43.4923 632.581 43.7007 632.335 44.0131C632.088 44.3254 631.971 44.7185 632.006 45.1131C632.041 45.5076 632.226 45.8743 632.524 46.1393L643.077 54.4889C643.349 54.7116 643.694 54.8301 644.047 54.8229H644.174C645.093 56.282 646.177 57.6335 647.403 58.8515C647.224 59.6694 647.232 60.5165 647.426 61.3309C647.62 62.1454 647.996 62.9066 648.526 63.5589C649.056 64.2112 649.727 64.7381 650.489 65.101C651.252 65.4639 652.087 65.6536 652.933 65.6564C653.234 65.6873 653.539 65.6873 653.84 65.6564H653.967V65.7817C654.169 67.1037 654.846 68.3096 655.872 69.1795C656.899 70.0493 658.208 70.5251 659.56 70.52H660.467H660.594V70.6453C660.963 72.0658 661.88 73.287 663.148 74.0477C664.122 74.7339 665.286 75.1057 666.482 75.1123C666.784 75.133 667.088 75.133 667.39 75.1123H667.516V75.2584C667.627 75.9855 667.884 76.6833 668.272 77.3107C668.66 77.9381 669.171 78.4823 669.775 78.9114C670.378 79.3494 671.063 79.6652 671.79 79.8404C672.517 80.0156 673.273 80.0469 674.012 79.9325C674.752 79.818 675.461 79.5601 676.099 79.1735C676.737 78.7869 677.292 78.2792 677.731 77.6798L678.533 76.5944L680.644 78.0764C681.561 78.687 682.641 79.014 683.746 79.0157C684.716 78.9703 685.659 78.6822 686.486 78.1784C687.313 77.6746 687.997 76.9716 688.474 76.1351C688.943 75.4469 689.246 74.6613 689.36 73.839L690.268 74.4443C691.191 75.0577 692.279 75.3848 693.391 75.3837C693.753 75.3903 694.114 75.3552 694.468 75.2793C695.217 75.1371 695.929 74.8453 696.56 74.4218C697.192 73.9983 697.729 73.452 698.14 72.8162C698.787 71.8528 699.119 70.716 699.09 69.5599H699.385C700.336 69.5561 701.271 69.3196 702.107 68.8717C702.943 68.4237 703.654 67.778 704.176 66.9923C704.715 66.192 705.033 65.2667 705.099 64.3077C705.166 63.3487 704.979 62.389 704.556 61.5234C705.023 61.3374 705.463 61.0918 705.865 60.7928C708.708 59.5985 711.262 57.8196 713.357 55.5743H713.484C713.687 55.5752 713.889 55.5325 714.075 55.4491L727.033 50.3141C727.39 50.1578 727.678 49.88 727.844 49.5313C728.011 49.1826 728.045 48.7862 727.941 48.4146ZM655.17 61.3146C654.975 61.5779 654.729 61.8002 654.446 61.9686C654.164 62.137 653.85 62.2482 653.524 62.2957C653.197 62.3461 652.862 62.332 652.541 62.2542C652.219 62.1764 651.916 62.0365 651.65 61.8425C651.383 61.6485 651.157 61.4043 650.986 61.1238C650.815 60.8434 650.702 60.5322 650.653 60.2083C650.552 59.5557 650.711 58.8896 651.097 58.3506L656.689 50.7733C657.083 50.2372 657.675 49.877 658.336 49.7714H658.737C659.266 49.7667 659.783 49.9274 660.214 50.2306C660.483 50.4209 660.709 50.6635 660.88 50.9434C661.05 51.2234 661.161 51.5349 661.206 51.8588C661.262 52.182 661.252 52.5131 661.175 52.8323C661.099 53.1514 660.959 53.4522 660.763 53.7166L655.17 61.3146ZM661.797 66.0739C661.604 66.341 661.359 66.5672 661.076 66.7393C660.793 66.9114 660.479 67.0258 660.151 67.0759C659.824 67.1262 659.49 67.1121 659.168 67.0344C658.846 66.9566 658.543 66.8167 658.277 66.6227C658.01 66.4287 657.784 66.1844 657.613 65.9039C657.443 65.6235 657.329 65.3124 657.28 64.9885C657.229 64.6638 657.243 64.3322 657.323 64.0132C657.402 63.6941 657.546 63.3941 657.745 63.1307L663.316 55.5326L665.596 52.4432C665.788 52.1775 666.034 51.9534 666.317 51.7847C666.6 51.616 666.915 51.5062 667.242 51.4622C667.375 51.4418 667.51 51.4418 667.643 51.4622C668.174 51.465 668.691 51.633 669.12 51.9423C669.39 52.1332 669.619 52.3756 669.793 52.6552C669.967 52.9348 670.083 53.246 670.133 53.5704C670.227 54.2257 670.06 54.8913 669.669 55.4282L661.797 66.0739ZM668.424 70.854C668.239 71.1379 667.996 71.3814 667.713 71.5695C667.429 71.7577 667.109 71.8866 666.773 71.9483C666.437 72.01 666.092 72.0032 665.758 71.9284C665.425 71.8535 665.111 71.7122 664.835 71.5131C664.559 71.314 664.326 71.0612 664.153 70.7702C663.979 70.4793 663.867 70.1563 663.823 69.821C663.78 69.4857 663.806 69.1453 663.9 68.8204C663.995 68.4955 664.155 68.1931 664.372 67.9317L669.944 60.3336C670.34 59.8016 670.933 59.4461 671.593 59.3444C672.253 59.2428 672.927 59.4032 673.468 59.7909C673.739 59.9814 673.969 60.2236 674.143 60.5033C674.318 60.783 674.435 61.0945 674.486 61.4194C674.537 61.7443 674.522 62.076 674.441 62.395C674.361 62.714 674.216 63.0138 674.017 63.2768L671.78 66.3035L668.424 70.854ZM678.407 71.0836L675.051 75.6341C674.857 75.8923 674.614 76.1101 674.335 76.275C674.056 76.44 673.747 76.5488 673.426 76.5953C673.104 76.6419 672.776 76.6252 672.461 76.5462C672.146 76.4673 671.85 76.3275 671.59 76.1351C671.319 75.9446 671.089 75.7023 670.914 75.4227C670.74 75.143 670.623 74.8315 670.572 74.5066C670.521 74.1817 670.536 73.85 670.617 73.531C670.697 73.212 670.841 72.9122 671.041 72.6492L674.376 68.0987C674.777 67.5754 675.366 67.2243 676.022 67.1176H676.423C677.02 67.1192 677.598 67.3295 678.053 67.7115C678.509 68.0935 678.814 68.6224 678.913 69.205C678.962 69.5357 678.942 69.8729 678.855 70.1958C678.768 70.5188 678.616 70.8209 678.407 71.0836ZM685.772 74.6113C685.594 74.8737 685.365 75.0985 685.099 75.2731C684.832 75.4477 684.534 75.5685 684.22 75.6286C683.906 75.6888 683.584 75.687 683.27 75.6235C682.957 75.5599 682.66 75.4359 682.396 75.2584L680.285 73.8599L680.982 72.9206C681.802 71.7902 682.17 70.3999 682.016 69.0171L685.266 71.1045C685.519 71.2759 685.735 71.4952 685.901 71.7495C686.068 72.0039 686.182 72.2884 686.237 72.5866C686.313 72.9371 686.311 73.3 686.231 73.6497C686.151 73.9994 685.994 74.3276 685.772 74.6113V74.6113ZM704.641 57.8078C704.545 57.947 704.431 58.0733 704.303 58.1836V58.1836C704.086 58.2735 703.892 58.4088 703.733 58.5802C703.453 58.7325 703.144 58.825 702.825 58.8515C702.592 58.8771 702.368 58.9557 702.171 59.0811L684.527 47.3083C684.188 47.0969 683.781 47.0223 683.388 47.1C682.995 47.1777 682.647 47.4017 682.417 47.7257C682.208 48.0622 682.136 48.4642 682.214 48.8513C682.292 49.2384 682.515 49.5819 682.839 49.8131L700.989 61.92C701.549 62.2882 701.938 62.8612 702.071 63.5129C702.203 64.1647 702.069 64.8419 701.696 65.3955C701.324 65.9491 700.745 66.3338 700.086 66.465C699.427 66.5961 698.742 66.4629 698.182 66.0948L679.905 53.9044C679.566 53.693 679.158 53.6185 678.766 53.6962C678.373 53.7739 678.025 53.9979 677.795 54.3219V54.3219C677.586 54.6584 677.514 55.0604 677.592 55.4475C677.67 55.8345 677.893 56.1781 678.217 56.4093L695.101 67.6603C695.371 67.8489 695.6 68.0893 695.775 68.3672C695.95 68.645 696.066 68.9548 696.117 69.278C696.168 69.6012 696.153 69.9312 696.073 70.2486C695.993 70.5659 695.849 70.8641 695.65 71.1254C695.473 71.3899 695.245 71.6169 694.979 71.7931C694.713 71.9693 694.413 72.0911 694.099 72.1514C693.784 72.2116 693.461 72.2092 693.147 72.1441C692.834 72.0791 692.536 71.9527 692.273 71.7725L687.292 68.4744L677.942 62.2122C677.995 61.7475 677.995 61.2784 677.942 60.8137C677.832 60.0813 677.573 59.3784 677.181 58.7472C676.789 58.116 676.273 57.5693 675.663 57.1399C674.925 56.6012 674.061 56.2565 673.152 56.1379C673.605 55.1371 673.759 54.0288 673.595 52.9442C673.356 51.4721 672.539 50.1528 671.321 49.2733C670.104 48.3938 668.585 48.0252 667.094 48.2476C665.995 48.4269 664.97 48.912 664.14 49.6461C663.743 48.8215 663.149 48.105 662.409 47.5587C661.19 46.686 659.671 46.3257 658.185 46.5565C656.698 46.7872 655.364 47.5902 654.473 48.7903L649.471 55.5952C648.522 54.546 647.7 53.39 647.023 52.151L665.807 24.5974C668.303 24.8997 670.717 25.6721 672.919 26.8727L665.258 29.9203C665.06 29.9979 664.88 30.1142 664.729 30.2622C664.577 30.4103 664.457 30.587 664.377 30.7819C664.296 30.9768 664.256 31.1858 664.258 31.3964C664.261 31.6071 664.307 31.815 664.393 32.0077C665.355 34.3784 667.228 36.2758 669.601 37.285C671.974 38.2942 674.654 38.3331 677.056 37.3932L682.375 35.3058L685.435 40.1903C686.477 41.8268 687.888 43.2024 689.558 44.2092C691.228 45.216 693.11 45.8266 695.059 45.9932L703.86 54.1966L704.071 54.3428C704.34 54.5316 704.569 54.7716 704.744 55.0488C704.919 55.326 705.036 55.6348 705.089 55.9573C705.142 56.2798 705.13 56.6095 705.053 56.9272C704.976 57.2449 704.836 57.5442 704.641 57.8078V57.8078ZM708.271 56.0127C708.229 55.1883 707.998 54.3842 707.596 53.661C707.194 52.9378 706.631 52.3144 705.949 51.8379L699.322 45.5757C700.577 45.2643 701.774 44.7569 702.868 44.0728C703.19 43.8395 703.41 43.4946 703.486 43.1072C703.562 42.7197 703.487 42.3183 703.276 41.9833C703.065 41.6482 702.734 41.4042 702.35 41.3001C701.965 41.196 701.554 41.2395 701.2 41.4218C699.065 42.7417 696.487 43.1687 694.033 42.609C691.579 42.0492 689.45 40.5485 688.115 38.4369L684.358 32.4669C684.166 32.1536 683.868 31.9173 683.517 31.799C683.166 31.6807 682.784 31.6881 682.438 31.8198L675.811 34.3873C675.008 34.718 674.148 34.8883 673.278 34.8883C672.409 34.8883 671.548 34.718 670.746 34.3873C669.625 33.9236 668.659 33.1567 667.96 32.1747L689.656 23.5746C692.563 22.4353 695.703 21.9988 698.816 22.3013L711.331 53.1947C710.418 54.2415 709.392 55.1864 708.271 56.0127V56.0127Z" fill="#12B7B6"/>
<path d="M14.094 167.166V170H0.444V151.8H13.73V154.634H3.824V159.366H12.612V162.148H3.824V167.166H14.094ZM25.7721 169.246C25.3907 169.558 24.9227 169.792 24.3681 169.948C23.8307 170.104 23.2587 170.182 22.6521 170.182C21.1267 170.182 19.9481 169.783 19.1161 168.986C18.2841 168.189 17.8681 167.027 17.8681 165.502V158.82H15.5801V156.22H17.8681V153.048H21.1181V156.22H24.8361V158.82H21.1181V165.424C21.1181 166.1 21.2827 166.62 21.6121 166.984C21.9414 167.331 22.4181 167.504 23.0421 167.504C23.7701 167.504 24.3767 167.313 24.8621 166.932L25.7721 169.246ZM36.4536 155.96C38.2043 155.96 39.6083 156.471 40.6656 157.494C41.7229 158.517 42.2516 160.033 42.2516 162.044V170H39.0016V162.46C39.0016 161.247 38.7156 160.337 38.1436 159.73C37.5716 159.106 36.7569 158.794 35.6996 158.794C34.5036 158.794 33.5589 159.158 32.8656 159.886C32.1723 160.597 31.8256 161.628 31.8256 162.98V170H28.5756V150.708H31.8256V157.728C32.3629 157.156 33.0216 156.723 33.8016 156.428C34.5989 156.116 35.4829 155.96 36.4536 155.96ZM46.5044 156.116H49.7544V170H46.5044V156.116ZM48.1424 153.828C47.5531 153.828 47.0591 153.646 46.6604 153.282C46.2618 152.901 46.0624 152.433 46.0624 151.878C46.0624 151.323 46.2618 150.864 46.6604 150.5C47.0591 150.119 47.5531 149.928 48.1424 149.928C48.7318 149.928 49.2258 150.11 49.6244 150.474C50.0231 150.821 50.2224 151.263 50.2224 151.8C50.2224 152.372 50.0231 152.857 49.6244 153.256C49.2431 153.637 48.7491 153.828 48.1424 153.828ZM60.52 170.182C59.0814 170.182 57.79 169.879 56.646 169.272C55.502 168.665 54.6094 167.825 53.968 166.75C53.3267 165.658 53.006 164.427 53.006 163.058C53.006 161.689 53.3267 160.467 53.968 159.392C54.6094 158.317 55.4934 157.477 56.62 156.87C57.764 156.263 59.064 155.96 60.52 155.96C61.8894 155.96 63.0854 156.237 64.108 156.792C65.148 157.347 65.928 158.144 66.448 159.184L63.952 160.64C63.5534 159.999 63.0507 159.522 62.444 159.21C61.8547 158.881 61.2047 158.716 60.494 158.716C59.2807 158.716 58.2754 159.115 57.478 159.912C56.6807 160.692 56.282 161.741 56.282 163.058C56.282 164.375 56.672 165.433 57.452 166.23C58.2494 167.01 59.2634 167.4 60.494 167.4C61.2047 167.4 61.8547 167.244 62.444 166.932C63.0507 166.603 63.5534 166.117 63.952 165.476L66.448 166.932C65.9107 167.972 65.122 168.778 64.082 169.35C63.0594 169.905 61.872 170.182 60.52 170.182ZM73.6775 170.182C72.5508 170.182 71.4501 170.035 70.3755 169.74C69.3008 169.445 68.4428 169.073 67.8015 168.622L69.0495 166.152C69.6735 166.568 70.4188 166.906 71.2855 167.166C72.1695 167.409 73.0361 167.53 73.8855 167.53C75.8268 167.53 76.7975 167.019 76.7975 165.996C76.7975 165.511 76.5461 165.173 76.0435 164.982C75.5581 164.791 74.7695 164.609 73.6775 164.436C72.5335 164.263 71.5975 164.063 70.8695 163.838C70.1588 163.613 69.5348 163.223 68.9975 162.668C68.4775 162.096 68.2175 161.307 68.2175 160.302C68.2175 158.985 68.7635 157.936 69.8555 157.156C70.9648 156.359 72.4555 155.96 74.3275 155.96C75.2808 155.96 76.2341 156.073 77.1875 156.298C78.1408 156.506 78.9208 156.792 79.5275 157.156L78.2795 159.626C77.1008 158.933 75.7748 158.586 74.3015 158.586C73.3481 158.586 72.6201 158.733 72.1175 159.028C71.6321 159.305 71.3895 159.678 71.3895 160.146C71.3895 160.666 71.6495 161.039 72.1695 161.264C72.7068 161.472 73.5301 161.671 74.6395 161.862C75.7488 162.035 76.6588 162.235 77.3695 162.46C78.0801 162.685 78.6868 163.067 79.1895 163.604C79.7095 164.141 79.9695 164.904 79.9695 165.892C79.9695 167.192 79.4061 168.232 78.2795 169.012C77.1528 169.792 75.6188 170.182 73.6775 170.182Z" fill="white"/>
<path d="M267.444 151.8H270.824V170H267.444V151.8ZM283.443 155.96C285.193 155.96 286.597 156.471 287.655 157.494C288.712 158.517 289.241 160.033 289.241 162.044V170H285.991V162.46C285.991 161.247 285.705 160.337 285.133 159.73C284.561 159.106 283.746 158.794 282.689 158.794C281.493 158.794 280.548 159.158 279.855 159.886C279.161 160.597 278.815 161.628 278.815 162.98V170H275.565V156.116H278.659V157.91C279.196 157.269 279.872 156.783 280.687 156.454C281.501 156.125 282.42 155.96 283.443 155.96ZM301.372 155.96C303.122 155.96 304.526 156.471 305.584 157.494C306.641 158.517 307.17 160.033 307.17 162.044V170H303.92V162.46C303.92 161.247 303.634 160.337 303.062 159.73C302.49 159.106 301.675 158.794 300.618 158.794C299.422 158.794 298.477 159.158 297.784 159.886C297.09 160.597 296.744 161.628 296.744 162.98V170H293.494V156.116H296.588V157.91C297.125 157.269 297.801 156.783 298.616 156.454C299.43 156.125 300.349 155.96 301.372 155.96ZM317.789 170.182C316.385 170.182 315.12 169.879 313.993 169.272C312.867 168.665 311.983 167.825 311.341 166.75C310.717 165.658 310.405 164.427 310.405 163.058C310.405 161.689 310.717 160.467 311.341 159.392C311.983 158.317 312.867 157.477 313.993 156.87C315.12 156.263 316.385 155.96 317.789 155.96C319.211 155.96 320.485 156.263 321.611 156.87C322.738 157.477 323.613 158.317 324.237 159.392C324.879 160.467 325.199 161.689 325.199 163.058C325.199 164.427 324.879 165.658 324.237 166.75C323.613 167.825 322.738 168.665 321.611 169.272C320.485 169.879 319.211 170.182 317.789 170.182ZM317.789 167.4C318.985 167.4 319.973 167.001 320.753 166.204C321.533 165.407 321.923 164.358 321.923 163.058C321.923 161.758 321.533 160.709 320.753 159.912C319.973 159.115 318.985 158.716 317.789 158.716C316.593 158.716 315.605 159.115 314.825 159.912C314.063 160.709 313.681 161.758 313.681 163.058C313.681 164.358 314.063 165.407 314.825 166.204C315.605 167.001 316.593 167.4 317.789 167.4ZM341.056 156.116L335.102 170H331.748L325.794 156.116H329.174L333.49 166.412L337.936 156.116H341.056ZM348.09 155.96C350.135 155.96 351.695 156.454 352.77 157.442C353.862 158.413 354.408 159.886 354.408 161.862V170H351.34V168.31C350.941 168.917 350.369 169.385 349.624 169.714C348.896 170.026 348.012 170.182 346.972 170.182C345.932 170.182 345.022 170.009 344.242 169.662C343.462 169.298 342.855 168.804 342.422 168.18C342.006 167.539 341.798 166.819 341.798 166.022C341.798 164.774 342.257 163.777 343.176 163.032C344.112 162.269 345.577 161.888 347.57 161.888H351.158V161.68C351.158 160.709 350.863 159.964 350.274 159.444C349.702 158.924 348.844 158.664 347.7 158.664C346.92 158.664 346.149 158.785 345.386 159.028C344.641 159.271 344.008 159.609 343.488 160.042L342.214 157.676C342.942 157.121 343.817 156.697 344.84 156.402C345.863 156.107 346.946 155.96 348.09 155.96ZM347.648 167.816C348.463 167.816 349.182 167.634 349.806 167.27C350.447 166.889 350.898 166.351 351.158 165.658V164.046H347.804C345.932 164.046 344.996 164.661 344.996 165.892C344.996 166.481 345.23 166.949 345.698 167.296C346.166 167.643 346.816 167.816 347.648 167.816ZM367.055 169.246C366.674 169.558 366.206 169.792 365.651 169.948C365.114 170.104 364.542 170.182 363.935 170.182C362.41 170.182 361.231 169.783 360.399 168.986C359.567 168.189 359.151 167.027 359.151 165.502V158.82H356.863V156.22H359.151V153.048H362.401V156.22H366.119V158.82H362.401V165.424C362.401 166.1 362.566 166.62 362.895 166.984C363.224 167.331 363.701 167.504 364.325 167.504C365.053 167.504 365.66 167.313 366.145 166.932L367.055 169.246ZM369.858 156.116H373.108V170H369.858V156.116ZM371.496 153.828C370.907 153.828 370.413 153.646 370.014 153.282C369.616 152.901 369.416 152.433 369.416 151.878C369.416 151.323 369.616 150.864 370.014 150.5C370.413 150.119 370.907 149.928 371.496 149.928C372.086 149.928 372.58 150.11 372.978 150.474C373.377 150.821 373.576 151.263 373.576 151.8C373.576 152.372 373.377 152.857 372.978 153.256C372.597 153.637 372.103 153.828 371.496 153.828ZM383.744 170.182C382.34 170.182 381.075 169.879 379.948 169.272C378.821 168.665 377.937 167.825 377.296 166.75C376.672 165.658 376.36 164.427 376.36 163.058C376.36 161.689 376.672 160.467 377.296 159.392C377.937 158.317 378.821 157.477 379.948 156.87C381.075 156.263 382.34 155.96 383.744 155.96C385.165 155.96 386.439 156.263 387.566 156.87C388.693 157.477 389.568 158.317 390.192 159.392C390.833 160.467 391.154 161.689 391.154 163.058C391.154 164.427 390.833 165.658 390.192 166.75C389.568 167.825 388.693 168.665 387.566 169.272C386.439 169.879 385.165 170.182 383.744 170.182ZM383.744 167.4C384.94 167.4 385.928 167.001 386.708 166.204C387.488 165.407 387.878 164.358 387.878 163.058C387.878 161.758 387.488 160.709 386.708 159.912C385.928 159.115 384.94 158.716 383.744 158.716C382.548 158.716 381.56 159.115 380.78 159.912C380.017 160.709 379.636 161.758 379.636 163.058C379.636 164.358 380.017 165.407 380.78 166.204C381.56 167.001 382.548 167.4 383.744 167.4ZM402.27 155.96C404.021 155.96 405.425 156.471 406.482 157.494C407.539 158.517 408.068 160.033 408.068 162.044V170H404.818V162.46C404.818 161.247 404.532 160.337 403.96 159.73C403.388 159.106 402.573 158.794 401.516 158.794C400.32 158.794 399.375 159.158 398.682 159.886C397.989 160.597 397.642 161.628 397.642 162.98V170H394.392V156.116H397.486V157.91C398.023 157.269 398.699 156.783 399.514 156.454C400.329 156.125 401.247 155.96 402.27 155.96Z" fill="white"/>
<path d="M598.868 170.26C597.031 170.26 595.367 169.861 593.876 169.064C592.403 168.249 591.241 167.131 590.392 165.71C589.56 164.289 589.144 162.685 589.144 160.9C589.144 159.115 589.569 157.511 590.418 156.09C591.267 154.669 592.429 153.559 593.902 152.762C595.393 151.947 597.057 151.54 598.894 151.54C600.385 151.54 601.745 151.8 602.976 152.32C604.207 152.84 605.247 153.594 606.096 154.582L603.912 156.636C602.595 155.215 600.974 154.504 599.05 154.504C597.802 154.504 596.684 154.781 595.696 155.336C594.708 155.873 593.937 156.627 593.382 157.598C592.827 158.569 592.55 159.669 592.55 160.9C592.55 162.131 592.827 163.231 593.382 164.202C593.937 165.173 594.708 165.935 595.696 166.49C596.684 167.027 597.802 167.296 599.05 167.296C600.974 167.296 602.595 166.577 603.912 165.138L606.096 167.218C605.247 168.206 604.198 168.96 602.95 169.48C601.719 170 600.359 170.26 598.868 170.26ZM614.885 170.182C613.481 170.182 612.215 169.879 611.089 169.272C609.962 168.665 609.078 167.825 608.437 166.75C607.813 165.658 607.501 164.427 607.501 163.058C607.501 161.689 607.813 160.467 608.437 159.392C609.078 158.317 609.962 157.477 611.089 156.87C612.215 156.263 613.481 155.96 614.885 155.96C616.306 155.96 617.58 156.263 618.707 156.87C619.833 157.477 620.709 158.317 621.333 159.392C621.974 160.467 622.295 161.689 622.295 163.058C622.295 164.427 621.974 165.658 621.333 166.75C620.709 167.825 619.833 168.665 618.707 169.272C617.58 169.879 616.306 170.182 614.885 170.182ZM614.885 167.4C616.081 167.4 617.069 167.001 617.849 166.204C618.629 165.407 619.019 164.358 619.019 163.058C619.019 161.758 618.629 160.709 617.849 159.912C617.069 159.115 616.081 158.716 614.885 158.716C613.689 158.716 612.701 159.115 611.921 159.912C611.158 160.709 610.777 161.758 610.777 163.058C610.777 164.358 611.158 165.407 611.921 166.204C612.701 167.001 613.689 167.4 614.885 167.4ZM625.533 150.708H628.783V170H625.533V150.708ZM633.178 150.708H636.428V170H633.178V150.708ZM646.128 155.96C648.173 155.96 649.733 156.454 650.808 157.442C651.9 158.413 652.446 159.886 652.446 161.862V170H649.378V168.31C648.979 168.917 648.407 169.385 647.662 169.714C646.934 170.026 646.05 170.182 645.01 170.182C643.97 170.182 643.06 170.009 642.28 169.662C641.5 169.298 640.893 168.804 640.46 168.18C640.044 167.539 639.836 166.819 639.836 166.022C639.836 164.774 640.295 163.777 641.214 163.032C642.15 162.269 643.615 161.888 645.608 161.888H649.196V161.68C649.196 160.709 648.901 159.964 648.312 159.444C647.74 158.924 646.882 158.664 645.738 158.664C644.958 158.664 644.187 158.785 643.424 159.028C642.679 159.271 642.046 159.609 641.526 160.042L640.252 157.676C640.98 157.121 641.855 156.697 642.878 156.402C643.901 156.107 644.984 155.96 646.128 155.96ZM645.686 167.816C646.501 167.816 647.22 167.634 647.844 167.27C648.485 166.889 648.936 166.351 649.196 165.658V164.046H645.842C643.97 164.046 643.034 164.661 643.034 165.892C643.034 166.481 643.268 166.949 643.736 167.296C644.204 167.643 644.854 167.816 645.686 167.816ZM664.443 155.96C665.795 155.96 667 156.255 668.057 156.844C669.132 157.433 669.972 158.265 670.579 159.34C671.186 160.415 671.489 161.654 671.489 163.058C671.489 164.462 671.186 165.71 670.579 166.802C669.972 167.877 669.132 168.709 668.057 169.298C667 169.887 665.795 170.182 664.443 170.182C663.49 170.182 662.614 170.017 661.817 169.688C661.037 169.359 660.378 168.865 659.841 168.206V170H656.747V150.708H659.997V157.806C660.552 157.199 661.202 156.74 661.947 156.428C662.71 156.116 663.542 155.96 664.443 155.96ZM664.079 167.4C665.275 167.4 666.254 167.001 667.017 166.204C667.797 165.407 668.187 164.358 668.187 163.058C668.187 161.758 667.797 160.709 667.017 159.912C666.254 159.115 665.275 158.716 664.079 158.716C663.299 158.716 662.597 158.898 661.973 159.262C661.349 159.609 660.855 160.111 660.491 160.77C660.127 161.429 659.945 162.191 659.945 163.058C659.945 163.925 660.127 164.687 660.491 165.346C660.855 166.005 661.349 166.516 661.973 166.88C662.597 167.227 663.299 167.4 664.079 167.4ZM680.941 170.182C679.537 170.182 678.272 169.879 677.145 169.272C676.018 168.665 675.134 167.825 674.493 166.75C673.869 165.658 673.557 164.427 673.557 163.058C673.557 161.689 673.869 160.467 674.493 159.392C675.134 158.317 676.018 157.477 677.145 156.87C678.272 156.263 679.537 155.96 680.941 155.96C682.362 155.96 683.636 156.263 684.763 156.87C685.89 157.477 686.765 158.317 687.389 159.392C688.03 160.467 688.351 161.689 688.351 163.058C688.351 164.427 688.03 165.658 687.389 166.75C686.765 167.825 685.89 168.665 684.763 169.272C683.636 169.879 682.362 170.182 680.941 170.182ZM680.941 167.4C682.137 167.4 683.125 167.001 683.905 166.204C684.685 165.407 685.075 164.358 685.075 163.058C685.075 161.758 684.685 160.709 683.905 159.912C683.125 159.115 682.137 158.716 680.941 158.716C679.745 158.716 678.757 159.115 677.977 159.912C677.214 160.709 676.833 161.758 676.833 163.058C676.833 164.358 677.214 165.407 677.977 166.204C678.757 167.001 679.745 167.4 680.941 167.4ZM694.683 158.144C695.619 156.688 697.266 155.96 699.623 155.96V159.054C699.346 159.002 699.094 158.976 698.869 158.976C697.604 158.976 696.616 159.349 695.905 160.094C695.194 160.822 694.839 161.879 694.839 163.266V170H691.589V156.116H694.683V158.144ZM707.738 155.96C709.783 155.96 711.343 156.454 712.418 157.442C713.51 158.413 714.056 159.886 714.056 161.862V170H710.988V168.31C710.589 168.917 710.017 169.385 709.272 169.714C708.544 170.026 707.66 170.182 706.62 170.182C705.58 170.182 704.67 170.009 703.89 169.662C703.11 169.298 702.503 168.804 702.07 168.18C701.654 167.539 701.446 166.819 701.446 166.022C701.446 164.774 701.905 163.777 702.824 163.032C703.76 162.269 705.224 161.888 707.218 161.888H710.806V161.68C710.806 160.709 710.511 159.964 709.922 159.444C709.35 158.924 708.492 158.664 707.348 158.664C706.568 158.664 705.796 158.785 705.034 159.028C704.288 159.271 703.656 159.609 703.136 160.042L701.862 157.676C702.59 157.121 703.465 156.697 704.488 156.402C705.51 156.107 706.594 155.96 707.738 155.96ZM707.296 167.816C708.11 167.816 708.83 167.634 709.454 167.27C710.095 166.889 710.546 166.351 710.806 165.658V164.046H707.452C705.58 164.046 704.644 164.661 704.644 165.892C704.644 166.481 704.878 166.949 705.346 167.296C705.814 167.643 706.464 167.816 707.296 167.816ZM726.703 169.246C726.321 169.558 725.853 169.792 725.299 169.948C724.761 170.104 724.189 170.182 723.583 170.182C722.057 170.182 720.879 169.783 720.047 168.986C719.215 168.189 718.799 167.027 718.799 165.502V158.82H716.511V156.22H718.799V153.048H722.049V156.22H725.767V158.82H722.049V165.424C722.049 166.1 722.213 166.62 722.543 166.984C722.872 167.331 723.349 167.504 723.973 167.504C724.701 167.504 725.307 167.313 725.793 166.932L726.703 169.246ZM729.506 156.116H732.756V170H729.506V156.116ZM731.144 153.828C730.555 153.828 730.061 153.646 729.662 153.282C729.264 152.901 729.064 152.433 729.064 151.878C729.064 151.323 729.264 150.864 729.662 150.5C730.061 150.119 730.555 149.928 731.144 149.928C731.734 149.928 732.228 150.11 732.626 150.474C733.025 150.821 733.224 151.263 733.224 151.8C733.224 152.372 733.025 152.857 732.626 153.256C732.245 153.637 731.751 153.828 731.144 153.828ZM743.392 170.182C741.988 170.182 740.723 169.879 739.596 169.272C738.469 168.665 737.585 167.825 736.944 166.75C736.32 165.658 736.008 164.427 736.008 163.058C736.008 161.689 736.32 160.467 736.944 159.392C737.585 158.317 738.469 157.477 739.596 156.87C740.723 156.263 741.988 155.96 743.392 155.96C744.813 155.96 746.087 156.263 747.214 156.87C748.341 157.477 749.216 158.317 749.84 159.392C750.481 160.467 750.802 161.689 750.802 163.058C750.802 164.427 750.481 165.658 749.84 166.75C749.216 167.825 748.341 168.665 747.214 169.272C746.087 169.879 744.813 170.182 743.392 170.182ZM743.392 167.4C744.588 167.4 745.576 167.001 746.356 166.204C747.136 165.407 747.526 164.358 747.526 163.058C747.526 161.758 747.136 160.709 746.356 159.912C745.576 159.115 744.588 158.716 743.392 158.716C742.196 158.716 741.208 159.115 740.428 159.912C739.665 160.709 739.284 161.758 739.284 163.058C739.284 164.358 739.665 165.407 740.428 166.204C741.208 167.001 742.196 167.4 743.392 167.4ZM761.918 155.96C763.668 155.96 765.072 156.471 766.13 157.494C767.187 158.517 767.716 160.033 767.716 162.044V170H764.466V162.46C764.466 161.247 764.18 160.337 763.608 159.73C763.036 159.106 762.221 158.794 761.164 158.794C759.968 158.794 759.023 159.158 758.33 159.886C757.636 160.597 757.29 161.628 757.29 162.98V170H754.04V156.116H757.134V157.91C757.671 157.269 758.347 156.783 759.162 156.454C759.976 156.125 760.895 155.96 761.918 155.96Z" fill="white"/>
<path d="M920.658 171.82C920.051 172.531 919.341 173.068 918.526 173.432C917.729 173.796 916.853 173.978 915.9 173.978C914.652 173.978 913.508 173.692 912.468 173.12C911.428 172.565 910.241 171.595 908.906 170.208C907.225 170.069 905.717 169.584 904.382 168.752C903.047 167.903 902.007 166.802 901.262 165.45C900.517 164.081 900.144 162.564 900.144 160.9C900.144 159.132 900.569 157.537 901.418 156.116C902.267 154.677 903.437 153.559 904.928 152.762C906.419 151.947 908.091 151.54 909.946 151.54C911.801 151.54 913.473 151.947 914.964 152.762C916.455 153.559 917.625 154.669 918.474 156.09C919.323 157.511 919.748 159.115 919.748 160.9C919.748 162.339 919.462 163.673 918.89 164.904C918.318 166.117 917.521 167.157 916.498 168.024C915.475 168.873 914.288 169.489 912.936 169.87C913.439 170.407 913.933 170.797 914.418 171.04C914.903 171.283 915.423 171.404 915.978 171.404C917.174 171.404 918.214 170.919 919.098 169.948L920.658 171.82ZM903.55 160.9C903.55 162.113 903.827 163.214 904.382 164.202C904.937 165.173 905.699 165.935 906.67 166.49C907.641 167.027 908.733 167.296 909.946 167.296C911.159 167.296 912.251 167.027 913.222 166.49C914.193 165.935 914.955 165.173 915.51 164.202C916.065 163.214 916.342 162.113 916.342 160.9C916.342 159.687 916.065 158.595 915.51 157.624C914.955 156.636 914.193 155.873 913.222 155.336C912.251 154.781 911.159 154.504 909.946 154.504C908.733 154.504 907.641 154.781 906.67 155.336C905.699 155.873 904.937 156.636 904.382 157.624C903.827 158.595 903.55 159.687 903.55 160.9ZM936.591 156.116V170H933.497V168.232C932.977 168.856 932.327 169.341 931.547 169.688C930.767 170.017 929.926 170.182 929.025 170.182C927.17 170.182 925.705 169.671 924.631 168.648C923.573 167.608 923.045 166.074 923.045 164.046V156.116H926.295V163.604C926.295 164.852 926.572 165.788 927.127 166.412C927.699 167.019 928.505 167.322 929.545 167.322C930.706 167.322 931.625 166.967 932.301 166.256C932.994 165.528 933.341 164.488 933.341 163.136V156.116H936.591ZM946.28 155.96C948.325 155.96 949.885 156.454 950.96 157.442C952.052 158.413 952.598 159.886 952.598 161.862V170H949.53V168.31C949.131 168.917 948.559 169.385 947.814 169.714C947.086 170.026 946.202 170.182 945.162 170.182C944.122 170.182 943.212 170.009 942.432 169.662C941.652 169.298 941.045 168.804 940.612 168.18C940.196 167.539 939.988 166.819 939.988 166.022C939.988 164.774 940.447 163.777 941.366 163.032C942.302 162.269 943.767 161.888 945.76 161.888H949.348V161.68C949.348 160.709 949.053 159.964 948.464 159.444C947.892 158.924 947.034 158.664 945.89 158.664C945.11 158.664 944.339 158.785 943.576 159.028C942.831 159.271 942.198 159.609 941.678 160.042L940.404 157.676C941.132 157.121 942.007 156.697 943.03 156.402C944.053 156.107 945.136 155.96 946.28 155.96ZM945.838 167.816C946.653 167.816 947.372 167.634 947.996 167.27C948.637 166.889 949.088 166.351 949.348 165.658V164.046H945.994C944.122 164.046 943.186 164.661 943.186 165.892C943.186 166.481 943.42 166.949 943.888 167.296C944.356 167.643 945.006 167.816 945.838 167.816ZM956.899 150.708H960.149V170H956.899V150.708ZM964.545 156.116H967.795V170H964.545V156.116ZM966.183 153.828C965.593 153.828 965.099 153.646 964.701 153.282C964.302 152.901 964.103 152.433 964.103 151.878C964.103 151.323 964.302 150.864 964.701 150.5C965.099 150.119 965.593 149.928 966.183 149.928C966.772 149.928 967.266 150.11 967.665 150.474C968.063 150.821 968.263 151.263 968.263 151.8C968.263 152.372 968.063 152.857 967.665 153.256C967.283 153.637 966.789 153.828 966.183 153.828ZM980.536 169.246C980.155 169.558 979.687 169.792 979.132 169.948C978.595 170.104 978.023 170.182 977.416 170.182C975.891 170.182 974.712 169.783 973.88 168.986C973.048 168.189 972.632 167.027 972.632 165.502V158.82H970.344V156.22H972.632V153.048H975.882V156.22H979.6V158.82H975.882V165.424C975.882 166.1 976.047 166.62 976.376 166.984C976.706 167.331 977.182 167.504 977.806 167.504C978.534 167.504 979.141 167.313 979.626 166.932L980.536 169.246ZM996.086 156.116L989.586 171.118C988.979 172.626 988.242 173.683 987.376 174.29C986.509 174.914 985.46 175.226 984.23 175.226C983.536 175.226 982.852 175.113 982.176 174.888C981.5 174.663 980.945 174.351 980.512 173.952L981.812 171.56C982.124 171.855 982.488 172.089 982.904 172.262C983.337 172.435 983.77 172.522 984.204 172.522C984.776 172.522 985.244 172.375 985.608 172.08C985.989 171.785 986.336 171.291 986.648 170.598L986.882 170.052L980.824 156.116H984.204L988.572 166.386L992.966 156.116H996.086ZM1019.52 170.286L1017.24 168.076C1015.54 169.532 1013.5 170.26 1011.13 170.26C1009.86 170.26 1008.73 170.052 1007.72 169.636C1006.72 169.22 1005.93 168.648 1005.35 167.92C1004.78 167.175 1004.5 166.334 1004.5 165.398C1004.5 164.271 1004.83 163.283 1005.48 162.434C1006.14 161.567 1007.22 160.718 1008.71 159.886C1007.98 159.158 1007.46 158.482 1007.15 157.858C1006.84 157.217 1006.68 156.558 1006.68 155.882C1006.68 154.599 1007.16 153.568 1008.11 152.788C1009.08 151.991 1010.36 151.592 1011.96 151.592C1013.43 151.592 1014.61 151.956 1015.49 152.684C1016.38 153.395 1016.82 154.365 1016.82 155.596C1016.82 156.532 1016.53 157.364 1015.94 158.092C1015.36 158.82 1014.42 159.557 1013.1 160.302L1017.03 164.046C1017.46 163.197 1017.8 162.174 1018.04 160.978L1020.67 161.836C1020.32 163.448 1019.78 164.835 1019.03 165.996L1021.32 168.18L1019.52 170.286ZM1011.96 153.906C1011.25 153.906 1010.68 154.088 1010.27 154.452C1009.85 154.799 1009.64 155.258 1009.64 155.83C1009.64 156.246 1009.76 156.645 1009.98 157.026C1010.21 157.39 1010.64 157.893 1011.28 158.534C1012.32 157.962 1013.04 157.468 1013.44 157.052C1013.86 156.619 1014.06 156.151 1014.06 155.648C1014.06 155.111 1013.87 154.686 1013.49 154.374C1013.13 154.062 1012.62 153.906 1011.96 153.906ZM1011.36 167.608C1012.87 167.608 1014.19 167.149 1015.31 166.23L1010.5 161.628C1009.46 162.2 1008.73 162.755 1008.29 163.292C1007.88 163.812 1007.67 164.401 1007.67 165.06C1007.67 165.823 1008.01 166.438 1008.68 166.906C1009.36 167.374 1010.25 167.608 1011.36 167.608ZM1040.1 170.26C1038.26 170.26 1036.6 169.861 1035.11 169.064C1033.64 168.249 1032.47 167.131 1031.63 165.71C1030.79 164.289 1030.38 162.685 1030.38 160.9C1030.38 159.115 1030.8 157.511 1031.65 156.09C1032.5 154.669 1033.66 153.559 1035.14 152.762C1036.63 151.947 1038.29 151.54 1040.13 151.54C1041.62 151.54 1042.98 151.8 1044.21 152.32C1045.44 152.84 1046.48 153.594 1047.33 154.582L1045.15 156.636C1043.83 155.215 1042.21 154.504 1040.28 154.504C1039.04 154.504 1037.92 154.781 1036.93 155.336C1035.94 155.873 1035.17 156.627 1034.62 157.598C1034.06 158.569 1033.78 159.669 1033.78 160.9C1033.78 162.131 1034.06 163.231 1034.62 164.202C1035.17 165.173 1035.94 165.935 1036.93 166.49C1037.92 167.027 1039.04 167.296 1040.28 167.296C1042.21 167.296 1043.83 166.577 1045.15 165.138L1047.33 167.218C1046.48 168.206 1045.43 168.96 1044.18 169.48C1042.95 170 1041.59 170.26 1040.1 170.26ZM1056.12 170.182C1054.71 170.182 1053.45 169.879 1052.32 169.272C1051.2 168.665 1050.31 167.825 1049.67 166.75C1049.05 165.658 1048.73 164.427 1048.73 163.058C1048.73 161.689 1049.05 160.467 1049.67 159.392C1050.31 158.317 1051.2 157.477 1052.32 156.87C1053.45 156.263 1054.71 155.96 1056.12 155.96C1057.54 155.96 1058.81 156.263 1059.94 156.87C1061.07 157.477 1061.94 158.317 1062.57 159.392C1063.21 160.467 1063.53 161.689 1063.53 163.058C1063.53 164.427 1063.21 165.658 1062.57 166.75C1061.94 167.825 1061.07 168.665 1059.94 169.272C1058.81 169.879 1057.54 170.182 1056.12 170.182ZM1056.12 167.4C1057.31 167.4 1058.3 167.001 1059.08 166.204C1059.86 165.407 1060.25 164.358 1060.25 163.058C1060.25 161.758 1059.86 160.709 1059.08 159.912C1058.3 159.115 1057.31 158.716 1056.12 158.716C1054.92 158.716 1053.93 159.115 1053.15 159.912C1052.39 160.709 1052.01 161.758 1052.01 163.058C1052.01 164.358 1052.39 165.407 1053.15 166.204C1053.93 167.001 1054.92 167.4 1056.12 167.4ZM1084.29 155.96C1086.04 155.96 1087.43 156.471 1088.45 157.494C1089.47 158.499 1089.98 160.016 1089.98 162.044V170H1086.73V162.46C1086.73 161.247 1086.47 160.337 1085.93 159.73C1085.39 159.106 1084.62 158.794 1083.61 158.794C1082.52 158.794 1081.65 159.158 1080.99 159.886C1080.33 160.597 1080 161.619 1080 162.954V170H1076.75V162.46C1076.75 161.247 1076.48 160.337 1075.94 159.73C1075.41 159.106 1074.64 158.794 1073.63 158.794C1072.52 158.794 1071.64 159.149 1070.98 159.86C1070.34 160.571 1070.02 161.602 1070.02 162.954V170H1066.77V156.116H1069.86V157.884C1070.38 157.26 1071.03 156.783 1071.81 156.454C1072.59 156.125 1073.46 155.96 1074.41 155.96C1075.45 155.96 1076.37 156.159 1077.17 156.558C1077.98 156.939 1078.62 157.511 1079.09 158.274C1079.66 157.546 1080.4 156.983 1081.3 156.584C1082.2 156.168 1083.2 155.96 1084.29 155.96ZM1099.91 153.152C1098.54 153.152 1097.86 153.897 1097.86 155.388V156.22H1101.68V158.82H1097.96V170H1094.71V158.82H1092.42V156.22H1094.71V155.336C1094.71 153.845 1095.14 152.675 1096.01 151.826C1096.88 150.959 1098.1 150.526 1099.68 150.526C1100.92 150.526 1101.9 150.777 1102.61 151.28L1101.7 153.724C1101.15 153.343 1100.55 153.152 1099.91 153.152ZM1110.03 170.182C1108.63 170.182 1107.36 169.879 1106.24 169.272C1105.11 168.665 1104.23 167.825 1103.58 166.75C1102.96 165.658 1102.65 164.427 1102.65 163.058C1102.65 161.689 1102.96 160.467 1103.58 159.392C1104.23 158.317 1105.11 157.477 1106.24 156.87C1107.36 156.263 1108.63 155.96 1110.03 155.96C1111.45 155.96 1112.73 156.263 1113.85 156.87C1114.98 157.477 1115.86 158.317 1116.48 159.392C1117.12 160.467 1117.44 161.689 1117.44 163.058C1117.44 164.427 1117.12 165.658 1116.48 166.75C1115.86 167.825 1114.98 168.665 1113.85 169.272C1112.73 169.879 1111.45 170.182 1110.03 170.182ZM1110.03 167.4C1111.23 167.4 1112.22 167.001 1113 166.204C1113.78 165.407 1114.17 164.358 1114.17 163.058C1114.17 161.758 1113.78 160.709 1113 159.912C1112.22 159.115 1111.23 158.716 1110.03 158.716C1108.84 158.716 1107.85 159.115 1107.07 159.912C1106.31 160.709 1105.92 161.758 1105.92 163.058C1105.92 164.358 1106.31 165.407 1107.07 166.204C1107.85 167.001 1108.84 167.4 1110.03 167.4ZM1123.77 158.144C1124.71 156.688 1126.36 155.96 1128.71 155.96V159.054C1128.44 159.002 1128.18 158.976 1127.96 158.976C1126.69 158.976 1125.71 159.349 1125 160.094C1124.28 160.822 1123.93 161.879 1123.93 163.266V170H1120.68V156.116H1123.77V158.144ZM1140.45 169.246C1140.07 169.558 1139.61 169.792 1139.05 169.948C1138.51 170.104 1137.94 170.182 1137.33 170.182C1135.81 170.182 1134.63 169.783 1133.8 168.986C1132.97 168.189 1132.55 167.027 1132.55 165.502V158.82H1130.26V156.22H1132.55V153.048H1135.8V156.22H1139.52V158.82H1135.8V165.424C1135.8 166.1 1135.97 166.62 1136.29 166.984C1136.62 167.331 1137.1 167.504 1137.72 167.504C1138.45 167.504 1139.06 167.313 1139.54 166.932L1140.45 169.246Z" fill="white"/>
<path d="M1266.09 170.26C1264.68 170.26 1263.32 170.061 1262 169.662C1260.7 169.263 1259.67 168.735 1258.91 168.076L1260.08 165.45C1260.83 166.039 1261.74 166.525 1262.81 166.906C1263.9 167.27 1264.99 167.452 1266.09 167.452C1267.44 167.452 1268.44 167.235 1269.1 166.802C1269.78 166.369 1270.12 165.797 1270.12 165.086C1270.12 164.566 1269.93 164.141 1269.54 163.812C1269.18 163.465 1268.71 163.197 1268.14 163.006C1267.57 162.815 1266.79 162.599 1265.8 162.356C1264.41 162.027 1263.29 161.697 1262.42 161.368C1261.57 161.039 1260.83 160.527 1260.21 159.834C1259.6 159.123 1259.3 158.17 1259.3 156.974C1259.3 155.969 1259.57 155.059 1260.11 154.244C1260.66 153.412 1261.48 152.753 1262.58 152.268C1263.69 151.783 1265.04 151.54 1266.63 151.54C1267.74 151.54 1268.83 151.679 1269.91 151.956C1270.98 152.233 1271.91 152.632 1272.69 153.152L1271.62 155.778C1270.83 155.31 1269.99 154.955 1269.13 154.712C1268.26 154.469 1267.42 154.348 1266.61 154.348C1265.27 154.348 1264.27 154.573 1263.62 155.024C1262.97 155.475 1262.65 156.073 1262.65 156.818C1262.65 157.338 1262.84 157.763 1263.2 158.092C1263.58 158.421 1264.06 158.681 1264.63 158.872C1265.2 159.063 1265.98 159.279 1266.97 159.522C1268.32 159.834 1269.43 160.163 1270.3 160.51C1271.16 160.839 1271.9 161.351 1272.51 162.044C1273.13 162.737 1273.44 163.673 1273.44 164.852C1273.44 165.857 1273.17 166.767 1272.61 167.582C1272.07 168.397 1271.25 169.047 1270.14 169.532C1269.03 170.017 1267.68 170.26 1266.09 170.26ZM1290.06 156.116V170H1286.96V168.232C1286.44 168.856 1285.79 169.341 1285.01 169.688C1284.23 170.017 1283.39 170.182 1282.49 170.182C1280.63 170.182 1279.17 169.671 1278.1 168.648C1277.04 167.608 1276.51 166.074 1276.51 164.046V156.116H1279.76V163.604C1279.76 164.852 1280.04 165.788 1280.59 166.412C1281.16 167.019 1281.97 167.322 1283.01 167.322C1284.17 167.322 1285.09 166.967 1285.77 166.256C1286.46 165.528 1286.81 164.488 1286.81 163.136V156.116H1290.06ZM1298.73 170.182C1297.6 170.182 1296.5 170.035 1295.43 169.74C1294.35 169.445 1293.5 169.073 1292.85 168.622L1294.1 166.152C1294.73 166.568 1295.47 166.906 1296.34 167.166C1297.22 167.409 1298.09 167.53 1298.94 167.53C1300.88 167.53 1301.85 167.019 1301.85 165.996C1301.85 165.511 1301.6 165.173 1301.1 164.982C1300.61 164.791 1299.82 164.609 1298.73 164.436C1297.59 164.263 1296.65 164.063 1295.92 163.838C1295.21 163.613 1294.59 163.223 1294.05 162.668C1293.53 162.096 1293.27 161.307 1293.27 160.302C1293.27 158.985 1293.82 157.936 1294.91 157.156C1296.02 156.359 1297.51 155.96 1299.38 155.96C1300.33 155.96 1301.29 156.073 1302.24 156.298C1303.19 156.506 1303.97 156.792 1304.58 157.156L1303.33 159.626C1302.15 158.933 1300.83 158.586 1299.35 158.586C1298.4 158.586 1297.67 158.733 1297.17 159.028C1296.69 159.305 1296.44 159.678 1296.44 160.146C1296.44 160.666 1296.7 161.039 1297.22 161.264C1297.76 161.472 1298.58 161.671 1299.69 161.862C1300.8 162.035 1301.71 162.235 1302.42 162.46C1303.13 162.685 1303.74 163.067 1304.24 163.604C1304.76 164.141 1305.02 164.904 1305.02 165.892C1305.02 167.192 1304.46 168.232 1303.33 169.012C1302.21 169.792 1300.67 170.182 1298.73 170.182ZM1316.3 169.246C1315.92 169.558 1315.45 169.792 1314.89 169.948C1314.36 170.104 1313.78 170.182 1313.18 170.182C1311.65 170.182 1310.47 169.783 1309.64 168.986C1308.81 168.189 1308.39 167.027 1308.39 165.502V158.82H1306.11V156.22H1308.39V153.048H1311.64V156.22H1315.36V158.82H1311.64V165.424C1311.64 166.1 1311.81 166.62 1312.14 166.984C1312.47 167.331 1312.94 167.504 1313.57 167.504C1314.3 167.504 1314.9 167.313 1315.39 166.932L1316.3 169.246ZM1324.41 155.96C1326.45 155.96 1328.01 156.454 1329.09 157.442C1330.18 158.413 1330.72 159.886 1330.72 161.862V170H1327.66V168.31C1327.26 168.917 1326.68 169.385 1325.94 169.714C1325.21 170.026 1324.33 170.182 1323.29 170.182C1322.25 170.182 1321.34 170.009 1320.56 169.662C1319.78 169.298 1319.17 168.804 1318.74 168.18C1318.32 167.539 1318.11 166.819 1318.11 166.022C1318.11 164.774 1318.57 163.777 1319.49 163.032C1320.43 162.269 1321.89 161.888 1323.89 161.888H1327.47V161.68C1327.47 160.709 1327.18 159.964 1326.59 159.444C1326.02 158.924 1325.16 158.664 1324.02 158.664C1323.24 158.664 1322.46 158.785 1321.7 159.028C1320.96 159.271 1320.32 159.609 1319.8 160.042L1318.53 157.676C1319.26 157.121 1320.13 156.697 1321.16 156.402C1322.18 156.107 1323.26 155.96 1324.41 155.96ZM1323.96 167.816C1324.78 167.816 1325.5 167.634 1326.12 167.27C1326.76 166.889 1327.21 166.351 1327.47 165.658V164.046H1324.12C1322.25 164.046 1321.31 164.661 1321.31 165.892C1321.31 166.481 1321.55 166.949 1322.01 167.296C1322.48 167.643 1323.13 167.816 1323.96 167.816ZM1335.02 156.116H1338.27V170H1335.02V156.116ZM1336.66 153.828C1336.07 153.828 1335.58 153.646 1335.18 153.282C1334.78 152.901 1334.58 152.433 1334.58 151.878C1334.58 151.323 1334.78 150.864 1335.18 150.5C1335.58 150.119 1336.07 149.928 1336.66 149.928C1337.25 149.928 1337.75 150.11 1338.14 150.474C1338.54 150.821 1338.74 151.263 1338.74 151.8C1338.74 152.372 1338.54 152.857 1338.14 153.256C1337.76 153.637 1337.27 153.828 1336.66 153.828ZM1350.55 155.96C1352.3 155.96 1353.7 156.471 1354.76 157.494C1355.82 158.517 1356.35 160.033 1356.35 162.044V170H1353.1V162.46C1353.1 161.247 1352.81 160.337 1352.24 159.73C1351.67 159.106 1350.85 158.794 1349.79 158.794C1348.6 158.794 1347.65 159.158 1346.96 159.886C1346.27 160.597 1345.92 161.628 1345.92 162.98V170H1342.67V156.116H1345.76V157.91C1346.3 157.269 1346.98 156.783 1347.79 156.454C1348.61 156.125 1349.53 155.96 1350.55 155.96ZM1360.6 156.116H1363.85V170H1360.6V156.116ZM1362.24 153.828C1361.65 153.828 1361.15 153.646 1360.75 153.282C1360.36 152.901 1360.16 152.433 1360.16 151.878C1360.16 151.323 1360.36 150.864 1360.75 150.5C1361.15 150.119 1361.65 149.928 1362.24 149.928C1362.83 149.928 1363.32 150.11 1363.72 150.474C1364.12 150.821 1364.32 151.263 1364.32 151.8C1364.32 152.372 1364.12 152.857 1363.72 153.256C1363.34 153.637 1362.84 153.828 1362.24 153.828ZM1375.94 155.96C1377.29 155.96 1378.5 156.255 1379.55 156.844C1380.63 157.433 1381.47 158.265 1382.08 159.34C1382.68 160.415 1382.99 161.654 1382.99 163.058C1382.99 164.462 1382.68 165.71 1382.08 166.802C1381.47 167.877 1380.63 168.709 1379.55 169.298C1378.5 169.887 1377.29 170.182 1375.94 170.182C1374.99 170.182 1374.11 170.017 1373.31 169.688C1372.53 169.359 1371.88 168.865 1371.34 168.206V170H1368.24V150.708H1371.49V157.806C1372.05 157.199 1372.7 156.74 1373.44 156.428C1374.21 156.116 1375.04 155.96 1375.94 155.96ZM1375.58 167.4C1376.77 167.4 1377.75 167.001 1378.51 166.204C1379.29 165.407 1379.68 164.358 1379.68 163.058C1379.68 161.758 1379.29 160.709 1378.51 159.912C1377.75 159.115 1376.77 158.716 1375.58 158.716C1374.8 158.716 1374.09 158.898 1373.47 159.262C1372.85 159.609 1372.35 160.111 1371.99 160.77C1371.62 161.429 1371.44 162.191 1371.44 163.058C1371.44 163.925 1371.62 164.687 1371.99 165.346C1372.35 166.005 1372.85 166.516 1373.47 166.88C1374.09 167.227 1374.8 167.4 1375.58 167.4ZM1386.2 156.116H1389.45V170H1386.2V156.116ZM1387.84 153.828C1387.25 153.828 1386.75 153.646 1386.35 153.282C1385.96 152.901 1385.76 152.433 1385.76 151.878C1385.76 151.323 1385.96 150.864 1386.35 150.5C1386.75 150.119 1387.25 149.928 1387.84 149.928C1388.43 149.928 1388.92 150.11 1389.32 150.474C1389.72 150.821 1389.92 151.263 1389.92 151.8C1389.92 152.372 1389.72 152.857 1389.32 153.256C1388.94 153.637 1388.44 153.828 1387.84 153.828ZM1393.84 150.708H1397.09V170H1393.84V150.708ZM1401.49 156.116H1404.74V170H1401.49V156.116ZM1403.13 153.828C1402.54 153.828 1402.04 153.646 1401.65 153.282C1401.25 152.901 1401.05 152.433 1401.05 151.878C1401.05 151.323 1401.25 150.864 1401.65 150.5C1402.04 150.119 1402.54 149.928 1403.13 149.928C1403.72 149.928 1404.21 150.11 1404.61 150.474C1405.01 150.821 1405.21 151.263 1405.21 151.8C1405.21 152.372 1405.01 152.857 1404.61 153.256C1404.23 153.637 1403.73 153.828 1403.13 153.828ZM1417.48 169.246C1417.1 169.558 1416.63 169.792 1416.08 169.948C1415.54 170.104 1414.97 170.182 1414.36 170.182C1412.84 170.182 1411.66 169.783 1410.83 168.986C1409.99 168.189 1409.58 167.027 1409.58 165.502V158.82H1407.29V156.22H1409.58V153.048H1412.83V156.22H1416.55V158.82H1412.83V165.424C1412.83 166.1 1412.99 166.62 1413.32 166.984C1413.65 167.331 1414.13 167.504 1414.75 167.504C1415.48 167.504 1416.09 167.313 1416.57 166.932L1417.48 169.246ZM1433.03 156.116L1426.53 171.118C1425.92 172.626 1425.19 173.683 1424.32 174.29C1423.45 174.914 1422.41 175.226 1421.17 175.226C1420.48 175.226 1419.8 175.113 1419.12 174.888C1418.44 174.663 1417.89 174.351 1417.46 173.952L1418.76 171.56C1419.07 171.855 1419.43 172.089 1419.85 172.262C1420.28 172.435 1420.72 172.522 1421.15 172.522C1421.72 172.522 1422.19 172.375 1422.55 172.08C1422.93 171.785 1423.28 171.291 1423.59 170.598L1423.83 170.052L1417.77 156.116H1421.15L1425.52 166.386L1429.91 156.116H1433.03Z" fill="white"/>
</svg>
