<svg width="85" height="85" viewBox="0 0 85 85" fill="none" xmlns="http://www.w3.org/2000/svg">
<g filter="url(#filter0_ii_0_1)">
<rect width="85" height="85" rx="42.5" fill="#F9F9F9"/>
</g>
<path d="M40.9393 58.0607C41.5251 58.6464 42.4749 58.6464 43.0607 58.0607L52.6066 48.5147C53.1924 47.9289 53.1924 46.9792 52.6066 46.3934C52.0208 45.8076 51.0711 45.8076 50.4853 46.3934L42 54.8787L33.5147 46.3934C32.9289 45.8076 31.9792 45.8076 31.3934 46.3934C30.8076 46.9792 30.8076 47.9289 31.3934 48.5147L40.9393 58.0607ZM40.5 56L40.5 57L43.5 57L43.5 56L40.5 56Z" fill="#12B7B6"/>
<path d="M40.9393 45.0607C41.5251 45.6464 42.4749 45.6464 43.0607 45.0607L52.6066 35.5147C53.1924 34.9289 53.1924 33.9792 52.6066 33.3934C52.0208 32.8076 51.0711 32.8076 50.4853 33.3934L42 41.8787L33.5147 33.3934C32.9289 32.8076 31.9792 32.8076 31.3934 33.3934C30.8076 33.9792 30.8076 34.9289 31.3934 35.5147L40.9393 45.0607ZM40.5 43L40.5 44L43.5 44L43.5 43L40.5 43Z" fill="#12B7B6"/>
<defs>
<filter id="filter0_ii_0_1" x="-10" y="-10" width="105" height="105" filterUnits="userSpaceOnUse" color-interpolation-filters="sRGB">
<feFlood flood-opacity="0" result="BackgroundImageFix"/>
<feBlend mode="normal" in="SourceGraphic" in2="BackgroundImageFix" result="shape"/>
<feColorMatrix in="SourceAlpha" type="matrix" values="0 0 0 0 0 0 0 0 0 0 0 0 0 0 0 0 0 0 127 0" result="hardAlpha"/>
<feOffset dx="10" dy="10"/>
<feGaussianBlur stdDeviation="10"/>
<feComposite in2="hardAlpha" operator="arithmetic" k2="-1" k3="1"/>
<feColorMatrix type="matrix" values="0 0 0 0 0 0 0 0 0 0 0 0 0 0 0 0 0 0 0.08 0"/>
<feBlend mode="normal" in2="shape" result="effect1_innerShadow_0_1"/>
<feColorMatrix in="SourceAlpha" type="matrix" values="0 0 0 0 0 0 0 0 0 0 0 0 0 0 0 0 0 0 127 0" result="hardAlpha"/>
<feOffset dx="-10" dy="-10"/>
<feGaussianBlur stdDeviation="10"/>
<feComposite in2="hardAlpha" operator="arithmetic" k2="-1" k3="1"/>
<feColorMatrix type="matrix" values="0 0 0 0 1 0 0 0 0 1 0 0 0 0 1 0 0 0 1 0"/>
<feBlend mode="normal" in2="effect1_innerShadow_0_1" result="effect2_innerShadow_0_1"/>
</filter>
</defs>
</svg>
