<svg width="404" height="136" viewBox="0 0 404 136" fill="none" xmlns="http://www.w3.org/2000/svg">
<path d="M20.05 36.5C17.3167 36.5 14.8 36.0667 12.5 35.2C10.2333 34.3 8.25 33.05 6.55 31.45C4.85 29.8167 3.53333 27.9 2.6 25.7C1.66667 23.5 1.2 21.1 1.2 18.5C1.2 15.9 1.66667 13.5 2.6 11.3C3.53333 9.1 4.85 7.2 6.55 5.6C8.28333 3.96667 10.3 2.71667 12.6 1.85C14.9 0.949998 17.4167 0.499998 20.15 0.499998C23.1167 0.499998 25.7833 0.983331 28.15 1.95C30.55 2.91667 32.5667 4.33333 34.2 6.2L30.1 10.2C28.7333 8.83333 27.25 7.83333 25.65 7.2C24.0833 6.53333 22.35 6.2 20.45 6.2C18.6167 6.2 16.9167 6.5 15.35 7.1C13.7833 7.7 12.4333 8.55 11.3 9.65C10.1667 10.75 9.28333 12.05 8.65 13.55C8.05 15.05 7.75 16.7 7.75 18.5C7.75 20.2667 8.05 21.9 8.65 23.4C9.28333 24.9 10.1667 26.2167 11.3 27.35C12.4333 28.45 13.7667 29.3 15.3 29.9C16.8333 30.5 18.5333 30.8 20.4 30.8C22.1333 30.8 23.8 30.5333 25.4 30C27.0333 29.4333 28.5833 28.5 30.05 27.2L33.75 32.05C31.9167 33.5167 29.7833 34.6333 27.35 35.4C24.95 36.1333 22.5167 36.5 20.05 36.5ZM27.6 31.2V18.1H33.75V32.05L27.6 31.2ZM42.573 36V0.999998H58.973C63.173 0.999998 66.373 1.83333 68.573 3.5C70.773 5.13333 71.873 7.33333 71.873 10.1C71.873 11.9667 71.4397 13.5667 70.573 14.9C69.7064 16.2 68.5397 17.2167 67.073 17.95C65.6397 18.65 64.073 19 62.373 19L63.273 17.2C65.2397 17.2 67.0064 17.5667 68.573 18.3C70.1397 19 71.373 20.0333 72.273 21.4C73.2064 22.7667 73.673 24.4667 73.673 26.5C73.673 29.5 72.523 31.8333 70.223 33.5C67.923 35.1667 64.5064 36 59.973 36H42.573ZM49.073 30.9H59.573C62.0064 30.9 63.873 30.5 65.173 29.7C66.473 28.9 67.123 27.6167 67.123 25.85C67.123 24.1167 66.473 22.85 65.173 22.05C63.873 21.2167 62.0064 20.8 59.573 20.8H48.573V15.75H58.273C60.5397 15.75 62.273 15.35 63.473 14.55C64.7064 13.75 65.323 12.55 65.323 10.95C65.323 9.31667 64.7064 8.1 63.473 7.3C62.273 6.5 60.5397 6.1 58.273 6.1H49.073V30.9ZM80.8602 36V0.999998H95.2602C98.3602 0.999998 101.01 1.5 103.21 2.5C105.443 3.5 107.16 4.93333 108.36 6.8C109.56 8.66667 110.16 10.8833 110.16 13.45C110.16 16.0167 109.56 18.2333 108.36 20.1C107.16 21.9667 105.443 23.4 103.21 24.4C101.01 25.4 98.3602 25.9 95.2602 25.9H84.4602L87.3602 22.85V36H80.8602ZM87.3602 23.55L84.4602 20.4H94.9602C97.8268 20.4 99.9768 19.8 101.41 18.6C102.877 17.3667 103.61 15.65 103.61 13.45C103.61 11.2167 102.877 9.5 101.41 8.3C99.9768 7.1 97.8268 6.5 94.9602 6.5H84.4602L87.3602 3.3V23.55Z" fill="#12B7B6"/>
<path d="M1.736 95V78.2H8.024C9.448 78.2 10.672 78.432 11.696 78.896C12.72 79.344 13.504 80 14.048 80.864C14.608 81.712 14.888 82.744 14.888 83.96C14.888 85.144 14.608 86.168 14.048 87.032C13.504 87.88 12.72 88.536 11.696 89C10.672 89.448 9.448 89.672 8.024 89.672H2.72L3.512 88.856V95H1.736ZM13.208 95L8.888 88.904H10.808L15.152 95H13.208ZM3.512 89L2.72 88.16H7.976C9.656 88.16 10.928 87.792 11.792 87.056C12.672 86.32 13.112 85.288 13.112 83.96C13.112 82.616 12.672 81.576 11.792 80.84C10.928 80.104 9.656 79.736 7.976 79.736H2.72L3.512 78.896V89ZM24.5757 95.12C23.3597 95.12 22.2637 94.848 21.2877 94.304C20.3277 93.744 19.5677 92.984 19.0077 92.024C18.4477 91.048 18.1677 89.936 18.1677 88.688C18.1677 87.424 18.4477 86.312 19.0077 85.352C19.5677 84.392 20.3277 83.64 21.2877 83.096C22.2477 82.552 23.3437 82.28 24.5757 82.28C25.8238 82.28 26.9278 82.552 27.8878 83.096C28.8637 83.64 29.6237 84.392 30.1677 85.352C30.7277 86.312 31.0078 87.424 31.0078 88.688C31.0078 89.936 30.7277 91.048 30.1677 92.024C29.6237 92.984 28.8637 93.744 27.8878 94.304C26.9117 94.848 25.8077 95.12 24.5757 95.12ZM24.5757 93.608C25.4877 93.608 26.2957 93.408 26.9998 93.008C27.7038 92.592 28.2557 92.016 28.6557 91.28C29.0717 90.528 29.2797 89.664 29.2797 88.688C29.2797 87.696 29.0717 86.832 28.6557 86.096C28.2557 85.36 27.7038 84.792 26.9998 84.392C26.2957 83.976 25.4957 83.768 24.5997 83.768C23.7037 83.768 22.9037 83.976 22.1997 84.392C21.4957 84.792 20.9357 85.36 20.5197 86.096C20.1037 86.832 19.8957 87.696 19.8957 88.688C19.8957 89.664 20.1037 90.528 20.5197 91.28C20.9357 92.016 21.4957 92.592 22.1997 93.008C22.9037 93.408 23.6957 93.608 24.5757 93.608ZM50.9506 82.28C51.9746 82.28 52.8626 82.48 53.6146 82.88C54.3826 83.264 54.9746 83.856 55.3906 84.656C55.8226 85.456 56.0386 86.464 56.0386 87.68V95H54.3346V87.848C54.3346 86.52 54.0146 85.52 53.3746 84.848C52.7506 84.16 51.8626 83.816 50.7106 83.816C49.8466 83.816 49.0946 84 48.4546 84.368C47.8306 84.72 47.3426 85.24 46.9906 85.928C46.6546 86.6 46.4866 87.416 46.4866 88.376V95H44.7826V87.848C44.7826 86.52 44.4626 85.52 43.8226 84.848C43.1826 84.16 42.2866 83.816 41.1346 83.816C40.2866 83.816 39.5426 84 38.9026 84.368C38.2626 84.72 37.7666 85.24 37.4146 85.928C37.0786 86.6 36.9106 87.416 36.9106 88.376V95H35.2066V82.4H36.8386V85.808L36.5746 85.208C36.9586 84.296 37.5746 83.584 38.4226 83.072C39.2866 82.544 40.3026 82.28 41.4706 82.28C42.7026 82.28 43.7506 82.592 44.6146 83.216C45.4786 83.824 46.0386 84.744 46.2946 85.976L45.6226 85.712C45.9906 84.688 46.6386 83.864 47.5666 83.24C48.5106 82.6 49.6386 82.28 50.9506 82.28ZM69.2758 95V92.216L69.2038 91.76V87.104C69.2038 86.032 68.8998 85.208 68.2918 84.632C67.6998 84.056 66.8118 83.768 65.6278 83.768C64.8118 83.768 64.0358 83.904 63.2997 84.176C62.5637 84.448 61.9397 84.808 61.4277 85.256L60.6597 83.984C61.2997 83.44 62.0677 83.024 62.9638 82.736C63.8598 82.432 64.8038 82.28 65.7958 82.28C67.4278 82.28 68.6838 82.688 69.5638 83.504C70.4598 84.304 70.9078 85.528 70.9078 87.176V95H69.2758ZM64.9318 95.12C63.9878 95.12 63.1638 94.968 62.4598 94.664C61.7717 94.344 61.2437 93.912 60.8757 93.368C60.5077 92.808 60.3237 92.168 60.3237 91.448C60.3237 90.792 60.4757 90.2 60.7797 89.672C61.0997 89.128 61.6118 88.696 62.3158 88.376C63.0358 88.04 63.9958 87.872 65.1958 87.872H69.5398V89.144H65.2438C64.0278 89.144 63.1798 89.36 62.6998 89.792C62.2357 90.224 62.0037 90.76 62.0037 91.4C62.0037 92.12 62.2837 92.696 62.8438 93.128C63.4038 93.56 64.1878 93.776 65.1958 93.776C66.1558 93.776 66.9798 93.56 67.6678 93.128C68.3718 92.68 68.8838 92.04 69.2038 91.208L69.5878 92.384C69.2678 93.216 68.7078 93.88 67.9078 94.376C67.1238 94.872 66.1318 95.12 64.9318 95.12ZM82.688 82.28C83.712 82.28 84.608 82.48 85.376 82.88C86.16 83.264 86.768 83.856 87.2 84.656C87.648 85.456 87.872 86.464 87.872 87.68V95H86.168V87.848C86.168 86.52 85.832 85.52 85.16 84.848C84.504 84.16 83.576 83.816 82.376 83.816C81.48 83.816 80.696 84 80.024 84.368C79.368 84.72 78.856 85.24 78.488 85.928C78.136 86.6 77.96 87.416 77.96 88.376V95H76.256V82.4H77.888V85.856L77.624 85.208C78.024 84.296 78.664 83.584 79.544 83.072C80.424 82.544 81.472 82.28 82.688 82.28ZM93.1947 95V82.4H94.8987V95H93.1947ZM94.0587 79.616C93.7067 79.616 93.4107 79.496 93.1707 79.256C92.9307 79.016 92.8107 78.728 92.8107 78.392C92.8107 78.056 92.9307 77.776 93.1707 77.552C93.4107 77.312 93.7067 77.192 94.0587 77.192C94.4107 77.192 94.7067 77.304 94.9467 77.528C95.1867 77.752 95.3067 78.032 95.3067 78.368C95.3067 78.72 95.1867 79.016 94.9467 79.256C94.7227 79.496 94.4267 79.616 94.0587 79.616ZM108.256 95V92.216L108.184 91.76V87.104C108.184 86.032 107.88 85.208 107.272 84.632C106.68 84.056 105.792 83.768 104.608 83.768C103.792 83.768 103.016 83.904 102.28 84.176C101.544 84.448 100.92 84.808 100.408 85.256L99.6401 83.984C100.28 83.44 101.048 83.024 101.944 82.736C102.84 82.432 103.784 82.28 104.776 82.28C106.408 82.28 107.664 82.688 108.544 83.504C109.44 84.304 109.888 85.528 109.888 87.176V95H108.256ZM103.912 95.12C102.968 95.12 102.144 94.968 101.44 94.664C100.752 94.344 100.224 93.912 99.8561 93.368C99.4881 92.808 99.3041 92.168 99.3041 91.448C99.3041 90.792 99.4561 90.2 99.7601 89.672C100.08 89.128 100.592 88.696 101.296 88.376C102.016 88.04 102.976 87.872 104.176 87.872H108.52V89.144H104.224C103.008 89.144 102.16 89.36 101.68 89.792C101.216 90.224 100.984 90.76 100.984 91.4C100.984 92.12 101.264 92.696 101.824 93.128C102.384 93.56 103.168 93.776 104.176 93.776C105.136 93.776 105.96 93.56 106.648 93.128C107.352 92.68 107.864 92.04 108.184 91.208L108.568 92.384C108.248 93.216 107.688 93.88 106.888 94.376C106.104 94.872 105.112 95.12 103.912 95.12ZM9.032 131.144C7.768 131.144 6.6 130.936 5.528 130.52C4.456 130.088 3.528 129.488 2.744 128.72C1.96 127.952 1.344 127.048 0.896 126.008C0.464 124.968 0.248 123.832 0.248 122.6C0.248 121.368 0.464 120.232 0.896 119.192C1.344 118.152 1.96 117.248 2.744 116.48C3.544 115.712 4.48 115.12 5.552 114.704C6.624 114.272 7.792 114.056 9.056 114.056C10.272 114.056 11.416 114.264 12.488 114.68C13.56 115.08 14.464 115.688 15.2 116.504L14.072 117.632C13.384 116.928 12.624 116.424 11.792 116.12C10.96 115.8 10.064 115.64 9.104 115.64C8.096 115.64 7.16 115.816 6.296 116.168C5.432 116.504 4.68 116.992 4.04 117.632C3.4 118.256 2.896 118.992 2.528 119.84C2.176 120.672 2 121.592 2 122.6C2 123.608 2.176 124.536 2.528 125.384C2.896 126.216 3.4 126.952 4.04 127.592C4.68 128.216 5.432 128.704 6.296 129.056C7.16 129.392 8.096 129.56 9.104 129.56C10.064 129.56 10.96 129.4 11.792 129.08C12.624 128.76 13.384 128.248 14.072 127.544L15.2 128.672C14.464 129.488 13.56 130.104 12.488 130.52C11.416 130.936 10.264 131.144 9.032 131.144ZM19.346 131V113.192H21.05V131H19.346ZM31.7193 131.12C30.6473 131.12 29.7113 130.92 28.9113 130.52C28.1113 130.12 27.4873 129.52 27.0393 128.72C26.6073 127.92 26.3913 126.92 26.3913 125.72V118.4H28.0953V125.528C28.0953 126.872 28.4233 127.888 29.0793 128.576C29.7513 129.248 30.6873 129.584 31.8873 129.584C32.7673 129.584 33.5273 129.408 34.1673 129.056C34.8233 128.688 35.3193 128.16 35.6553 127.472C36.0073 126.784 36.1833 125.96 36.1833 125V118.4H37.8873V131H36.2553V127.544L36.5193 128.168C36.1193 129.096 35.4953 129.824 34.6473 130.352C33.8153 130.864 32.8393 131.12 31.7193 131.12ZM41.4843 135.776C40.9723 135.776 40.4843 135.704 40.0203 135.56C39.5403 135.432 39.1403 135.232 38.8203 134.96L39.4203 133.664C39.9323 134.096 40.5883 134.312 41.3883 134.312C42.0603 134.312 42.5723 134.112 42.9243 133.712C43.2923 133.312 43.4763 132.72 43.4763 131.936V118.4H45.1803V131.936C45.1803 133.104 44.8603 134.032 44.2203 134.72C43.5963 135.424 42.6843 135.776 41.4843 135.776ZM44.3403 115.616C43.9883 115.616 43.6923 115.496 43.4523 115.256C43.2123 115.016 43.0923 114.728 43.0923 114.392C43.0923 114.056 43.2123 113.776 43.4523 113.552C43.6923 113.312 43.9883 113.192 44.3403 113.192C44.6923 113.192 44.9883 113.304 45.2283 113.528C45.4683 113.752 45.5883 114.032 45.5883 114.368C45.5883 114.72 45.4683 115.016 45.2283 115.256C45.0043 115.496 44.7083 115.616 44.3403 115.616ZM49.7263 125.24V123.752H56.0143V125.24H49.7263ZM60.9063 131V114.2H62.3703L73.9623 128.792H73.1943V114.2H74.9463V131H73.4823L61.9143 116.408H62.6823V131H60.9063ZM88.6858 131V128.216L88.6137 127.76V123.104C88.6137 122.032 88.3098 121.208 87.7018 120.632C87.1098 120.056 86.2218 119.768 85.0378 119.768C84.2218 119.768 83.4457 119.904 82.7097 120.176C81.9737 120.448 81.3497 120.808 80.8377 121.256L80.0697 119.984C80.7097 119.44 81.4777 119.024 82.3737 118.736C83.2697 118.432 84.2138 118.28 85.2058 118.28C86.8378 118.28 88.0938 118.688 88.9738 119.504C89.8698 120.304 90.3178 121.528 90.3178 123.176V131H88.6858ZM84.3417 131.12C83.3977 131.12 82.5737 130.968 81.8697 130.664C81.1817 130.344 80.6537 129.912 80.2857 129.368C79.9177 128.808 79.7337 128.168 79.7337 127.448C79.7337 126.792 79.8857 126.2 80.1897 125.672C80.5097 125.128 81.0217 124.696 81.7257 124.376C82.4457 124.04 83.4058 123.872 84.6058 123.872H88.9497V125.144H84.6538C83.4378 125.144 82.5898 125.36 82.1098 125.792C81.6457 126.224 81.4137 126.76 81.4137 127.4C81.4137 128.12 81.6937 128.696 82.2537 129.128C82.8137 129.56 83.5977 129.776 84.6058 129.776C85.5658 129.776 86.3898 129.56 87.0778 129.128C87.7818 128.68 88.2938 128.04 88.6137 127.208L88.9978 128.384C88.6778 129.216 88.1178 129.88 87.3178 130.376C86.5338 130.872 85.5418 131.12 84.3417 131.12ZM102.17 131.12C101.082 131.12 100.098 130.872 99.218 130.376C98.338 129.864 97.634 129.136 97.106 128.192C96.594 127.232 96.338 126.064 96.338 124.688C96.338 123.312 96.594 122.152 97.106 121.208C97.618 120.248 98.314 119.52 99.194 119.024C100.074 118.528 101.066 118.28 102.17 118.28C103.37 118.28 104.442 118.552 105.386 119.096C106.346 119.624 107.098 120.376 107.642 121.352C108.186 122.312 108.458 123.424 108.458 124.688C108.458 125.968 108.186 127.088 107.642 128.048C107.098 129.008 106.346 129.76 105.386 130.304C104.442 130.848 103.37 131.12 102.17 131.12ZM95.666 135.656V118.4H97.298V122.192L97.13 124.712L97.37 127.256V135.656H95.666ZM102.05 129.608C102.946 129.608 103.746 129.408 104.45 129.008C105.154 128.592 105.714 128.016 106.13 127.28C106.546 126.528 106.754 125.664 106.754 124.688C106.754 123.712 106.546 122.856 106.13 122.12C105.714 121.384 105.154 120.808 104.45 120.392C103.746 119.976 102.946 119.768 102.05 119.768C101.154 119.768 100.346 119.976 99.626 120.392C98.922 120.808 98.362 121.384 97.946 122.12C97.546 122.856 97.346 123.712 97.346 124.688C97.346 125.664 97.546 126.528 97.946 127.28C98.362 128.016 98.922 128.592 99.626 129.008C100.346 129.408 101.154 129.608 102.05 129.608ZM117.788 131.12C116.572 131.12 115.476 130.848 114.5 130.304C113.54 129.744 112.78 128.984 112.22 128.024C111.66 127.048 111.38 125.936 111.38 124.688C111.38 123.424 111.66 122.312 112.22 121.352C112.78 120.392 113.54 119.64 114.5 119.096C115.46 118.552 116.556 118.28 117.788 118.28C119.036 118.28 120.14 118.552 121.1 119.096C122.076 119.64 122.836 120.392 123.38 121.352C123.94 122.312 124.22 123.424 124.22 124.688C124.22 125.936 123.94 127.048 123.38 128.024C122.836 128.984 122.076 129.744 121.1 130.304C120.124 130.848 119.02 131.12 117.788 131.12ZM117.788 129.608C118.7 129.608 119.508 129.408 120.212 129.008C120.916 128.592 121.468 128.016 121.868 127.28C122.284 126.528 122.492 125.664 122.492 124.688C122.492 123.696 122.284 122.832 121.868 122.096C121.468 121.36 120.916 120.792 120.212 120.392C119.508 119.976 118.708 119.768 117.812 119.768C116.916 119.768 116.116 119.976 115.412 120.392C114.708 120.792 114.148 121.36 113.732 122.096C113.316 122.832 113.108 123.696 113.108 124.688C113.108 125.664 113.316 126.528 113.732 127.28C114.148 128.016 114.708 128.592 115.412 129.008C116.116 129.408 116.908 129.608 117.788 129.608ZM133.651 131.12C132.403 131.12 131.283 130.848 130.291 130.304C129.315 129.744 128.547 128.984 127.987 128.024C127.427 127.048 127.147 125.936 127.147 124.688C127.147 123.424 127.427 122.312 127.987 121.352C128.547 120.392 129.315 119.64 130.291 119.096C131.283 118.552 132.403 118.28 133.651 118.28C134.723 118.28 135.691 118.488 136.555 118.904C137.419 119.32 138.099 119.944 138.595 120.776L137.323 121.64C136.891 121 136.355 120.528 135.715 120.224C135.075 119.92 134.379 119.768 133.627 119.768C132.731 119.768 131.923 119.976 131.203 120.392C130.483 120.792 129.915 121.36 129.499 122.096C129.083 122.832 128.875 123.696 128.875 124.688C128.875 125.68 129.083 126.544 129.499 127.28C129.915 128.016 130.483 128.592 131.203 129.008C131.923 129.408 132.731 129.608 133.627 129.608C134.379 129.608 135.075 129.456 135.715 129.152C136.355 128.848 136.891 128.384 137.323 127.76L138.595 128.624C138.099 129.44 137.419 130.064 136.555 130.496C135.691 130.912 134.723 131.12 133.651 131.12ZM150.558 131V128.216L150.486 127.76V123.104C150.486 122.032 150.182 121.208 149.574 120.632C148.982 120.056 148.094 119.768 146.91 119.768C146.094 119.768 145.318 119.904 144.582 120.176C143.846 120.448 143.222 120.808 142.71 121.256L141.942 119.984C142.582 119.44 143.35 119.024 144.246 118.736C145.142 118.432 146.086 118.28 147.078 118.28C148.71 118.28 149.966 118.688 150.846 119.504C151.742 120.304 152.19 121.528 152.19 123.176V131H150.558ZM146.214 131.12C145.27 131.12 144.446 130.968 143.742 130.664C143.054 130.344 142.526 129.912 142.158 129.368C141.79 128.808 141.606 128.168 141.606 127.448C141.606 126.792 141.758 126.2 142.062 125.672C142.382 125.128 142.894 124.696 143.598 124.376C144.318 124.04 145.278 123.872 146.478 123.872H150.822V125.144H146.526C145.31 125.144 144.462 125.36 143.982 125.792C143.518 126.224 143.286 126.76 143.286 127.4C143.286 128.12 143.566 128.696 144.126 129.128C144.686 129.56 145.47 129.776 146.478 129.776C147.438 129.776 148.262 129.56 148.95 129.128C149.654 128.68 150.166 128.04 150.486 127.208L150.87 128.384C150.55 129.216 149.99 129.88 149.19 130.376C148.406 130.872 147.414 131.12 146.214 131.12ZM156.506 134.504L157.562 130.064L157.754 131.096C157.386 131.096 157.074 130.976 156.818 130.736C156.578 130.496 156.458 130.184 156.458 129.8C156.458 129.416 156.578 129.104 156.818 128.864C157.074 128.624 157.378 128.504 157.73 128.504C158.098 128.504 158.394 128.632 158.618 128.888C158.858 129.144 158.978 129.448 158.978 129.8C158.978 129.928 158.97 130.056 158.954 130.184C158.938 130.312 158.906 130.456 158.858 130.616C158.81 130.776 158.746 130.968 158.666 131.192L157.658 134.504H156.506ZM175.337 131.144C174.089 131.144 172.889 130.944 171.737 130.544C170.601 130.128 169.721 129.6 169.097 128.96L169.793 127.592C170.385 128.168 171.177 128.656 172.169 129.056C173.177 129.44 174.233 129.632 175.337 129.632C176.393 129.632 177.249 129.504 177.905 129.248C178.577 128.976 179.065 128.616 179.369 128.168C179.689 127.72 179.849 127.224 179.849 126.68C179.849 126.024 179.657 125.496 179.273 125.096C178.905 124.696 178.417 124.384 177.809 124.16C177.201 123.92 176.529 123.712 175.793 123.536C175.057 123.36 174.321 123.176 173.585 122.984C172.849 122.776 172.169 122.504 171.545 122.168C170.937 121.832 170.441 121.392 170.057 120.848C169.689 120.288 169.505 119.56 169.505 118.664C169.505 117.832 169.721 117.072 170.153 116.384C170.601 115.68 171.281 115.12 172.193 114.704C173.105 114.272 174.273 114.056 175.697 114.056C176.641 114.056 177.577 114.192 178.505 114.464C179.433 114.72 180.233 115.08 180.905 115.544L180.305 116.96C179.585 116.48 178.817 116.128 178.001 115.904C177.201 115.68 176.425 115.568 175.673 115.568C174.665 115.568 173.833 115.704 173.177 115.976C172.521 116.248 172.033 116.616 171.713 117.08C171.409 117.528 171.257 118.04 171.257 118.616C171.257 119.272 171.441 119.8 171.809 120.2C172.193 120.6 172.689 120.912 173.297 121.136C173.921 121.36 174.601 121.56 175.337 121.736C176.073 121.912 176.801 122.104 177.521 122.312C178.257 122.52 178.929 122.792 179.537 123.128C180.161 123.448 180.657 123.88 181.025 124.424C181.409 124.968 181.601 125.68 181.601 126.56C181.601 127.376 181.377 128.136 180.929 128.84C180.481 129.528 179.793 130.088 178.865 130.52C177.953 130.936 176.777 131.144 175.337 131.144ZM189.815 131.12C188.631 131.12 187.719 130.8 187.079 130.16C186.439 129.52 186.119 128.616 186.119 127.448V115.616H187.823V127.352C187.823 128.088 188.007 128.656 188.375 129.056C188.759 129.456 189.303 129.656 190.007 129.656C190.759 129.656 191.383 129.44 191.879 129.008L192.479 130.232C192.143 130.536 191.735 130.76 191.255 130.904C190.791 131.048 190.311 131.12 189.815 131.12ZM183.863 119.816V118.4H191.663V119.816H183.863ZM196.301 131V118.4H197.933V121.832L197.765 121.232C198.117 120.272 198.709 119.544 199.541 119.048C200.373 118.536 201.405 118.28 202.637 118.28V119.936C202.573 119.936 202.509 119.936 202.445 119.936C202.381 119.92 202.317 119.912 202.253 119.912C200.925 119.912 199.885 120.32 199.133 121.136C198.381 121.936 198.005 123.08 198.005 124.568V131H196.301ZM206.587 131.12C206.235 131.12 205.931 130.992 205.675 130.736C205.435 130.48 205.315 130.168 205.315 129.8C205.315 129.416 205.435 129.104 205.675 128.864C205.931 128.624 206.235 128.504 206.587 128.504C206.939 128.504 207.235 128.624 207.475 128.864C207.731 129.104 207.859 129.416 207.859 129.8C207.859 130.168 207.731 130.48 207.475 130.736C207.235 130.992 206.939 131.12 206.587 131.12ZM226.883 131.144C225.619 131.144 224.451 130.936 223.379 130.52C222.307 130.088 221.379 129.488 220.595 128.72C219.811 127.952 219.195 127.048 218.747 126.008C218.315 124.968 218.099 123.832 218.099 122.6C218.099 121.368 218.315 120.232 218.747 119.192C219.195 118.152 219.811 117.248 220.595 116.48C221.395 115.712 222.331 115.12 223.403 114.704C224.475 114.272 225.643 114.056 226.907 114.056C228.123 114.056 229.267 114.264 230.339 114.68C231.411 115.08 232.315 115.688 233.051 116.504L231.923 117.632C231.235 116.928 230.475 116.424 229.643 116.12C228.811 115.8 227.915 115.64 226.955 115.64C225.947 115.64 225.011 115.816 224.147 116.168C223.283 116.504 222.531 116.992 221.891 117.632C221.251 118.256 220.747 118.992 220.379 119.84C220.027 120.672 219.851 121.592 219.851 122.6C219.851 123.608 220.027 124.536 220.379 125.384C220.747 126.216 221.251 126.952 221.891 127.592C222.531 128.216 223.283 128.704 224.147 129.056C225.011 129.392 225.947 129.56 226.955 129.56C227.915 129.56 228.811 129.4 229.643 129.08C230.475 128.76 231.235 128.248 231.923 127.544L233.051 128.672C232.315 129.488 231.411 130.104 230.339 130.52C229.267 130.936 228.115 131.144 226.883 131.144ZM241.986 131.12C240.674 131.12 239.522 130.848 238.53 130.304C237.538 129.744 236.762 128.984 236.202 128.024C235.642 127.048 235.362 125.936 235.362 124.688C235.362 123.44 235.626 122.336 236.154 121.376C236.698 120.416 237.434 119.664 238.362 119.12C239.306 118.56 240.362 118.28 241.53 118.28C242.714 118.28 243.762 118.552 244.674 119.096C245.602 119.624 246.33 120.376 246.858 121.352C247.386 122.312 247.65 123.424 247.65 124.688C247.65 124.768 247.642 124.856 247.626 124.952C247.626 125.032 247.626 125.12 247.626 125.216H236.658V123.944H246.714L246.042 124.448C246.042 123.536 245.842 122.728 245.442 122.024C245.058 121.304 244.53 120.744 243.858 120.344C243.186 119.944 242.41 119.744 241.53 119.744C240.666 119.744 239.89 119.944 239.202 120.344C238.514 120.744 237.978 121.304 237.594 122.024C237.21 122.744 237.018 123.568 237.018 124.496V124.76C237.018 125.72 237.226 126.568 237.642 127.304C238.074 128.024 238.666 128.592 239.418 129.008C240.186 129.408 241.058 129.608 242.034 129.608C242.802 129.608 243.514 129.472 244.17 129.2C244.842 128.928 245.418 128.512 245.898 127.952L246.858 129.056C246.298 129.728 245.594 130.24 244.746 130.592C243.914 130.944 242.994 131.12 241.986 131.12ZM259.383 131V128.216L259.311 127.76V123.104C259.311 122.032 259.007 121.208 258.399 120.632C257.807 120.056 256.919 119.768 255.735 119.768C254.919 119.768 254.143 119.904 253.407 120.176C252.671 120.448 252.047 120.808 251.535 121.256L250.767 119.984C251.407 119.44 252.175 119.024 253.071 118.736C253.967 118.432 254.911 118.28 255.903 118.28C257.535 118.28 258.791 118.688 259.671 119.504C260.567 120.304 261.015 121.528 261.015 123.176V131H259.383ZM255.039 131.12C254.095 131.12 253.271 130.968 252.567 130.664C251.879 130.344 251.351 129.912 250.983 129.368C250.615 128.808 250.431 128.168 250.431 127.448C250.431 126.792 250.583 126.2 250.887 125.672C251.207 125.128 251.719 124.696 252.423 124.376C253.143 124.04 254.103 123.872 255.303 123.872H259.647V125.144H255.351C254.135 125.144 253.287 125.36 252.807 125.792C252.343 126.224 252.111 126.76 252.111 127.4C252.111 128.12 252.391 128.696 252.951 129.128C253.511 129.56 254.295 129.776 255.303 129.776C256.263 129.776 257.087 129.56 257.775 129.128C258.479 128.68 258.991 128.04 259.311 127.208L259.695 128.384C259.375 129.216 258.815 129.88 258.015 130.376C257.231 130.872 256.239 131.12 255.039 131.12ZM272.795 118.28C273.819 118.28 274.715 118.48 275.483 118.88C276.267 119.264 276.875 119.856 277.307 120.656C277.755 121.456 277.979 122.464 277.979 123.68V131H276.275V123.848C276.275 122.52 275.939 121.52 275.267 120.848C274.611 120.16 273.683 119.816 272.483 119.816C271.587 119.816 270.803 120 270.131 120.368C269.475 120.72 268.963 121.24 268.595 121.928C268.243 122.6 268.067 123.416 268.067 124.376V131H266.363V113.192H268.067V121.856L267.731 121.208C268.131 120.296 268.771 119.584 269.651 119.072C270.531 118.544 271.579 118.28 272.795 118.28ZM283.302 131V113.192H285.006V131H283.302ZM298.363 131V128.216L298.291 127.76V123.104C298.291 122.032 297.987 121.208 297.379 120.632C296.787 120.056 295.899 119.768 294.715 119.768C293.899 119.768 293.123 119.904 292.387 120.176C291.651 120.448 291.027 120.808 290.515 121.256L289.747 119.984C290.387 119.44 291.155 119.024 292.051 118.736C292.947 118.432 293.891 118.28 294.883 118.28C296.515 118.28 297.771 118.688 298.651 119.504C299.547 120.304 299.995 121.528 299.995 123.176V131H298.363ZM294.019 131.12C293.075 131.12 292.251 130.968 291.547 130.664C290.859 130.344 290.331 129.912 289.963 129.368C289.595 128.808 289.411 128.168 289.411 127.448C289.411 126.792 289.563 126.2 289.867 125.672C290.187 125.128 290.699 124.696 291.403 124.376C292.123 124.04 293.083 123.872 294.283 123.872H298.627V125.144H294.331C293.115 125.144 292.267 125.36 291.787 125.792C291.323 126.224 291.091 126.76 291.091 127.4C291.091 128.12 291.371 128.696 291.931 129.128C292.491 129.56 293.275 129.776 294.283 129.776C295.243 129.776 296.067 129.56 296.755 129.128C297.459 128.68 297.971 128.04 298.291 127.208L298.675 128.384C298.355 129.216 297.795 129.88 296.995 130.376C296.211 130.872 295.219 131.12 294.019 131.12ZM310.551 131.12C309.479 131.12 308.543 130.92 307.743 130.52C306.943 130.12 306.319 129.52 305.871 128.72C305.439 127.92 305.223 126.92 305.223 125.72V118.4H306.927V125.528C306.927 126.872 307.255 127.888 307.911 128.576C308.583 129.248 309.519 129.584 310.719 129.584C311.599 129.584 312.359 129.408 312.999 129.056C313.655 128.688 314.151 128.16 314.487 127.472C314.839 126.784 315.015 125.96 315.015 125V118.4H316.719V131H315.087V127.544L315.351 128.168C314.951 129.096 314.327 129.824 313.479 130.352C312.647 130.864 311.671 131.12 310.551 131.12ZM321.157 134.504L322.213 130.064L322.405 131.096C322.037 131.096 321.725 130.976 321.469 130.736C321.229 130.496 321.109 130.184 321.109 129.8C321.109 129.416 321.229 129.104 321.469 128.864C321.725 128.624 322.029 128.504 322.381 128.504C322.749 128.504 323.045 128.632 323.269 128.888C323.509 129.144 323.629 129.448 323.629 129.8C323.629 129.928 323.621 130.056 323.605 130.184C323.589 130.312 323.557 130.456 323.509 130.616C323.461 130.776 323.397 130.968 323.317 131.192L322.309 134.504H321.157ZM335.356 131V114.2H336.82L348.412 128.792H347.644V114.2H349.396V131H347.932L336.364 116.408H337.132V131H335.356ZM355.239 131V118.4H356.871V121.832L356.703 121.232C357.055 120.272 357.647 119.544 358.479 119.048C359.311 118.536 360.343 118.28 361.575 118.28V119.936C361.511 119.936 361.447 119.936 361.383 119.936C361.319 119.92 361.255 119.912 361.191 119.912C359.863 119.912 358.823 120.32 358.071 121.136C357.319 121.936 356.943 123.08 356.943 124.568V131H355.239ZM365.526 131.12C365.174 131.12 364.87 130.992 364.614 130.736C364.374 130.48 364.254 130.168 364.254 129.8C364.254 129.416 364.374 129.104 364.614 128.864C364.87 128.624 365.174 128.504 365.526 128.504C365.878 128.504 366.174 128.624 366.414 128.864C366.67 129.104 366.798 129.416 366.798 129.8C366.798 130.168 366.67 130.48 366.414 130.736C366.174 130.992 365.878 131.12 365.526 131.12ZM379.989 131L387.237 114.968L387.765 115.736H377.373L378.261 114.896V118.88H376.557V114.2H388.893V115.424L381.861 131H379.989ZM394.842 131L402.09 114.968L402.618 115.736H392.226L393.114 114.896V118.88H391.41V114.2H403.746V115.424L396.714 131H394.842Z" fill="#807F7F"/>
</svg>
