<svg width="483" height="23" viewBox="0 0 483 23" fill="none" xmlns="http://www.w3.org/2000/svg">
<path d="M2.37624 9.336H11.2562V10.872H2.37624V9.336ZM2.56824 18H0.792244V1.2H12.3122V2.736H2.56824V18ZM16.3397 18V5.4H18.0437V18H16.3397ZM17.2037 2.616C16.8517 2.616 16.5557 2.496 16.3157 2.256C16.0757 2.016 15.9557 1.728 15.9557 1.392C15.9557 1.056 16.0757 0.775999 16.3157 0.551999C16.5557 0.311999 16.8517 0.191999 17.2037 0.191999C17.5557 0.191999 17.8517 0.303999 18.0917 0.527999C18.3317 0.751999 18.4517 1.032 18.4517 1.368C18.4517 1.72 18.3317 2.016 18.0917 2.256C17.8677 2.496 17.5717 2.616 17.2037 2.616ZM29.9371 5.28C30.9611 5.28 31.8571 5.48 32.6251 5.88C33.4091 6.264 34.0171 6.856 34.4491 7.656C34.8971 8.456 35.1211 9.464 35.1211 10.68V18H33.4171V10.848C33.4171 9.52 33.0811 8.52 32.4091 7.848C31.7531 7.16 30.8251 6.816 29.6251 6.816C28.7291 6.816 27.9451 7 27.2731 7.368C26.6171 7.72 26.1051 8.24 25.7371 8.928C25.3851 9.6 25.2091 10.416 25.2091 11.376V18H23.5051V5.4H25.1371V8.856L24.8731 8.208C25.2731 7.296 25.9131 6.584 26.7931 6.072C27.6731 5.544 28.7211 5.28 29.9371 5.28ZM45.4598 18.12C44.2598 18.12 43.1798 17.848 42.2198 17.304C41.2758 16.76 40.5318 16.008 39.9878 15.048C39.4438 14.072 39.1718 12.952 39.1718 11.688C39.1718 10.408 39.4438 9.288 39.9878 8.328C40.5318 7.368 41.2758 6.624 42.2198 6.096C43.1798 5.552 44.2598 5.28 45.4598 5.28C46.5638 5.28 47.5478 5.528 48.4118 6.024C49.2918 6.52 49.9878 7.248 50.4998 8.208C51.0278 9.152 51.2918 10.312 51.2918 11.688C51.2918 13.048 51.0358 14.208 50.5238 15.168C50.0118 16.128 49.3158 16.864 48.4358 17.376C47.5718 17.872 46.5798 18.12 45.4598 18.12ZM45.5798 16.608C46.4758 16.608 47.2758 16.408 47.9798 16.008C48.6998 15.592 49.2598 15.016 49.6598 14.28C50.0758 13.528 50.2838 12.664 50.2838 11.688C50.2838 10.696 50.0758 9.832 49.6598 9.096C49.2598 8.36 48.6998 7.792 47.9798 7.392C47.2758 6.976 46.4758 6.768 45.5798 6.768C44.6998 6.768 43.9078 6.976 43.2038 7.392C42.4998 7.792 41.9398 8.36 41.5238 9.096C41.1078 9.832 40.8998 10.696 40.8998 11.688C40.8998 12.664 41.1078 13.528 41.5238 14.28C41.9398 15.016 42.4998 15.592 43.2038 16.008C43.9078 16.408 44.6998 16.608 45.5798 16.608ZM50.3318 18V14.208L50.4998 11.664L50.2598 9.12V0.191999H51.9638V18H50.3318ZM64.5267 22.776C63.9347 22.776 63.3667 22.68 62.8227 22.488C62.2947 22.296 61.8387 22.008 61.4547 21.624L62.2467 20.352C62.5667 20.656 62.9107 20.888 63.2787 21.048C63.6627 21.224 64.0867 21.312 64.5507 21.312C65.1107 21.312 65.5907 21.152 65.9907 20.832C66.4067 20.528 66.7987 19.984 67.1667 19.2L67.9827 17.352L68.1747 17.088L73.3587 5.4H75.0387L68.7267 19.512C68.3747 20.328 67.9827 20.976 67.5507 21.456C67.1347 21.936 66.6787 22.272 66.1827 22.464C65.6867 22.672 65.1347 22.776 64.5267 22.776ZM67.8867 18.36L62.0787 5.4H63.8547L68.9907 16.968L67.8867 18.36ZM82.9429 18.12C81.7269 18.12 80.6309 17.848 79.6549 17.304C78.6949 16.744 77.9349 15.984 77.3749 15.024C76.8149 14.048 76.5349 12.936 76.5349 11.688C76.5349 10.424 76.8149 9.312 77.3749 8.352C77.9349 7.392 78.6949 6.64 79.6549 6.096C80.6149 5.552 81.7109 5.28 82.9429 5.28C84.1909 5.28 85.2949 5.552 86.2549 6.096C87.2309 6.64 87.9909 7.392 88.5349 8.352C89.0949 9.312 89.3749 10.424 89.3749 11.688C89.3749 12.936 89.0949 14.048 88.5349 15.024C87.9909 15.984 87.2309 16.744 86.2549 17.304C85.2789 17.848 84.1749 18.12 82.9429 18.12ZM82.9429 16.608C83.8549 16.608 84.6629 16.408 85.3669 16.008C86.0709 15.592 86.6229 15.016 87.0229 14.28C87.4389 13.528 87.6469 12.664 87.6469 11.688C87.6469 10.696 87.4389 9.832 87.0229 9.096C86.6229 8.36 86.0709 7.792 85.3669 7.392C84.6629 6.976 83.8629 6.768 82.9669 6.768C82.0709 6.768 81.2709 6.976 80.5669 7.392C79.8629 7.792 79.3029 8.36 78.8869 9.096C78.4709 9.832 78.2629 10.696 78.2629 11.688C78.2629 12.664 78.4709 13.528 78.8869 14.28C79.3029 15.016 79.8629 15.592 80.5669 16.008C81.2709 16.408 82.0629 16.608 82.9429 16.608ZM98.7818 18.12C97.7098 18.12 96.7738 17.92 95.9738 17.52C95.1738 17.12 94.5498 16.52 94.1018 15.72C93.6698 14.92 93.4538 13.92 93.4538 12.72V5.4H95.1578V12.528C95.1578 13.872 95.4858 14.888 96.1418 15.576C96.8138 16.248 97.7498 16.584 98.9498 16.584C99.8298 16.584 100.59 16.408 101.23 16.056C101.886 15.688 102.382 15.16 102.718 14.472C103.07 13.784 103.246 12.96 103.246 12V5.4H104.95V18H103.318V14.544L103.582 15.168C103.182 16.096 102.558 16.824 101.71 17.352C100.878 17.864 99.9018 18.12 98.7818 18.12ZM110.419 18V5.4H112.051V8.832L111.883 8.232C112.235 7.272 112.827 6.544 113.659 6.048C114.491 5.536 115.523 5.28 116.755 5.28V6.936C116.691 6.936 116.627 6.936 116.563 6.936C116.499 6.92 116.435 6.912 116.371 6.912C115.043 6.912 114.003 7.32 113.251 8.136C112.499 8.936 112.123 10.08 112.123 11.568V18H110.419ZM132.789 18.12C131.589 18.12 130.509 17.848 129.549 17.304C128.605 16.76 127.861 16.008 127.317 15.048C126.773 14.072 126.501 12.952 126.501 11.688C126.501 10.408 126.773 9.288 127.317 8.328C127.861 7.368 128.605 6.624 129.549 6.096C130.509 5.552 131.589 5.28 132.789 5.28C133.893 5.28 134.877 5.528 135.741 6.024C136.621 6.52 137.317 7.248 137.829 8.208C138.357 9.152 138.621 10.312 138.621 11.688C138.621 13.048 138.365 14.208 137.853 15.168C137.341 16.128 136.645 16.864 135.765 17.376C134.901 17.872 133.909 18.12 132.789 18.12ZM132.909 16.608C133.805 16.608 134.605 16.408 135.309 16.008C136.029 15.592 136.589 15.016 136.989 14.28C137.405 13.528 137.613 12.664 137.613 11.688C137.613 10.696 137.405 9.832 136.989 9.096C136.589 8.36 136.029 7.792 135.309 7.392C134.605 6.976 133.805 6.768 132.909 6.768C132.029 6.768 131.237 6.976 130.533 7.392C129.829 7.792 129.269 8.36 128.853 9.096C128.437 9.832 128.229 10.696 128.229 11.688C128.229 12.664 128.437 13.528 128.853 14.28C129.269 15.016 129.829 15.592 130.533 16.008C131.237 16.408 132.029 16.608 132.909 16.608ZM137.661 18V14.208L137.829 11.664L137.589 9.12V0.191999H139.293V18H137.661ZM144.759 18V5.4H146.391V8.832L146.223 8.232C146.575 7.272 147.167 6.544 147.999 6.048C148.831 5.536 149.863 5.28 151.095 5.28V6.936C151.031 6.936 150.967 6.936 150.903 6.936C150.839 6.92 150.775 6.912 150.711 6.912C149.383 6.912 148.343 7.32 147.591 8.136C146.839 8.936 146.463 10.08 146.463 11.568V18H144.759ZM160.159 18.12C158.847 18.12 157.695 17.848 156.703 17.304C155.711 16.744 154.935 15.984 154.375 15.024C153.815 14.048 153.535 12.936 153.535 11.688C153.535 10.44 153.799 9.336 154.327 8.376C154.871 7.416 155.607 6.664 156.535 6.12C157.479 5.56 158.535 5.28 159.703 5.28C160.887 5.28 161.935 5.552 162.847 6.096C163.775 6.624 164.503 7.376 165.031 8.352C165.559 9.312 165.823 10.424 165.823 11.688C165.823 11.768 165.815 11.856 165.799 11.952C165.799 12.032 165.799 12.12 165.799 12.216H154.831V10.944H164.887L164.215 11.448C164.215 10.536 164.015 9.728 163.615 9.024C163.231 8.304 162.703 7.744 162.031 7.344C161.359 6.944 160.583 6.744 159.703 6.744C158.839 6.744 158.063 6.944 157.375 7.344C156.687 7.744 156.151 8.304 155.767 9.024C155.383 9.744 155.191 10.568 155.191 11.496V11.76C155.191 12.72 155.399 13.568 155.815 14.304C156.247 15.024 156.839 15.592 157.591 16.008C158.359 16.408 159.231 16.608 160.207 16.608C160.975 16.608 161.687 16.472 162.343 16.2C163.015 15.928 163.591 15.512 164.071 14.952L165.031 16.056C164.471 16.728 163.767 17.24 162.919 17.592C162.087 17.944 161.167 18.12 160.159 18.12ZM177.555 18V15.216L177.483 14.76V10.104C177.483 9.032 177.179 8.208 176.571 7.632C175.979 7.056 175.091 6.768 173.907 6.768C173.091 6.768 172.315 6.904 171.579 7.176C170.843 7.448 170.219 7.808 169.707 8.256L168.939 6.984C169.579 6.44 170.347 6.024 171.243 5.736C172.139 5.432 173.083 5.28 174.075 5.28C175.707 5.28 176.963 5.688 177.843 6.504C178.739 7.304 179.187 8.528 179.187 10.176V18H177.555ZM173.211 18.12C172.267 18.12 171.443 17.968 170.739 17.664C170.051 17.344 169.523 16.912 169.155 16.368C168.787 15.808 168.603 15.168 168.603 14.448C168.603 13.792 168.755 13.2 169.059 12.672C169.379 12.128 169.891 11.696 170.595 11.376C171.315 11.04 172.275 10.872 173.475 10.872H177.819V12.144H173.523C172.307 12.144 171.459 12.36 170.979 12.792C170.515 13.224 170.283 13.76 170.283 14.4C170.283 15.12 170.563 15.696 171.123 16.128C171.683 16.56 172.467 16.776 173.475 16.776C174.435 16.776 175.259 16.56 175.947 16.128C176.651 15.68 177.163 15.04 177.483 14.208L177.867 15.384C177.547 16.216 176.987 16.88 176.187 17.376C175.403 17.872 174.411 18.12 173.211 18.12ZM200.28 5.28C201.304 5.28 202.192 5.48 202.944 5.88C203.712 6.264 204.304 6.856 204.72 7.656C205.152 8.456 205.368 9.464 205.368 10.68V18H203.664V10.848C203.664 9.52 203.344 8.52 202.704 7.848C202.08 7.16 201.192 6.816 200.04 6.816C199.176 6.816 198.424 7 197.784 7.368C197.16 7.72 196.672 8.24 196.32 8.928C195.984 9.6 195.816 10.416 195.816 11.376V18H194.112V10.848C194.112 9.52 193.792 8.52 193.152 7.848C192.512 7.16 191.616 6.816 190.464 6.816C189.616 6.816 188.872 7 188.232 7.368C187.592 7.72 187.096 8.24 186.744 8.928C186.408 9.6 186.24 10.416 186.24 11.376V18H184.536V5.4H186.168V8.808L185.904 8.208C186.288 7.296 186.904 6.584 187.752 6.072C188.616 5.544 189.632 5.28 190.8 5.28C192.032 5.28 193.08 5.592 193.944 6.216C194.808 6.824 195.368 7.744 195.624 8.976L194.952 8.712C195.32 7.688 195.968 6.864 196.896 6.24C197.84 5.6 198.968 5.28 200.28 5.28ZM224.142 5.28C225.166 5.28 226.062 5.48 226.83 5.88C227.614 6.264 228.222 6.856 228.654 7.656C229.102 8.456 229.326 9.464 229.326 10.68V18H227.622V10.848C227.622 9.52 227.286 8.52 226.614 7.848C225.958 7.16 225.03 6.816 223.83 6.816C222.934 6.816 222.15 7 221.478 7.368C220.822 7.72 220.31 8.24 219.942 8.928C219.59 9.6 219.414 10.416 219.414 11.376V18H217.71V0.191999H219.414V8.856L219.078 8.208C219.478 7.296 220.118 6.584 220.998 6.072C221.878 5.544 222.926 5.28 224.142 5.28ZM239.785 18.12C238.569 18.12 237.473 17.848 236.497 17.304C235.537 16.744 234.777 15.984 234.217 15.024C233.657 14.048 233.377 12.936 233.377 11.688C233.377 10.424 233.657 9.312 234.217 8.352C234.777 7.392 235.537 6.64 236.497 6.096C237.457 5.552 238.553 5.28 239.785 5.28C241.033 5.28 242.137 5.552 243.097 6.096C244.073 6.64 244.833 7.392 245.377 8.352C245.937 9.312 246.217 10.424 246.217 11.688C246.217 12.936 245.937 14.048 245.377 15.024C244.833 15.984 244.073 16.744 243.097 17.304C242.121 17.848 241.017 18.12 239.785 18.12ZM239.785 16.608C240.697 16.608 241.505 16.408 242.209 16.008C242.913 15.592 243.465 15.016 243.865 14.28C244.281 13.528 244.489 12.664 244.489 11.688C244.489 10.696 244.281 9.832 243.865 9.096C243.465 8.36 242.913 7.792 242.209 7.392C241.505 6.976 240.705 6.768 239.809 6.768C238.913 6.768 238.113 6.976 237.409 7.392C236.705 7.792 236.145 8.36 235.729 9.096C235.313 9.832 235.105 10.696 235.105 11.688C235.105 12.664 235.313 13.528 235.729 14.28C236.145 15.016 236.705 15.592 237.409 16.008C238.113 16.408 238.905 16.608 239.785 16.608ZM255.624 18.12C254.552 18.12 253.616 17.92 252.816 17.52C252.016 17.12 251.392 16.52 250.944 15.72C250.512 14.92 250.296 13.92 250.296 12.72V5.4H252V12.528C252 13.872 252.328 14.888 252.984 15.576C253.656 16.248 254.592 16.584 255.792 16.584C256.672 16.584 257.432 16.408 258.072 16.056C258.728 15.688 259.224 15.16 259.56 14.472C259.912 13.784 260.088 12.96 260.088 12V5.4H261.792V18H260.16V14.544L260.424 15.168C260.024 16.096 259.4 16.824 258.552 17.352C257.72 17.864 256.744 18.12 255.624 18.12ZM270.645 18.12C269.605 18.12 268.621 17.976 267.693 17.688C266.765 17.384 266.037 17.008 265.509 16.56L266.277 15.216C266.789 15.6 267.445 15.936 268.245 16.224C269.045 16.496 269.885 16.632 270.765 16.632C271.965 16.632 272.829 16.448 273.357 16.08C273.885 15.696 274.149 15.192 274.149 14.568C274.149 14.104 273.997 13.744 273.693 13.488C273.405 13.216 273.021 13.016 272.541 12.888C272.061 12.744 271.525 12.624 270.933 12.528C270.341 12.432 269.749 12.32 269.157 12.192C268.581 12.064 268.053 11.88 267.573 11.64C267.093 11.384 266.701 11.04 266.397 10.608C266.109 10.176 265.965 9.6 265.965 8.88C265.965 8.192 266.157 7.576 266.541 7.032C266.925 6.488 267.485 6.064 268.221 5.76C268.973 5.44 269.885 5.28 270.957 5.28C271.773 5.28 272.589 5.392 273.405 5.616C274.221 5.824 274.893 6.104 275.421 6.456L274.677 7.824C274.117 7.44 273.517 7.168 272.877 7.008C272.237 6.832 271.597 6.744 270.957 6.744C269.821 6.744 268.981 6.944 268.437 7.344C267.909 7.728 267.645 8.224 267.645 8.832C267.645 9.312 267.789 9.688 268.077 9.96C268.381 10.232 268.773 10.448 269.253 10.608C269.749 10.752 270.285 10.872 270.861 10.968C271.453 11.064 272.037 11.184 272.613 11.328C273.205 11.456 273.741 11.64 274.221 11.88C274.717 12.104 275.109 12.432 275.397 12.864C275.701 13.28 275.853 13.832 275.853 14.52C275.853 15.256 275.645 15.896 275.229 16.44C274.829 16.968 274.237 17.384 273.453 17.688C272.685 17.976 271.749 18.12 270.645 18.12ZM285.051 18.12C283.739 18.12 282.587 17.848 281.595 17.304C280.603 16.744 279.827 15.984 279.267 15.024C278.707 14.048 278.427 12.936 278.427 11.688C278.427 10.44 278.691 9.336 279.219 8.376C279.763 7.416 280.499 6.664 281.427 6.12C282.371 5.56 283.427 5.28 284.595 5.28C285.779 5.28 286.827 5.552 287.739 6.096C288.667 6.624 289.395 7.376 289.923 8.352C290.451 9.312 290.715 10.424 290.715 11.688C290.715 11.768 290.707 11.856 290.691 11.952C290.691 12.032 290.691 12.12 290.691 12.216H279.723V10.944H289.779L289.107 11.448C289.107 10.536 288.907 9.728 288.507 9.024C288.123 8.304 287.595 7.744 286.923 7.344C286.251 6.944 285.475 6.744 284.595 6.744C283.731 6.744 282.955 6.944 282.267 7.344C281.579 7.744 281.043 8.304 280.659 9.024C280.275 9.744 280.083 10.568 280.083 11.496V11.76C280.083 12.72 280.291 13.568 280.707 14.304C281.139 15.024 281.731 15.592 282.483 16.008C283.251 16.408 284.123 16.608 285.099 16.608C285.867 16.608 286.579 16.472 287.235 16.2C287.907 15.928 288.483 15.512 288.963 14.952L289.923 16.056C289.363 16.728 288.659 17.24 287.811 17.592C286.979 17.944 286.059 18.12 285.051 18.12ZM307.041 18.12C305.825 18.12 304.729 17.848 303.753 17.304C302.793 16.744 302.033 15.984 301.473 15.024C300.913 14.048 300.633 12.936 300.633 11.688C300.633 10.424 300.913 9.312 301.473 8.352C302.033 7.392 302.793 6.64 303.753 6.096C304.713 5.552 305.809 5.28 307.041 5.28C308.289 5.28 309.393 5.552 310.353 6.096C311.329 6.64 312.089 7.392 312.633 8.352C313.193 9.312 313.473 10.424 313.473 11.688C313.473 12.936 313.193 14.048 312.633 15.024C312.089 15.984 311.329 16.744 310.353 17.304C309.377 17.848 308.273 18.12 307.041 18.12ZM307.041 16.608C307.953 16.608 308.761 16.408 309.465 16.008C310.169 15.592 310.721 15.016 311.121 14.28C311.537 13.528 311.745 12.664 311.745 11.688C311.745 10.696 311.537 9.832 311.121 9.096C310.721 8.36 310.169 7.792 309.465 7.392C308.761 6.976 307.961 6.768 307.065 6.768C306.169 6.768 305.369 6.976 304.665 7.392C303.961 7.792 303.401 8.36 302.985 9.096C302.569 9.832 302.361 10.696 302.361 11.688C302.361 12.664 302.569 13.528 302.985 14.28C303.401 15.016 303.961 15.592 304.665 16.008C305.369 16.408 306.161 16.608 307.041 16.608ZM324.104 5.28C325.128 5.28 326.024 5.48 326.792 5.88C327.576 6.264 328.184 6.856 328.616 7.656C329.064 8.456 329.288 9.464 329.288 10.68V18H327.584V10.848C327.584 9.52 327.248 8.52 326.576 7.848C325.92 7.16 324.992 6.816 323.792 6.816C322.896 6.816 322.112 7 321.44 7.368C320.784 7.72 320.272 8.24 319.904 8.928C319.552 9.6 319.376 10.416 319.376 11.376V18H317.672V5.4H319.304V8.856L319.04 8.208C319.44 7.296 320.08 6.584 320.96 6.072C321.84 5.544 322.888 5.28 324.104 5.28ZM334.611 18V0.191999H336.315V18H334.611ZM341.872 22.776C341.28 22.776 340.712 22.68 340.168 22.488C339.64 22.296 339.184 22.008 338.8 21.624L339.592 20.352C339.912 20.656 340.256 20.888 340.624 21.048C341.008 21.224 341.432 21.312 341.896 21.312C342.456 21.312 342.936 21.152 343.336 20.832C343.752 20.528 344.144 19.984 344.512 19.2L345.328 17.352L345.52 17.088L350.704 5.4H352.384L346.072 19.512C345.72 20.328 345.328 20.976 344.896 21.456C344.48 21.936 344.024 22.272 343.528 22.464C343.032 22.672 342.48 22.776 341.872 22.776ZM345.232 18.36L339.424 5.4H341.2L346.336 16.968L345.232 18.36ZM365.073 18L360.321 5.4H361.953L366.273 17.088H365.529L369.969 5.4H371.433L375.825 17.088H375.081L379.473 5.4H381.033L376.257 18H374.649L370.425 7.008H370.929L366.681 18H365.073ZM384.319 18V5.4H386.023V18H384.319ZM385.183 2.616C384.831 2.616 384.535 2.496 384.295 2.256C384.055 2.016 383.935 1.728 383.935 1.392C383.935 1.056 384.055 0.775999 384.295 0.551999C384.535 0.311999 384.831 0.191999 385.183 0.191999C385.535 0.191999 385.831 0.303999 386.071 0.527999C386.311 0.751999 386.431 1.032 386.431 1.368C386.431 1.72 386.311 2.016 386.071 2.256C385.847 2.496 385.551 2.616 385.183 2.616ZM395.468 18.12C394.284 18.12 393.372 17.8 392.732 17.16C392.092 16.52 391.772 15.616 391.772 14.448V2.616H393.476V14.352C393.476 15.088 393.66 15.656 394.028 16.056C394.412 16.456 394.956 16.656 395.66 16.656C396.412 16.656 397.036 16.44 397.532 16.008L398.132 17.232C397.796 17.536 397.388 17.76 396.908 17.904C396.444 18.048 395.964 18.12 395.468 18.12ZM389.516 6.816V5.4H397.316V6.816H389.516ZM408.386 5.28C409.41 5.28 410.306 5.48 411.074 5.88C411.858 6.264 412.466 6.856 412.898 7.656C413.346 8.456 413.57 9.464 413.57 10.68V18H411.866V10.848C411.866 9.52 411.53 8.52 410.858 7.848C410.202 7.16 409.274 6.816 408.074 6.816C407.178 6.816 406.394 7 405.722 7.368C405.066 7.72 404.554 8.24 404.186 8.928C403.834 9.6 403.658 10.416 403.658 11.376V18H401.954V0.191999H403.658V8.856L403.322 8.208C403.722 7.296 404.362 6.584 405.242 6.072C406.122 5.544 407.17 5.28 408.386 5.28ZM433.622 18.144C432.342 18.144 431.158 17.936 430.07 17.52C428.998 17.088 428.062 16.488 427.262 15.72C426.478 14.952 425.862 14.048 425.414 13.008C424.982 11.968 424.766 10.832 424.766 9.6C424.766 8.368 424.982 7.232 425.414 6.192C425.862 5.152 426.486 4.248 427.286 3.48C428.086 2.712 429.022 2.12 430.094 1.704C431.182 1.272 432.366 1.056 433.646 1.056C434.926 1.056 436.094 1.256 437.15 1.656C438.222 2.056 439.134 2.664 439.886 3.48L438.782 4.608C438.078 3.904 437.302 3.4 436.454 3.096C435.606 2.792 434.694 2.64 433.718 2.64C432.678 2.64 431.718 2.816 430.838 3.168C429.974 3.504 429.214 3.992 428.558 4.632C427.918 5.256 427.414 5.992 427.046 6.84C426.694 7.672 426.518 8.592 426.518 9.6C426.518 10.592 426.694 11.512 427.046 12.36C427.414 13.208 427.918 13.952 428.558 14.592C429.214 15.216 429.974 15.704 430.838 16.056C431.718 16.392 432.67 16.56 433.694 16.56C434.654 16.56 435.558 16.416 436.406 16.128C437.27 15.84 438.062 15.352 438.782 14.664L439.79 16.008C438.99 16.712 438.054 17.248 436.982 17.616C435.91 17.968 434.79 18.144 433.622 18.144ZM438.086 15.792V9.6H439.79V16.008L438.086 15.792ZM445.537 18V1.2H452.785C454.657 1.2 456.105 1.576 457.129 2.328C458.169 3.08 458.689 4.144 458.689 5.52C458.689 6.432 458.473 7.2 458.041 7.824C457.625 8.448 457.049 8.92 456.313 9.24C455.593 9.56 454.801 9.72 453.937 9.72L454.345 9.144C455.417 9.144 456.337 9.312 457.105 9.648C457.889 9.968 458.497 10.456 458.929 11.112C459.361 11.752 459.577 12.552 459.577 13.512C459.577 14.936 459.049 16.04 457.993 16.824C456.953 17.608 455.377 18 453.265 18H445.537ZM447.313 16.536H453.241C454.713 16.536 455.841 16.288 456.625 15.792C457.409 15.28 457.801 14.472 457.801 13.368C457.801 12.28 457.409 11.488 456.625 10.992C455.841 10.48 454.713 10.224 453.241 10.224H447.121V8.76H452.665C454.009 8.76 455.049 8.504 455.785 7.992C456.537 7.48 456.913 6.72 456.913 5.712C456.913 4.688 456.537 3.928 455.785 3.432C455.049 2.92 454.009 2.664 452.665 2.664H447.313V16.536ZM464.35 18V1.2H470.638C472.062 1.2 473.286 1.432 474.31 1.896C475.334 2.344 476.118 3 476.662 3.864C477.222 4.712 477.502 5.744 477.502 6.96C477.502 8.144 477.222 9.168 476.662 10.032C476.118 10.88 475.334 11.536 474.31 12C473.286 12.464 472.062 12.696 470.638 12.696H465.334L466.126 11.856V18H464.35ZM466.126 12L465.334 11.136H470.59C472.27 11.136 473.542 10.776 474.406 10.056C475.286 9.32 475.726 8.288 475.726 6.96C475.726 5.616 475.286 4.576 474.406 3.84C473.542 3.104 472.27 2.736 470.59 2.736H465.334L466.126 1.896V12ZM481.402 18.12C481.05 18.12 480.746 17.992 480.49 17.736C480.25 17.48 480.13 17.168 480.13 16.8C480.13 16.416 480.25 16.104 480.49 15.864C480.746 15.624 481.05 15.504 481.402 15.504C481.754 15.504 482.05 15.624 482.29 15.864C482.546 16.104 482.674 16.416 482.674 16.8C482.674 17.168 482.546 17.48 482.29 17.736C482.05 17.992 481.754 18.12 481.402 18.12Z" fill="#1F1F1F"/>
</svg>
