<svg width="479" height="35" viewBox="0 0 479 35" fill="none" xmlns="http://www.w3.org/2000/svg">
<path d="M0.558262 34V31.525C1.39826 31.495 2.04326 31.36 2.49326 31.12C2.94326 30.85 3.25826 30.4 3.43826 29.77C3.61826 29.11 3.70826 28.21 3.70826 27.07V9.115C3.70826 8.365 3.72326 7.645 3.75326 6.955C3.81326 6.265 3.85826 5.725 3.88826 5.335C3.37826 5.365 2.79326 5.395 2.13326 5.425C1.47326 5.425 0.948262 5.44 0.558262 5.47V2.5H22.5183L22.7433 10.96H20.2683C20.2683 9.25 19.9833 7.975 19.4133 7.135C18.8433 6.265 18.1233 5.68 17.2533 5.38C16.3833 5.08 15.4983 4.945 14.5983 4.975L12.3933 5.02C11.6133 5.05 10.9983 5.2 10.5483 5.47C10.1283 5.74 9.82826 6.205 9.64826 6.865C9.46826 7.495 9.37826 8.365 9.37826 9.475V17.305H15.0483L14.8233 13.435H17.7933V23.875H15.3633C15.3633 22.585 15.1683 21.655 14.7783 21.085C14.3883 20.515 13.8333 20.17 13.1133 20.05C12.4233 19.9 11.5983 19.855 10.6383 19.915L9.37826 19.96V27.295C9.37826 28.105 9.36326 28.855 9.33326 29.545C9.30326 30.235 9.25826 30.775 9.19826 31.165C9.58826 31.135 10.0383 31.12 10.5483 31.12C11.0883 31.09 11.6133 31.075 12.1233 31.075C12.6633 31.045 13.0833 31.03 13.3833 31.03V34H0.558262ZM25.0692 31.615C25.9392 31.615 26.5542 31.435 26.9142 31.075C27.2742 30.685 27.4992 30.145 27.5892 29.455C27.6792 28.765 27.7242 27.985 27.7242 27.115V18.7C27.7242 18.19 27.7392 17.635 27.7692 17.035C27.7992 16.405 27.8442 15.76 27.9042 15.1C27.3942 15.13 26.8392 15.16 26.2392 15.19C25.6392 15.22 25.1442 15.25 24.7542 15.28V12.355C26.1042 12.355 27.2142 12.295 28.0842 12.175C28.9842 12.025 29.6742 11.845 30.1542 11.635C30.6642 11.425 31.0242 11.23 31.2342 11.05H33.2592V27.565C33.2592 28.045 33.2442 28.63 33.2142 29.32C33.2142 29.98 33.1692 30.625 33.0792 31.255C33.5592 31.195 34.0692 31.165 34.6092 31.165C35.1792 31.135 35.6442 31.12 36.0042 31.12V34H25.0692V31.615ZM30.2442 7.18C29.3742 7.18 28.6392 6.865 28.0392 6.235C27.4392 5.575 27.1392 4.78 27.1392 3.85C27.1392 2.92 27.4392 2.125 28.0392 1.465C28.6692 0.804997 29.4042 0.474997 30.2442 0.474997C31.1142 0.474997 31.8342 0.804997 32.4042 1.465C33.0042 2.125 33.3042 2.92 33.3042 3.85C33.3042 4.78 33.0192 5.575 32.4492 6.235C31.8792 6.865 31.1442 7.18 30.2442 7.18ZM39.0878 34V31.615C39.9578 31.615 40.5728 31.435 40.9328 31.075C41.2928 30.685 41.5178 30.145 41.6078 29.455C41.6978 28.765 41.7428 27.985 41.7428 27.115V18.655C41.7428 18.115 41.7578 17.545 41.7878 16.945C41.8178 16.345 41.8628 15.73 41.9228 15.1C41.4428 15.13 40.8878 15.16 40.2578 15.19C39.6578 15.22 39.1628 15.25 38.7728 15.28V12.355C40.1228 12.355 41.2328 12.295 42.1028 12.175C42.9728 12.025 43.6478 11.845 44.1278 11.635C44.6078 11.425 44.9528 11.23 45.1628 11.05H47.0528C47.1128 11.38 47.1428 11.65 47.1428 11.86C47.1428 12.07 47.1578 12.295 47.1878 12.535C47.2178 12.745 47.2628 13.06 47.3228 13.48C47.9228 12.97 48.6128 12.52 49.3928 12.13C50.2028 11.71 51.0128 11.38 51.8228 11.14C52.6328 10.9 53.3828 10.78 54.0728 10.78C56.7728 10.78 58.7078 11.575 59.8778 13.165C61.0478 14.755 61.6328 17.29 61.6328 20.77V27.565C61.6328 28.045 61.6178 28.63 61.5878 29.32C61.5878 29.98 61.5428 30.625 61.4528 31.255C61.9628 31.195 62.4878 31.165 63.0278 31.165C63.5678 31.135 64.0178 31.12 64.3778 31.12V34H53.4428V31.615C54.3128 31.615 54.9278 31.435 55.2878 31.075C55.6778 30.685 55.9178 30.145 56.0078 29.455C56.0978 28.765 56.1428 27.985 56.1428 27.115L56.0978 20.725C56.0978 18.565 55.7678 16.96 55.1078 15.91C54.4778 14.83 53.4278 14.29 51.9578 14.29C51.0878 14.32 50.2328 14.53 49.3928 14.92C48.5528 15.31 47.8478 15.805 47.2778 16.405C47.3078 16.765 47.3228 17.14 47.3228 17.53C47.3228 17.92 47.3228 18.31 47.3228 18.7L47.2778 27.565C47.2778 28.045 47.2628 28.63 47.2328 29.32C47.2328 29.98 47.1878 30.625 47.0978 31.255C47.5778 31.195 48.0878 31.165 48.6278 31.165C49.1978 31.135 49.6628 31.12 50.0228 31.12V34H39.0878ZM76.2567 34.72C74.4567 34.72 72.8517 34.255 71.4417 33.325C70.0317 32.395 68.9217 31.075 68.1117 29.365C67.3317 27.655 66.9417 25.645 66.9417 23.335C66.9417 20.905 67.4217 18.745 68.3817 16.855C69.3417 14.965 70.6617 13.48 72.3417 12.4C74.0517 11.32 76.0167 10.78 78.2367 10.78C79.1067 10.78 79.9167 10.885 80.6667 11.095C81.4467 11.275 82.1217 11.485 82.6917 11.725V7.72C82.6917 7.27 82.6917 6.715 82.6917 6.055C82.7217 5.395 82.7667 4.735 82.8267 4.075C82.3467 4.105 81.7917 4.135 81.1617 4.165C80.5617 4.195 80.0517 4.225 79.6317 4.255V1.33C81.0117 1.33 82.1367 1.27 83.0067 1.15C83.8767 0.999999 84.5517 0.819999 85.0317 0.609998C85.5417 0.399999 85.9017 0.204999 86.1117 0.0249975H88.1817V27.565C88.1817 28.015 88.1667 28.585 88.1367 29.275C88.1067 29.935 88.0617 30.595 88.0017 31.255C88.5117 31.195 89.0367 31.165 89.5767 31.165C90.1467 31.135 90.6267 31.105 91.0167 31.075V34H83.1867C83.1267 33.64 83.0667 33.28 83.0067 32.92C82.9767 32.53 82.9317 32.17 82.8717 31.84C81.9417 32.83 80.9217 33.55 79.8117 34C78.7017 34.48 77.5167 34.72 76.2567 34.72ZM78.3717 31.255C79.2117 31.255 80.0217 31.03 80.8017 30.58C81.5817 30.1 82.2117 29.515 82.6917 28.825C82.6617 28.405 82.6467 27.985 82.6467 27.565C82.6467 27.115 82.6467 26.665 82.6467 26.215L82.6917 14.695C82.2417 14.335 81.6717 14.065 80.9817 13.885C80.2917 13.675 79.5867 13.57 78.8667 13.57C77.4567 13.6 76.3017 14.05 75.4017 14.92C74.5317 15.76 73.8867 16.87 73.4667 18.25C73.0767 19.63 72.8967 21.13 72.9267 22.75C72.9267 24.22 73.1217 25.6 73.5117 26.89C73.9017 28.18 74.4867 29.23 75.2667 30.04C76.0767 30.85 77.1117 31.255 78.3717 31.255ZM105.929 31.615C106.799 31.615 107.414 31.435 107.774 31.075C108.134 30.685 108.359 30.145 108.449 29.455C108.539 28.765 108.584 27.985 108.584 27.115V18.7C108.584 18.19 108.599 17.635 108.629 17.035C108.659 16.405 108.704 15.76 108.764 15.1C108.254 15.13 107.699 15.16 107.099 15.19C106.499 15.22 106.004 15.25 105.614 15.28V12.355C106.964 12.355 108.074 12.295 108.944 12.175C109.844 12.025 110.534 11.845 111.014 11.635C111.524 11.425 111.884 11.23 112.094 11.05H114.119V27.565C114.119 28.045 114.104 28.63 114.074 29.32C114.074 29.98 114.029 30.625 113.939 31.255C114.419 31.195 114.929 31.165 115.469 31.165C116.039 31.135 116.504 31.12 116.864 31.12V34H105.929V31.615ZM111.104 7.18C110.234 7.18 109.499 6.865 108.899 6.235C108.299 5.575 107.999 4.78 107.999 3.85C107.999 2.92 108.299 2.125 108.899 1.465C109.529 0.804997 110.264 0.474997 111.104 0.474997C111.974 0.474997 112.694 0.804997 113.264 1.465C113.864 2.125 114.164 2.92 114.164 3.85C114.164 4.78 113.879 5.575 113.309 6.235C112.739 6.865 112.004 7.18 111.104 7.18ZM128.81 34.72C127.97 34.72 127.145 34.615 126.335 34.405C125.555 34.195 124.835 33.805 124.175 33.235C123.545 32.665 123.035 31.825 122.645 30.715C122.255 29.575 122.06 28.075 122.06 26.215L122.15 14.605L118.955 14.65V11.5C119.855 11.47 120.725 11.17 121.565 10.6C122.405 10 123.14 9.22 123.77 8.26C124.4 7.3 124.82 6.28 125.03 5.2H127.775L127.73 11.5H134.075V14.38L127.73 14.515L127.685 26.08C127.685 26.98 127.76 27.82 127.91 28.6C128.09 29.35 128.39 29.95 128.81 30.4C129.26 30.85 129.86 31.075 130.61 31.075C131.18 31.075 131.825 30.895 132.545 30.535C133.295 30.175 134.045 29.455 134.795 28.375L136.64 30.04C135.89 31.18 135.11 32.065 134.3 32.695C133.52 33.325 132.755 33.79 132.005 34.09C131.285 34.39 130.64 34.57 130.07 34.63C129.5 34.69 129.08 34.72 128.81 34.72ZM141.693 34.72C140.823 34.72 140.088 34.405 139.488 33.775C138.918 33.115 138.633 32.335 138.633 31.435C138.633 30.505 138.933 29.725 139.533 29.095C140.163 28.435 140.883 28.105 141.693 28.105C142.563 28.105 143.283 28.435 143.853 29.095C144.423 29.725 144.708 30.505 144.708 31.435C144.708 32.335 144.423 33.115 143.853 33.775C143.283 34.405 142.563 34.72 141.693 34.72ZM184.533 12.445C184.533 10.765 184.323 9.385 183.903 8.305C183.483 7.195 182.853 6.37 182.013 5.83C181.203 5.29 180.168 5.035 178.908 5.065H176.163V27.295C176.163 28.105 176.148 28.855 176.118 29.545C176.088 30.235 176.043 30.775 175.983 31.165C176.553 31.135 177.198 31.105 177.918 31.075C178.668 31.045 179.238 31.03 179.628 31.03V34H167.343V31.525C168.183 31.495 168.828 31.345 169.278 31.075C169.728 30.805 170.043 30.355 170.223 29.725C170.403 29.095 170.493 28.21 170.493 27.07L170.538 5.11H167.613C165.843 5.14 164.493 5.74 163.563 6.91C162.633 8.08 162.168 9.925 162.168 12.445H159.648L159.873 2.5H186.828L187.098 12.445H184.533ZM198.693 34.72C196.563 34.72 194.628 34.255 192.888 33.325C191.148 32.365 189.768 31.03 188.748 29.32C187.758 27.58 187.263 25.555 187.263 23.245C187.263 20.815 187.773 18.655 188.793 16.765C189.813 14.875 191.178 13.405 192.888 12.355C194.628 11.305 196.533 10.78 198.603 10.78C200.733 10.78 202.653 11.26 204.363 12.22C206.073 13.18 207.423 14.515 208.413 16.225C209.433 17.935 209.943 19.96 209.943 22.3C209.943 24.76 209.448 26.935 208.458 28.825C207.498 30.685 206.163 32.14 204.453 33.19C202.773 34.21 200.853 34.72 198.693 34.72ZM198.918 31.975C200.268 31.975 201.303 31.555 202.023 30.715C202.743 29.875 203.238 28.81 203.508 27.52C203.808 26.2 203.958 24.85 203.958 23.47C203.958 22.3 203.853 21.115 203.643 19.915C203.463 18.715 203.163 17.635 202.743 16.675C202.323 15.685 201.768 14.905 201.078 14.335C200.388 13.735 199.548 13.435 198.558 13.435C197.238 13.465 196.188 13.9 195.408 14.74C194.628 15.58 194.058 16.645 193.698 17.935C193.368 19.225 193.203 20.59 193.203 22.03C193.203 23.65 193.398 25.24 193.788 26.8C194.178 28.33 194.793 29.59 195.633 30.58C196.473 31.54 197.568 32.005 198.918 31.975ZM222.735 34.72C220.995 34.72 219.57 34.39 218.46 33.73C217.38 33.07 216.585 32.02 216.075 30.58C215.565 29.11 215.31 27.19 215.31 24.82V18.7C215.31 18.19 215.325 17.62 215.355 16.99C215.385 16.36 215.415 15.73 215.445 15.1C214.965 15.13 214.425 15.16 213.825 15.19C213.225 15.19 212.73 15.205 212.34 15.235V12.355H213.105C214.755 12.355 216.03 12.22 216.93 11.95C217.86 11.65 218.49 11.35 218.82 11.05H220.89V24.82C220.89 26.98 221.175 28.585 221.745 29.635C222.345 30.685 223.305 31.21 224.625 31.21C225.525 31.18 226.41 30.91 227.28 30.4C228.18 29.89 228.9 29.29 229.44 28.6V18.88C229.44 18.28 229.455 17.665 229.485 17.035C229.515 16.375 229.56 15.73 229.62 15.1C229.14 15.13 228.585 15.16 227.955 15.19C227.355 15.19 226.86 15.205 226.47 15.235V12.355H227.64C229.02 12.355 230.16 12.205 231.06 11.905C231.99 11.605 232.605 11.32 232.905 11.05H234.975V27.205C234.975 27.625 234.96 28.24 234.93 29.05C234.9 29.86 234.855 30.595 234.795 31.255C235.305 31.195 235.845 31.165 236.415 31.165C236.985 31.135 237.45 31.105 237.81 31.075V34H229.98C229.92 33.58 229.86 33.16 229.8 32.74C229.77 32.32 229.74 31.915 229.71 31.525C228.78 32.365 227.73 33.115 226.56 33.775C225.42 34.405 224.145 34.72 222.735 34.72ZM240.885 31.615C241.755 31.615 242.37 31.435 242.73 31.075C243.09 30.685 243.315 30.145 243.405 29.455C243.495 28.765 243.54 27.985 243.54 27.115V18.655C243.54 18.115 243.555 17.545 243.585 16.945C243.615 16.345 243.66 15.73 243.72 15.1C243.21 15.13 242.655 15.16 242.055 15.19C241.455 15.19 240.96 15.205 240.57 15.235V12.355H242.235C243.435 12.355 244.44 12.22 245.25 11.95C246.06 11.65 246.63 11.35 246.96 11.05H248.85C248.91 11.41 248.955 11.98 248.985 12.76C249.015 13.54 249.03 14.32 249.03 15.1C249.72 14.2 250.44 13.435 251.19 12.805C251.94 12.145 252.705 11.65 253.485 11.32C254.295 10.96 255.12 10.78 255.96 10.78C256.92 10.78 257.76 11.05 258.48 11.59C259.23 12.13 259.605 13 259.605 14.2C259.605 14.59 259.5 15.01 259.29 15.46C259.11 15.91 258.81 16.285 258.39 16.585C258 16.885 257.46 17.035 256.77 17.035C256.14 17.035 255.54 16.84 254.97 16.45C254.43 16.03 254.145 15.37 254.115 14.47C253.485 14.44 252.825 14.665 252.135 15.145C251.475 15.625 250.875 16.21 250.335 16.9C249.795 17.59 249.375 18.295 249.075 19.015L249.12 27.565C249.12 28.045 249.105 28.63 249.075 29.32C249.045 29.98 249 30.625 248.94 31.255C249.42 31.195 249.93 31.165 250.47 31.165C251.01 31.135 251.46 31.12 251.82 31.12V34H240.885V31.615ZM273.58 31.615C274.45 31.615 275.065 31.435 275.425 31.075C275.785 30.685 276.01 30.145 276.1 29.455C276.19 28.765 276.235 27.985 276.235 27.115V18.7C276.235 18.19 276.25 17.635 276.28 17.035C276.31 16.405 276.355 15.76 276.415 15.1C275.905 15.13 275.35 15.16 274.75 15.19C274.15 15.22 273.655 15.25 273.265 15.28V12.355C274.615 12.355 275.725 12.295 276.595 12.175C277.495 12.025 278.185 11.845 278.665 11.635C279.175 11.425 279.535 11.23 279.745 11.05H281.77V27.565C281.77 28.045 281.755 28.63 281.725 29.32C281.725 29.98 281.68 30.625 281.59 31.255C282.07 31.195 282.58 31.165 283.12 31.165C283.69 31.135 284.155 31.12 284.515 31.12V34H273.58V31.615ZM278.755 7.18C277.885 7.18 277.15 6.865 276.55 6.235C275.95 5.575 275.65 4.78 275.65 3.85C275.65 2.92 275.95 2.125 276.55 1.465C277.18 0.804997 277.915 0.474997 278.755 0.474997C279.625 0.474997 280.345 0.804997 280.915 1.465C281.515 2.125 281.815 2.92 281.815 3.85C281.815 4.78 281.53 5.575 280.96 6.235C280.39 6.865 279.655 7.18 278.755 7.18ZM296.461 34.72C295.621 34.72 294.796 34.615 293.986 34.405C293.206 34.195 292.486 33.805 291.826 33.235C291.196 32.665 290.686 31.825 290.296 30.715C289.906 29.575 289.711 28.075 289.711 26.215L289.801 14.605L286.606 14.65V11.5C287.506 11.47 288.376 11.17 289.216 10.6C290.056 10 290.791 9.22 291.421 8.26C292.051 7.3 292.471 6.28 292.681 5.2H295.426L295.381 11.5H301.726V14.38L295.381 14.515L295.336 26.08C295.336 26.98 295.411 27.82 295.561 28.6C295.741 29.35 296.041 29.95 296.461 30.4C296.911 30.85 297.511 31.075 298.261 31.075C298.831 31.075 299.476 30.895 300.196 30.535C300.946 30.175 301.696 29.455 302.446 28.375L304.291 30.04C303.541 31.18 302.761 32.065 301.951 32.695C301.171 33.325 300.406 33.79 299.656 34.09C298.936 34.39 298.291 34.57 297.721 34.63C297.151 34.69 296.731 34.72 296.461 34.72ZM309.345 34.72C308.475 34.72 307.74 34.405 307.14 33.775C306.57 33.115 306.285 32.335 306.285 31.435C306.285 30.505 306.585 29.725 307.185 29.095C307.815 28.435 308.535 28.105 309.345 28.105C310.215 28.105 310.935 28.435 311.505 29.095C312.075 29.725 312.36 30.505 312.36 31.435C312.36 32.335 312.075 33.115 311.505 33.775C310.935 34.405 310.215 34.72 309.345 34.72ZM343.995 34.72C341.145 34.72 338.715 34.24 336.705 33.28C334.695 32.32 333.06 31.045 331.8 29.455C330.57 27.835 329.67 26.05 329.1 24.1C328.53 22.15 328.245 20.2 328.245 18.25C328.245 16.36 328.56 14.455 329.19 12.535C329.82 10.585 330.78 8.8 332.07 7.18C333.39 5.56 335.04 4.255 337.02 3.265C339 2.275 341.325 1.78 343.995 1.78C346.725 1.78 349.08 2.275 351.06 3.265C353.07 4.255 354.705 5.575 355.965 7.225C357.255 8.845 358.2 10.615 358.8 12.535C359.43 14.455 359.745 16.36 359.745 18.25C359.745 20.11 359.43 22 358.8 23.92C358.17 25.84 357.195 27.625 355.875 29.275C354.585 30.895 352.95 32.215 350.97 33.235C348.99 34.225 346.665 34.72 343.995 34.72ZM344.355 31.93C346.035 31.93 347.445 31.54 348.585 30.76C349.755 29.98 350.7 28.96 351.42 27.7C352.14 26.44 352.665 25.06 352.995 23.56C353.355 22.03 353.535 20.53 353.535 19.06C353.535 17.05 353.325 15.175 352.905 13.435C352.485 11.665 351.855 10.12 351.015 8.8C350.205 7.48 349.17 6.445 347.91 5.695C346.65 4.915 345.195 4.54 343.545 4.57C341.895 4.6 340.485 5.02 339.315 5.83C338.175 6.61 337.23 7.645 336.48 8.935C335.76 10.195 335.235 11.59 334.905 13.12C334.575 14.65 334.41 16.15 334.41 17.62C334.41 19.12 334.59 20.695 334.95 22.345C335.31 23.995 335.88 25.555 336.66 27.025C337.44 28.495 338.46 29.68 339.72 30.58C341.01 31.48 342.555 31.93 344.355 31.93ZM370.515 34.135L364.89 17.98C364.65 17.23 364.455 16.66 364.305 16.27C364.155 15.85 364.05 15.505 363.99 15.235C363.93 14.935 363.855 14.62 363.765 14.29L361.785 14.38V11.5H372.18V13.885C371.1 13.915 370.485 14.305 370.335 15.055C370.215 15.805 370.305 16.735 370.605 17.845L372.315 23.605C372.525 24.265 372.72 24.97 372.9 25.72C373.11 26.44 373.29 27.16 373.44 27.88C373.62 27.19 373.815 26.47 374.025 25.72C374.235 24.94 374.49 24.04 374.79 23.02L378.345 11.5H382.215L386.13 24.145C386.34 24.775 386.55 25.45 386.76 26.17C386.97 26.89 387.165 27.565 387.345 28.195C387.495 27.595 387.675 26.95 387.885 26.26C388.095 25.54 388.305 24.88 388.515 24.28L390.675 17.62C390.885 16.9 391.08 16.27 391.26 15.73C391.47 15.19 391.71 14.695 391.98 14.245L389.415 14.38V11.5H397.695V13.885C397.035 13.885 396.465 14.05 395.985 14.38C395.535 14.68 395.145 15.07 394.815 15.55C394.485 16.03 394.215 16.51 394.005 16.99C393.795 17.47 393.63 17.905 393.51 18.295L387.93 34.135H384.15L380.64 23.65C380.52 23.26 380.355 22.765 380.145 22.165C379.965 21.565 379.785 20.935 379.605 20.275C379.425 19.615 379.245 18.985 379.065 18.385C378.885 19.105 378.66 19.915 378.39 20.815C378.15 21.715 377.91 22.555 377.67 23.335C377.43 24.115 377.235 24.7 377.085 25.09L374.025 34.135H370.515ZM399.703 34V31.615C400.573 31.615 401.188 31.435 401.548 31.075C401.908 30.685 402.133 30.145 402.223 29.455C402.313 28.765 402.358 27.985 402.358 27.115V18.655C402.358 18.115 402.373 17.545 402.403 16.945C402.433 16.345 402.478 15.73 402.538 15.1C402.058 15.13 401.503 15.16 400.873 15.19C400.273 15.22 399.778 15.25 399.388 15.28V12.355C400.738 12.355 401.848 12.295 402.718 12.175C403.588 12.025 404.263 11.845 404.743 11.635C405.223 11.425 405.568 11.23 405.778 11.05H407.668C407.728 11.38 407.758 11.65 407.758 11.86C407.758 12.07 407.773 12.295 407.803 12.535C407.833 12.745 407.878 13.06 407.938 13.48C408.538 12.97 409.228 12.52 410.008 12.13C410.818 11.71 411.628 11.38 412.438 11.14C413.248 10.9 413.998 10.78 414.688 10.78C417.388 10.78 419.323 11.575 420.493 13.165C421.663 14.755 422.248 17.29 422.248 20.77V27.565C422.248 28.045 422.233 28.63 422.203 29.32C422.203 29.98 422.158 30.625 422.068 31.255C422.578 31.195 423.103 31.165 423.643 31.165C424.183 31.135 424.633 31.12 424.993 31.12V34H414.058V31.615C414.928 31.615 415.543 31.435 415.903 31.075C416.293 30.685 416.533 30.145 416.623 29.455C416.713 28.765 416.758 27.985 416.758 27.115L416.713 20.725C416.713 18.565 416.383 16.96 415.723 15.91C415.093 14.83 414.043 14.29 412.573 14.29C411.703 14.32 410.848 14.53 410.008 14.92C409.168 15.31 408.463 15.805 407.893 16.405C407.923 16.765 407.938 17.14 407.938 17.53C407.938 17.92 407.938 18.31 407.938 18.7L407.893 27.565C407.893 28.045 407.878 28.63 407.848 29.32C407.848 29.98 407.803 30.625 407.713 31.255C408.193 31.195 408.703 31.165 409.243 31.165C409.813 31.135 410.278 31.12 410.638 31.12V34H399.703ZM439.693 31.615C440.563 31.615 441.178 31.435 441.538 31.075C441.898 30.685 442.123 30.145 442.213 29.455C442.303 28.765 442.348 27.985 442.348 27.115V18.7C442.348 18.19 442.363 17.635 442.393 17.035C442.423 16.405 442.468 15.76 442.528 15.1C442.018 15.13 441.463 15.16 440.863 15.19C440.263 15.22 439.768 15.25 439.378 15.28V12.355C440.728 12.355 441.838 12.295 442.708 12.175C443.608 12.025 444.298 11.845 444.778 11.635C445.288 11.425 445.648 11.23 445.858 11.05H447.883V27.565C447.883 28.045 447.868 28.63 447.838 29.32C447.838 29.98 447.793 30.625 447.703 31.255C448.183 31.195 448.693 31.165 449.233 31.165C449.803 31.135 450.268 31.12 450.628 31.12V34H439.693V31.615ZM444.868 7.18C443.998 7.18 443.263 6.865 442.663 6.235C442.063 5.575 441.763 4.78 441.763 3.85C441.763 2.92 442.063 2.125 442.663 1.465C443.293 0.804997 444.028 0.474997 444.868 0.474997C445.738 0.474997 446.458 0.804997 447.028 1.465C447.628 2.125 447.928 2.92 447.928 3.85C447.928 4.78 447.643 5.575 447.073 6.235C446.503 6.865 445.768 7.18 444.868 7.18ZM462.575 34.72C461.735 34.72 460.91 34.615 460.1 34.405C459.32 34.195 458.6 33.805 457.94 33.235C457.31 32.665 456.8 31.825 456.41 30.715C456.02 29.575 455.825 28.075 455.825 26.215L455.915 14.605L452.72 14.65V11.5C453.62 11.47 454.49 11.17 455.33 10.6C456.17 10 456.905 9.22 457.535 8.26C458.165 7.3 458.585 6.28 458.795 5.2H461.54L461.495 11.5H467.84V14.38L461.495 14.515L461.45 26.08C461.45 26.98 461.525 27.82 461.675 28.6C461.855 29.35 462.155 29.95 462.575 30.4C463.025 30.85 463.625 31.075 464.375 31.075C464.945 31.075 465.59 30.895 466.31 30.535C467.06 30.175 467.81 29.455 468.56 28.375L470.405 30.04C469.655 31.18 468.875 32.065 468.065 32.695C467.285 33.325 466.52 33.79 465.77 34.09C465.05 34.39 464.405 34.57 463.835 34.63C463.265 34.69 462.845 34.72 462.575 34.72ZM475.458 34.72C474.588 34.72 473.853 34.405 473.253 33.775C472.683 33.115 472.398 32.335 472.398 31.435C472.398 30.505 472.698 29.725 473.298 29.095C473.928 28.435 474.648 28.105 475.458 28.105C476.328 28.105 477.048 28.435 477.618 29.095C478.188 29.725 478.473 30.505 478.473 31.435C478.473 32.335 478.188 33.115 477.618 33.775C477.048 34.405 476.328 34.72 475.458 34.72Z" fill="#434343"/>
</svg>
