<svg width="71" height="24" viewBox="0 0 71 24" fill="none" xmlns="http://www.w3.org/2000/svg">
<path d="M12.472 23.384C10.7013 23.384 9.06933 23.1067 7.576 22.552C6.104 21.976 4.81333 21.1653 3.704 20.12C2.616 19.0747 1.76267 17.848 1.144 16.44C0.546667 15.032 0.248 13.4853 0.248 11.8C0.248 10.1147 0.546667 8.568 1.144 7.16C1.76267 5.752 2.62667 4.52533 3.736 3.48C4.84533 2.43467 6.14667 1.63467 7.64 1.08C9.13333 0.503999 10.776 0.216 12.568 0.216C14.552 0.216 16.3333 0.546666 17.912 1.208C19.512 1.86933 20.856 2.82933 21.944 4.088L18.616 7.16C17.8053 6.30667 16.92 5.67733 15.96 5.272C15 4.84533 13.9547 4.632 12.824 4.632C11.736 4.632 10.744 4.80267 9.848 5.144C8.952 5.48533 8.17333 5.976 7.512 6.616C6.872 7.256 6.37067 8.01333 6.008 8.888C5.66667 9.76267 5.496 10.7333 5.496 11.8C5.496 12.8453 5.66667 13.8053 6.008 14.68C6.37067 15.5547 6.872 16.3227 7.512 16.984C8.17333 17.624 8.94133 18.1147 9.816 18.456C10.712 18.7973 11.6933 18.968 12.76 18.968C13.784 18.968 14.776 18.808 15.736 18.488C16.7173 18.1467 17.6667 17.5813 18.584 16.792L21.528 20.536C20.312 21.4533 18.8933 22.1573 17.272 22.648C15.672 23.1387 14.072 23.384 12.472 23.384ZM16.792 19.864V11.448H21.528V20.536L16.792 19.864ZM26.5035 23V0.599998H37.4475C40.2635 0.599998 42.3755 1.13333 43.7835 2.2C45.2128 3.26667 45.9275 4.67467 45.9275 6.424C45.9275 7.59733 45.6395 8.62133 45.0635 9.496C44.4875 10.3493 43.6982 11.0107 42.6955 11.48C41.6928 11.9493 40.5408 12.184 39.2395 12.184L39.8475 10.872C41.2555 10.872 42.5035 11.1067 43.5915 11.576C44.6795 12.024 45.5222 12.696 46.1195 13.592C46.7382 14.488 47.0475 15.5867 47.0475 16.888C47.0475 18.808 46.2902 20.312 44.7755 21.4C43.2608 22.4667 41.0315 23 38.0875 23H26.5035ZM31.6555 19.096H37.7035C39.0475 19.096 40.0608 18.8827 40.7435 18.456C41.4475 18.008 41.7995 17.304 41.7995 16.344C41.7995 15.4053 41.4475 14.712 40.7435 14.264C40.0608 13.7947 39.0475 13.56 37.7035 13.56H31.2715V9.784H36.8075C38.0662 9.784 39.0262 9.57067 39.6875 9.144C40.3702 8.696 40.7115 8.024 40.7115 7.128C40.7115 6.25333 40.3702 5.60267 39.6875 5.176C39.0262 4.728 38.0662 4.504 36.8075 4.504H31.6555V19.096ZM51.1322 23V0.599998H60.8282C62.8336 0.599998 64.5616 0.930665 66.0123 1.592C67.4629 2.232 68.5829 3.16 69.3723 4.376C70.1616 5.592 70.5563 7.04267 70.5563 8.728C70.5563 10.392 70.1616 11.832 69.3723 13.048C68.5829 14.264 67.4629 15.2027 66.0123 15.864C64.5616 16.504 62.8336 16.824 60.8282 16.824H54.0122L56.3162 14.488V23H51.1322ZM56.3162 15.064L54.0122 12.6H60.5402C62.1403 12.6 63.3349 12.2587 64.1243 11.576C64.9136 10.8933 65.3083 9.944 65.3083 8.728C65.3083 7.49067 64.9136 6.53067 64.1243 5.848C63.3349 5.16533 62.1403 4.824 60.5402 4.824H54.0122L56.3162 2.36V15.064Z" fill="#646464"/>
</svg>
