<svg width="635" height="111" viewBox="0 0 635 111" fill="none" xmlns="http://www.w3.org/2000/svg">
<path d="M0.895664 34V31.525C1.73566 31.495 2.38066 31.345 2.83066 31.075C3.28066 30.805 3.59566 30.355 3.77566 29.725C3.95566 29.065 4.04566 28.15 4.04566 26.98V9.205C4.04566 8.395 4.06066 7.645 4.09066 6.955C4.15066 6.265 4.19566 5.725 4.22566 5.335C3.71566 5.365 3.13066 5.395 2.47066 5.425C1.81066 5.425 1.28566 5.44 0.895664 5.47V2.5C2.81566 2.47 4.75066 2.455 6.70066 2.455C8.65066 2.455 10.6157 2.44 12.5957 2.41C16.1357 2.38 18.9407 3.025 21.0107 4.345C23.0807 5.665 24.0557 7.69 23.9357 10.42C23.9057 11.32 23.6357 12.205 23.1257 13.075C22.6157 13.945 21.8657 14.725 20.8757 15.415C19.8857 16.105 18.6407 16.63 17.1407 16.99V17.035C20.2307 17.365 22.5257 18.295 24.0257 19.825C25.5257 21.325 26.2757 23.08 26.2757 25.09C26.2757 27.01 25.8107 28.63 24.8807 29.95C23.9507 31.27 22.6607 32.275 21.0107 32.965C19.3907 33.655 17.5457 34 15.4757 34H0.895664ZM9.53566 31.255C10.0457 31.285 10.5707 31.3 11.1107 31.3C11.6807 31.3 12.2207 31.3 12.7307 31.3C13.2407 31.27 13.6757 31.255 14.0357 31.255C16.0157 31.195 17.5157 30.625 18.5357 29.545C19.5857 28.435 20.1107 26.95 20.1107 25.09C20.1107 23.56 19.7957 22.36 19.1657 21.49C18.5657 20.62 17.7707 20.005 16.7807 19.645C15.8207 19.285 14.7857 19.105 13.6757 19.105C12.8657 19.105 12.1607 19.105 11.5607 19.105C10.9607 19.105 10.3457 19.135 9.71566 19.195V27.475C9.71566 28.285 9.70066 29.02 9.67066 29.68C9.64066 30.34 9.59566 30.865 9.53566 31.255ZM9.71566 16.45L12.3707 16.405C13.7807 16.375 14.8907 16.075 15.7007 15.505C16.5107 14.905 17.0957 14.14 17.4557 13.21C17.8157 12.25 17.9957 11.215 17.9957 10.105C17.9657 8.785 17.6657 7.765 17.0957 7.045C16.5557 6.295 15.8807 5.77 15.0707 5.47C14.2607 5.17 13.4207 5.035 12.5507 5.065C11.9207 5.065 11.3957 5.155 10.9757 5.335C10.5557 5.515 10.2407 5.89 10.0307 6.46C9.82066 7.03 9.71566 7.885 9.71566 9.025V16.45ZM40.3804 34.72C38.2204 34.72 36.3004 34.24 34.6204 33.28C32.9404 32.29 31.6354 30.91 30.7054 29.14C29.7754 27.34 29.3104 25.225 29.3104 22.795C29.3104 20.695 29.7754 18.73 30.7054 16.9C31.6354 15.07 32.9404 13.6 34.6204 12.49C36.3304 11.35 38.3104 10.78 40.5604 10.78C41.8204 10.78 43.0354 10.96 44.2054 11.32C45.3754 11.68 46.4254 12.28 47.3554 13.12C48.2854 13.96 49.0204 15.07 49.5604 16.45C50.1304 17.83 50.4004 19.51 50.3704 21.49L35.2504 21.76C35.2504 23.62 35.4604 25.27 35.8804 26.71C36.3304 28.12 37.0504 29.245 38.0404 30.085C39.0304 30.895 40.3354 31.3 41.9554 31.3C42.6754 31.3 43.4404 31.18 44.2504 30.94C45.0904 30.67 45.9154 30.28 46.7254 29.77C47.5354 29.23 48.2554 28.57 48.8854 27.79L50.5954 29.365C49.6054 30.805 48.5104 31.915 47.3104 32.695C46.1104 33.475 44.9104 34 43.7104 34.27C42.5104 34.57 41.4004 34.72 40.3804 34.72ZM35.4754 19.06H44.8354C44.8054 17.86 44.6254 16.855 44.2954 16.045C43.9954 15.205 43.5454 14.575 42.9454 14.155C42.3454 13.705 41.6104 13.48 40.7404 13.48C39.2704 13.48 38.0854 13.975 37.1854 14.965C36.3154 15.925 35.7454 17.29 35.4754 19.06ZM63.8732 34.72C62.4932 34.72 61.2032 34.54 60.0032 34.18C58.8032 33.82 57.8432 33.385 57.1232 32.875L57.2582 34.315H54.3332L54.1082 26.575H56.5382C56.6282 27.595 56.9882 28.525 57.6182 29.365C58.2482 30.175 59.0582 30.82 60.0482 31.3C61.0682 31.75 62.1932 31.975 63.4232 31.975C64.0232 31.975 64.5932 31.885 65.1332 31.705C65.7032 31.525 66.1682 31.24 66.5282 30.85C66.9182 30.43 67.1132 29.905 67.1132 29.275C67.1132 28.615 66.8882 28.075 66.4382 27.655C66.0182 27.235 65.4182 26.845 64.6382 26.485C63.8582 26.125 62.9432 25.75 61.8932 25.36C60.9632 25 60.0332 24.625 59.1032 24.235C58.1732 23.845 57.3182 23.38 56.5382 22.84C55.7582 22.27 55.1282 21.58 54.6482 20.77C54.1682 19.96 53.9282 18.97 53.9282 17.8C53.9282 16.99 54.0782 16.18 54.3782 15.37C54.6782 14.56 55.1582 13.81 55.8182 13.12C56.4782 12.4 57.3182 11.83 58.3382 11.41C59.3882 10.99 60.6632 10.78 62.1632 10.78C62.9732 10.78 63.8882 10.915 64.9082 11.185C65.9282 11.425 66.8282 11.845 67.6082 12.445L67.5632 11.005H70.4882V18.925H68.0582C67.9082 17.875 67.5782 16.945 67.0682 16.135C66.5582 15.295 65.8832 14.635 65.0432 14.155C64.2032 13.675 63.1982 13.435 62.0282 13.435C61.0682 13.435 60.2582 13.675 59.5982 14.155C58.9382 14.605 58.6082 15.28 58.6082 16.18C58.6082 16.93 58.8632 17.545 59.3732 18.025C59.8832 18.505 60.5732 18.91 61.4432 19.24C62.3132 19.57 63.2582 19.93 64.2782 20.32C65.6882 20.8 66.9632 21.37 68.1032 22.03C69.2732 22.69 70.2032 23.485 70.8932 24.415C71.5832 25.345 71.9282 26.5 71.9282 27.88C71.9282 29.44 71.5382 30.73 70.7582 31.75C69.9782 32.74 68.9732 33.49 67.7432 34C66.5132 34.48 65.2232 34.72 63.8732 34.72ZM84.1474 34.72C83.3074 34.72 82.4824 34.615 81.6724 34.405C80.8924 34.195 80.1724 33.805 79.5124 33.235C78.8824 32.665 78.3724 31.825 77.9824 30.715C77.5924 29.575 77.3974 28.075 77.3974 26.215L77.4874 14.605L74.2924 14.65V11.5C75.1924 11.47 76.0624 11.17 76.9024 10.6C77.7424 10 78.4774 9.22 79.1074 8.26C79.7374 7.3 80.1574 6.28 80.3674 5.2H83.1124L83.0674 11.5H89.4124V14.38L83.0674 14.515L83.0224 26.08C83.0224 26.98 83.0974 27.82 83.2474 28.6C83.4274 29.35 83.7274 29.95 84.1474 30.4C84.5974 30.85 85.1974 31.075 85.9474 31.075C86.5174 31.075 87.1624 30.895 87.8824 30.535C88.6324 30.175 89.3824 29.455 90.1324 28.375L91.9774 30.04C91.2274 31.18 90.4474 32.065 89.6374 32.695C88.8574 33.325 88.0924 33.79 87.3424 34.09C86.6224 34.39 85.9774 34.57 85.4074 34.63C84.8374 34.69 84.4174 34.72 84.1474 34.72ZM105.837 31.525C106.677 31.495 107.322 31.36 107.772 31.12C108.222 30.85 108.537 30.4 108.717 29.77C108.897 29.11 108.987 28.21 108.987 27.07V9.115C108.987 8.365 109.002 7.645 109.032 6.955C109.092 6.265 109.137 5.725 109.167 5.335C108.657 5.365 108.072 5.395 107.412 5.425C106.752 5.425 106.227 5.44 105.837 5.47V2.5L118.077 2.455C120.957 2.455 123.492 2.86 125.682 3.67C127.902 4.45 129.747 5.56 131.217 7C132.687 8.44 133.797 10.105 134.547 11.995C135.327 13.885 135.717 15.91 135.717 18.07C135.717 19.96 135.372 21.85 134.682 23.74C134.022 25.63 132.987 27.355 131.577 28.915C130.197 30.445 128.397 31.675 126.177 32.605C123.987 33.535 121.377 34 118.347 34H105.837V31.525ZM114.657 27.295C114.657 28.105 114.642 28.855 114.612 29.545C114.582 30.235 114.537 30.775 114.477 31.165C114.957 31.165 115.482 31.18 116.052 31.21C116.622 31.21 117.177 31.225 117.717 31.255C118.257 31.255 118.662 31.255 118.932 31.255C120.672 31.255 122.202 30.91 123.522 30.22C124.842 29.53 125.937 28.6 126.807 27.43C127.707 26.26 128.382 24.925 128.832 23.425C129.282 21.895 129.507 20.29 129.507 18.61C129.507 15.64 129.042 13.165 128.112 11.185C127.212 9.175 125.907 7.66 124.197 6.64C122.487 5.59 120.372 5.05 117.852 5.02C117.012 4.99 116.352 5.11 115.872 5.38C115.392 5.65 115.062 6.1 114.882 6.73C114.732 7.36 114.657 8.245 114.657 9.385V27.295ZM150.068 34.72C147.908 34.72 145.988 34.24 144.308 33.28C142.628 32.29 141.323 30.91 140.393 29.14C139.463 27.34 138.998 25.225 138.998 22.795C138.998 20.695 139.463 18.73 140.393 16.9C141.323 15.07 142.628 13.6 144.308 12.49C146.018 11.35 147.998 10.78 150.248 10.78C151.508 10.78 152.723 10.96 153.893 11.32C155.063 11.68 156.113 12.28 157.043 13.12C157.973 13.96 158.708 15.07 159.248 16.45C159.818 17.83 160.088 19.51 160.058 21.49L144.938 21.76C144.938 23.62 145.148 25.27 145.568 26.71C146.018 28.12 146.738 29.245 147.728 30.085C148.718 30.895 150.023 31.3 151.643 31.3C152.363 31.3 153.128 31.18 153.938 30.94C154.778 30.67 155.603 30.28 156.413 29.77C157.223 29.23 157.943 28.57 158.573 27.79L160.283 29.365C159.293 30.805 158.198 31.915 156.998 32.695C155.798 33.475 154.598 34 153.398 34.27C152.198 34.57 151.088 34.72 150.068 34.72ZM145.163 19.06H154.523C154.493 17.86 154.313 16.855 153.983 16.045C153.683 15.205 153.233 14.575 152.633 14.155C152.033 13.705 151.298 13.48 150.428 13.48C148.958 13.48 147.773 13.975 146.873 14.965C146.003 15.925 145.433 17.29 145.163 19.06ZM176.442 34C176.352 33.55 176.292 33.175 176.262 32.875C176.262 32.545 176.247 32.17 176.217 31.75C175.197 32.77 174.102 33.52 172.932 34C171.792 34.48 170.607 34.72 169.377 34.72C167.337 34.72 165.762 34.165 164.652 33.055C163.572 31.945 163.032 30.58 163.032 28.96C163.032 27.52 163.422 26.305 164.202 25.315C164.982 24.295 166.002 23.47 167.262 22.84C168.522 22.18 169.917 21.685 171.447 21.355C172.977 20.995 174.492 20.8 175.992 20.77V18.295C175.992 17.425 175.887 16.63 175.677 15.91C175.497 15.16 175.152 14.575 174.642 14.155C174.132 13.705 173.382 13.48 172.392 13.48C171.732 13.51 171.057 13.66 170.367 13.93C169.707 14.17 169.182 14.56 168.792 15.1C169.032 15.37 169.182 15.67 169.242 16C169.302 16.3 169.332 16.57 169.332 16.81C169.332 17.35 169.122 17.92 168.702 18.52C168.282 19.09 167.607 19.36 166.677 19.33C165.867 19.3 165.237 19.015 164.787 18.475C164.367 17.935 164.157 17.29 164.157 16.54C164.157 15.4 164.562 14.41 165.372 13.57C166.212 12.7 167.337 12.025 168.747 11.545C170.157 11.035 171.732 10.78 173.472 10.78C176.052 10.78 178.032 11.455 179.412 12.805C180.792 14.155 181.467 16.315 181.437 19.285C181.437 20.335 181.437 21.295 181.437 22.165C181.437 23.005 181.422 23.86 181.392 24.73C181.392 25.57 181.392 26.515 181.392 27.565C181.392 28.015 181.377 28.585 181.347 29.275C181.317 29.935 181.272 30.595 181.212 31.255C181.752 31.195 182.292 31.165 182.832 31.165C183.402 31.135 183.867 31.105 184.227 31.075V34H176.442ZM175.947 23.425C175.047 23.485 174.162 23.635 173.292 23.875C172.422 24.085 171.642 24.385 170.952 24.775C170.262 25.165 169.707 25.66 169.287 26.26C168.897 26.83 168.717 27.49 168.747 28.24C168.777 29.17 169.077 29.86 169.647 30.31C170.217 30.73 170.877 30.94 171.627 30.94C172.497 30.94 173.277 30.76 173.967 30.4C174.687 30.04 175.347 29.56 175.947 28.96C175.947 28.66 175.947 28.345 175.947 28.015C175.947 27.685 175.947 27.355 175.947 27.025C175.947 26.605 175.947 26.08 175.947 25.45C175.947 24.82 175.947 24.145 175.947 23.425ZM186.364 31.615C187.234 31.615 187.849 31.435 188.209 31.075C188.599 30.685 188.824 30.145 188.884 29.455C188.974 28.765 189.019 27.985 189.019 27.115V7.675C189.019 7.165 189.034 6.61 189.064 6.01C189.094 5.38 189.139 4.735 189.199 4.075C188.689 4.105 188.134 4.135 187.534 4.165C186.934 4.195 186.424 4.225 186.004 4.255V1.33C187.384 1.33 188.509 1.27 189.379 1.15C190.279 0.999999 190.969 0.819999 191.449 0.609998C191.959 0.399999 192.319 0.204999 192.529 0.0249975H194.554L194.599 27.565C194.599 28.045 194.584 28.63 194.554 29.32C194.524 29.98 194.464 30.625 194.374 31.255C194.884 31.195 195.409 31.165 195.949 31.165C196.489 31.135 196.939 31.12 197.299 31.12V34H186.364V31.615ZM210.431 34.72C209.051 34.72 207.761 34.54 206.561 34.18C205.361 33.82 204.401 33.385 203.681 32.875L203.816 34.315H200.891L200.666 26.575H203.096C203.186 27.595 203.546 28.525 204.176 29.365C204.806 30.175 205.616 30.82 206.606 31.3C207.626 31.75 208.751 31.975 209.981 31.975C210.581 31.975 211.151 31.885 211.691 31.705C212.261 31.525 212.726 31.24 213.086 30.85C213.476 30.43 213.671 29.905 213.671 29.275C213.671 28.615 213.446 28.075 212.996 27.655C212.576 27.235 211.976 26.845 211.196 26.485C210.416 26.125 209.501 25.75 208.451 25.36C207.521 25 206.591 24.625 205.661 24.235C204.731 23.845 203.876 23.38 203.096 22.84C202.316 22.27 201.686 21.58 201.206 20.77C200.726 19.96 200.486 18.97 200.486 17.8C200.486 16.99 200.636 16.18 200.936 15.37C201.236 14.56 201.716 13.81 202.376 13.12C203.036 12.4 203.876 11.83 204.896 11.41C205.946 10.99 207.221 10.78 208.721 10.78C209.531 10.78 210.446 10.915 211.466 11.185C212.486 11.425 213.386 11.845 214.166 12.445L214.121 11.005H217.046V18.925H214.616C214.466 17.875 214.136 16.945 213.626 16.135C213.116 15.295 212.441 14.635 211.601 14.155C210.761 13.675 209.756 13.435 208.586 13.435C207.626 13.435 206.816 13.675 206.156 14.155C205.496 14.605 205.166 15.28 205.166 16.18C205.166 16.93 205.421 17.545 205.931 18.025C206.441 18.505 207.131 18.91 208.001 19.24C208.871 19.57 209.816 19.93 210.836 20.32C212.246 20.8 213.521 21.37 214.661 22.03C215.831 22.69 216.761 23.485 217.451 24.415C218.141 25.345 218.486 26.5 218.486 27.88C218.486 29.44 218.096 30.73 217.316 31.75C216.536 32.74 215.531 33.49 214.301 34C213.071 34.48 211.781 34.72 210.431 34.72ZM248.961 34.72C245.781 34.72 243.051 34.045 240.771 32.695C238.491 31.315 236.736 29.425 235.506 27.025C234.276 24.595 233.661 21.85 233.661 18.79C233.661 16.72 233.976 14.68 234.606 12.67C235.266 10.63 236.241 8.8 237.531 7.18C238.821 5.53 240.441 4.225 242.391 3.265C244.371 2.275 246.666 1.78 249.276 1.78C250.176 1.78 251.151 1.87 252.201 2.05C253.251 2.23 254.286 2.5 255.306 2.86C256.356 3.19 257.286 3.595 258.096 4.075L257.916 2.095H261.066V12.535H258.591C258.351 10.765 257.826 9.295 257.016 8.125C256.206 6.955 255.171 6.07 253.911 5.47C252.681 4.84 251.301 4.525 249.771 4.525C248.211 4.525 246.801 4.885 245.541 5.605C244.311 6.325 243.261 7.3 242.391 8.53C241.551 9.76 240.906 11.17 240.456 12.76C240.006 14.35 239.781 16.045 239.781 17.845C239.781 20.485 240.186 22.855 240.996 24.955C241.836 27.025 243.021 28.66 244.551 29.86C246.081 31.03 247.926 31.615 250.086 31.615C250.746 31.615 251.481 31.57 252.291 31.48C253.101 31.36 253.911 31.18 254.721 30.94C255.531 30.7 256.251 30.415 256.881 30.085V25.45C256.881 24.67 256.896 23.905 256.926 23.155C256.956 22.405 256.986 21.79 257.016 21.31C256.506 21.34 255.921 21.37 255.261 21.4C254.601 21.4 254.076 21.415 253.686 21.445V18.475H265.071V20.95C264.441 20.98 263.931 21.1 263.541 21.31C263.151 21.49 262.836 21.775 262.596 22.165C262.356 22.525 262.191 22.975 262.101 23.515C262.011 24.055 261.966 24.67 261.966 25.36V32.425H260.841C260.121 32.425 259.326 32.545 258.456 32.785C257.586 32.995 256.641 33.265 255.621 33.595C254.691 33.895 253.656 34.15 252.516 34.36C251.376 34.6 250.191 34.72 248.961 34.72ZM277.125 34.72C275.385 34.72 273.96 34.39 272.85 33.73C271.77 33.07 270.975 32.02 270.465 30.58C269.955 29.11 269.7 27.19 269.7 24.82V18.7C269.7 18.19 269.715 17.62 269.745 16.99C269.775 16.36 269.805 15.73 269.835 15.1C269.355 15.13 268.815 15.16 268.215 15.19C267.615 15.19 267.12 15.205 266.73 15.235V12.355H267.495C269.145 12.355 270.42 12.22 271.32 11.95C272.25 11.65 272.88 11.35 273.21 11.05H275.28V24.82C275.28 26.98 275.565 28.585 276.135 29.635C276.735 30.685 277.695 31.21 279.015 31.21C279.915 31.18 280.8 30.91 281.67 30.4C282.57 29.89 283.29 29.29 283.83 28.6V18.88C283.83 18.28 283.845 17.665 283.875 17.035C283.905 16.375 283.95 15.73 284.01 15.1C283.53 15.13 282.975 15.16 282.345 15.19C281.745 15.19 281.25 15.205 280.86 15.235V12.355H282.03C283.41 12.355 284.55 12.205 285.45 11.905C286.38 11.605 286.995 11.32 287.295 11.05H289.365V27.205C289.365 27.625 289.35 28.24 289.32 29.05C289.29 29.86 289.245 30.595 289.185 31.255C289.695 31.195 290.235 31.165 290.805 31.165C291.375 31.135 291.84 31.105 292.2 31.075V34H284.37C284.31 33.58 284.25 33.16 284.19 32.74C284.16 32.32 284.13 31.915 284.1 31.525C283.17 32.365 282.12 33.115 280.95 33.775C279.81 34.405 278.535 34.72 277.125 34.72ZM295.275 31.615C296.145 31.615 296.76 31.435 297.12 31.075C297.48 30.685 297.705 30.145 297.795 29.455C297.885 28.765 297.93 27.985 297.93 27.115V18.655C297.93 18.115 297.945 17.545 297.975 16.945C298.005 16.345 298.05 15.73 298.11 15.1C297.6 15.13 297.045 15.16 296.445 15.19C295.845 15.19 295.35 15.205 294.96 15.235V12.355H296.625C297.825 12.355 298.83 12.22 299.64 11.95C300.45 11.65 301.02 11.35 301.35 11.05H303.24C303.3 11.41 303.345 11.98 303.375 12.76C303.405 13.54 303.42 14.32 303.42 15.1C304.11 14.2 304.83 13.435 305.58 12.805C306.33 12.145 307.095 11.65 307.875 11.32C308.685 10.96 309.51 10.78 310.35 10.78C311.31 10.78 312.15 11.05 312.87 11.59C313.62 12.13 313.995 13 313.995 14.2C313.995 14.59 313.89 15.01 313.68 15.46C313.5 15.91 313.2 16.285 312.78 16.585C312.39 16.885 311.85 17.035 311.16 17.035C310.53 17.035 309.93 16.84 309.36 16.45C308.82 16.03 308.535 15.37 308.505 14.47C307.875 14.44 307.215 14.665 306.525 15.145C305.865 15.625 305.265 16.21 304.725 16.9C304.185 17.59 303.765 18.295 303.465 19.015L303.51 27.565C303.51 28.045 303.495 28.63 303.465 29.32C303.435 29.98 303.39 30.625 303.33 31.255C303.81 31.195 304.32 31.165 304.86 31.165C305.4 31.135 305.85 31.12 306.21 31.12V34H295.275V31.615ZM328.8 34C328.71 33.55 328.65 33.175 328.62 32.875C328.62 32.545 328.605 32.17 328.575 31.75C327.555 32.77 326.46 33.52 325.29 34C324.15 34.48 322.965 34.72 321.735 34.72C319.695 34.72 318.12 34.165 317.01 33.055C315.93 31.945 315.39 30.58 315.39 28.96C315.39 27.52 315.78 26.305 316.56 25.315C317.34 24.295 318.36 23.47 319.62 22.84C320.88 22.18 322.275 21.685 323.805 21.355C325.335 20.995 326.85 20.8 328.35 20.77V18.295C328.35 17.425 328.245 16.63 328.035 15.91C327.855 15.16 327.51 14.575 327 14.155C326.49 13.705 325.74 13.48 324.75 13.48C324.09 13.51 323.415 13.66 322.725 13.93C322.065 14.17 321.54 14.56 321.15 15.1C321.39 15.37 321.54 15.67 321.6 16C321.66 16.3 321.69 16.57 321.69 16.81C321.69 17.35 321.48 17.92 321.06 18.52C320.64 19.09 319.965 19.36 319.035 19.33C318.225 19.3 317.595 19.015 317.145 18.475C316.725 17.935 316.515 17.29 316.515 16.54C316.515 15.4 316.92 14.41 317.73 13.57C318.57 12.7 319.695 12.025 321.105 11.545C322.515 11.035 324.09 10.78 325.83 10.78C328.41 10.78 330.39 11.455 331.77 12.805C333.15 14.155 333.825 16.315 333.795 19.285C333.795 20.335 333.795 21.295 333.795 22.165C333.795 23.005 333.78 23.86 333.75 24.73C333.75 25.57 333.75 26.515 333.75 27.565C333.75 28.015 333.735 28.585 333.705 29.275C333.675 29.935 333.63 30.595 333.57 31.255C334.11 31.195 334.65 31.165 335.19 31.165C335.76 31.135 336.225 31.105 336.585 31.075V34H328.8ZM328.305 23.425C327.405 23.485 326.52 23.635 325.65 23.875C324.78 24.085 324 24.385 323.31 24.775C322.62 25.165 322.065 25.66 321.645 26.26C321.255 26.83 321.075 27.49 321.105 28.24C321.135 29.17 321.435 29.86 322.005 30.31C322.575 30.73 323.235 30.94 323.985 30.94C324.855 30.94 325.635 30.76 326.325 30.4C327.045 30.04 327.705 29.56 328.305 28.96C328.305 28.66 328.305 28.345 328.305 28.015C328.305 27.685 328.305 27.355 328.305 27.025C328.305 26.605 328.305 26.08 328.305 25.45C328.305 24.82 328.305 24.145 328.305 23.425ZM339.352 34V31.615C340.222 31.615 340.837 31.435 341.197 31.075C341.557 30.685 341.782 30.145 341.872 29.455C341.962 28.765 342.007 27.985 342.007 27.115V18.655C342.007 18.115 342.022 17.545 342.052 16.945C342.082 16.345 342.127 15.73 342.187 15.1C341.707 15.13 341.152 15.16 340.522 15.19C339.922 15.22 339.427 15.25 339.037 15.28V12.355C340.387 12.355 341.497 12.295 342.367 12.175C343.237 12.025 343.912 11.845 344.392 11.635C344.872 11.425 345.217 11.23 345.427 11.05H347.317C347.377 11.38 347.407 11.65 347.407 11.86C347.407 12.07 347.422 12.295 347.452 12.535C347.482 12.745 347.527 13.06 347.587 13.48C348.187 12.97 348.877 12.52 349.657 12.13C350.467 11.71 351.277 11.38 352.087 11.14C352.897 10.9 353.647 10.78 354.337 10.78C357.037 10.78 358.972 11.575 360.142 13.165C361.312 14.755 361.897 17.29 361.897 20.77V27.565C361.897 28.045 361.882 28.63 361.852 29.32C361.852 29.98 361.807 30.625 361.717 31.255C362.227 31.195 362.752 31.165 363.292 31.165C363.832 31.135 364.282 31.12 364.642 31.12V34H353.707V31.615C354.577 31.615 355.192 31.435 355.552 31.075C355.942 30.685 356.182 30.145 356.272 29.455C356.362 28.765 356.407 27.985 356.407 27.115L356.362 20.725C356.362 18.565 356.032 16.96 355.372 15.91C354.742 14.83 353.692 14.29 352.222 14.29C351.352 14.32 350.497 14.53 349.657 14.92C348.817 15.31 348.112 15.805 347.542 16.405C347.572 16.765 347.587 17.14 347.587 17.53C347.587 17.92 347.587 18.31 347.587 18.7L347.542 27.565C347.542 28.045 347.527 28.63 347.497 29.32C347.497 29.98 347.452 30.625 347.362 31.255C347.842 31.195 348.352 31.165 348.892 31.165C349.462 31.135 349.927 31.12 350.287 31.12V34H339.352ZM375.988 34.72C375.148 34.72 374.323 34.615 373.513 34.405C372.733 34.195 372.013 33.805 371.353 33.235C370.723 32.665 370.213 31.825 369.823 30.715C369.433 29.575 369.238 28.075 369.238 26.215L369.328 14.605L366.133 14.65V11.5C367.033 11.47 367.903 11.17 368.743 10.6C369.583 10 370.318 9.22 370.948 8.26C371.578 7.3 371.998 6.28 372.208 5.2H374.953L374.908 11.5H381.253V14.38L374.908 14.515L374.863 26.08C374.863 26.98 374.938 27.82 375.088 28.6C375.268 29.35 375.568 29.95 375.988 30.4C376.438 30.85 377.038 31.075 377.788 31.075C378.358 31.075 379.003 30.895 379.723 30.535C380.473 30.175 381.223 29.455 381.973 28.375L383.818 30.04C383.068 31.18 382.288 32.065 381.478 32.695C380.698 33.325 379.933 33.79 379.183 34.09C378.463 34.39 377.818 34.57 377.248 34.63C376.678 34.69 376.258 34.72 375.988 34.72ZM396.162 34.72C394.002 34.72 392.082 34.24 390.402 33.28C388.722 32.29 387.417 30.91 386.487 29.14C385.557 27.34 385.092 25.225 385.092 22.795C385.092 20.695 385.557 18.73 386.487 16.9C387.417 15.07 388.722 13.6 390.402 12.49C392.112 11.35 394.092 10.78 396.342 10.78C397.602 10.78 398.817 10.96 399.987 11.32C401.157 11.68 402.207 12.28 403.137 13.12C404.067 13.96 404.802 15.07 405.342 16.45C405.912 17.83 406.182 19.51 406.152 21.49L391.032 21.76C391.032 23.62 391.242 25.27 391.662 26.71C392.112 28.12 392.832 29.245 393.822 30.085C394.812 30.895 396.117 31.3 397.737 31.3C398.457 31.3 399.222 31.18 400.032 30.94C400.872 30.67 401.697 30.28 402.507 29.77C403.317 29.23 404.037 28.57 404.667 27.79L406.377 29.365C405.387 30.805 404.292 31.915 403.092 32.695C401.892 33.475 400.692 34 399.492 34.27C398.292 34.57 397.182 34.72 396.162 34.72ZM391.257 19.06H400.617C400.587 17.86 400.407 16.855 400.077 16.045C399.777 15.205 399.327 14.575 398.727 14.155C398.127 13.705 397.392 13.48 396.522 13.48C395.052 13.48 393.867 13.975 392.967 14.965C392.097 15.925 391.527 17.29 391.257 19.06ZM420.332 34.72C418.172 34.72 416.252 34.24 414.572 33.28C412.892 32.29 411.587 30.91 410.657 29.14C409.727 27.34 409.262 25.225 409.262 22.795C409.262 20.695 409.727 18.73 410.657 16.9C411.587 15.07 412.892 13.6 414.572 12.49C416.282 11.35 418.262 10.78 420.512 10.78C421.772 10.78 422.987 10.96 424.157 11.32C425.327 11.68 426.377 12.28 427.307 13.12C428.237 13.96 428.972 15.07 429.512 16.45C430.082 17.83 430.352 19.51 430.322 21.49L415.202 21.76C415.202 23.62 415.412 25.27 415.832 26.71C416.282 28.12 417.002 29.245 417.992 30.085C418.982 30.895 420.287 31.3 421.907 31.3C422.627 31.3 423.392 31.18 424.202 30.94C425.042 30.67 425.867 30.28 426.677 29.77C427.487 29.23 428.207 28.57 428.837 27.79L430.547 29.365C429.557 30.805 428.462 31.915 427.262 32.695C426.062 33.475 424.862 34 423.662 34.27C422.462 34.57 421.352 34.72 420.332 34.72ZM415.427 19.06H424.787C424.757 17.86 424.577 16.855 424.247 16.045C423.947 15.205 423.497 14.575 422.897 14.155C422.297 13.705 421.562 13.48 420.692 13.48C419.222 13.48 418.037 13.975 417.137 14.965C416.267 15.925 415.697 17.29 415.427 19.06ZM442.746 34.72C440.946 34.72 439.341 34.255 437.931 33.325C436.521 32.395 435.411 31.075 434.601 29.365C433.821 27.655 433.431 25.645 433.431 23.335C433.431 20.905 433.911 18.745 434.871 16.855C435.831 14.965 437.151 13.48 438.831 12.4C440.541 11.32 442.506 10.78 444.726 10.78C445.596 10.78 446.406 10.885 447.156 11.095C447.936 11.275 448.611 11.485 449.181 11.725V7.72C449.181 7.27 449.181 6.715 449.181 6.055C449.211 5.395 449.256 4.735 449.316 4.075C448.836 4.105 448.281 4.135 447.651 4.165C447.051 4.195 446.541 4.225 446.121 4.255V1.33C447.501 1.33 448.626 1.27 449.496 1.15C450.366 0.999999 451.041 0.819999 451.521 0.609998C452.031 0.399999 452.391 0.204999 452.601 0.0249975H454.671V27.565C454.671 28.015 454.656 28.585 454.626 29.275C454.596 29.935 454.551 30.595 454.491 31.255C455.001 31.195 455.526 31.165 456.066 31.165C456.636 31.135 457.116 31.105 457.506 31.075V34H449.676C449.616 33.64 449.556 33.28 449.496 32.92C449.466 32.53 449.421 32.17 449.361 31.84C448.431 32.83 447.411 33.55 446.301 34C445.191 34.48 444.006 34.72 442.746 34.72ZM444.861 31.255C445.701 31.255 446.511 31.03 447.291 30.58C448.071 30.1 448.701 29.515 449.181 28.825C449.151 28.405 449.136 27.985 449.136 27.565C449.136 27.115 449.136 26.665 449.136 26.215L449.181 14.695C448.731 14.335 448.161 14.065 447.471 13.885C446.781 13.675 446.076 13.57 445.356 13.57C443.946 13.6 442.791 14.05 441.891 14.92C441.021 15.76 440.376 16.87 439.956 18.25C439.566 19.63 439.386 21.13 439.416 22.75C439.416 24.22 439.611 25.6 440.001 26.89C440.391 28.18 440.976 29.23 441.756 30.04C442.566 30.85 443.601 31.255 444.861 31.255ZM483.488 34.72C481.358 34.72 479.423 34.255 477.683 33.325C475.943 32.365 474.563 31.03 473.543 29.32C472.553 27.58 472.058 25.555 472.058 23.245C472.058 20.815 472.568 18.655 473.588 16.765C474.608 14.875 475.973 13.405 477.683 12.355C479.423 11.305 481.328 10.78 483.398 10.78C485.528 10.78 487.448 11.26 489.158 12.22C490.868 13.18 492.218 14.515 493.208 16.225C494.228 17.935 494.738 19.96 494.738 22.3C494.738 24.76 494.243 26.935 493.253 28.825C492.293 30.685 490.958 32.14 489.248 33.19C487.568 34.21 485.648 34.72 483.488 34.72ZM483.713 31.975C485.063 31.975 486.098 31.555 486.818 30.715C487.538 29.875 488.033 28.81 488.303 27.52C488.603 26.2 488.753 24.85 488.753 23.47C488.753 22.3 488.648 21.115 488.438 19.915C488.258 18.715 487.958 17.635 487.538 16.675C487.118 15.685 486.563 14.905 485.873 14.335C485.183 13.735 484.343 13.435 483.353 13.435C482.033 13.465 480.983 13.9 480.203 14.74C479.423 15.58 478.853 16.645 478.493 17.935C478.163 19.225 477.998 20.59 477.998 22.03C477.998 23.65 478.193 25.24 478.583 26.8C478.973 28.33 479.588 29.59 480.428 30.58C481.268 31.54 482.363 32.005 483.713 31.975ZM498.17 34V31.615C499.04 31.615 499.655 31.435 500.015 31.075C500.375 30.685 500.6 30.145 500.69 29.455C500.78 28.765 500.825 27.985 500.825 27.115V18.655C500.825 18.115 500.84 17.545 500.87 16.945C500.9 16.345 500.945 15.73 501.005 15.1C500.525 15.13 499.97 15.16 499.34 15.19C498.74 15.22 498.245 15.25 497.855 15.28V12.355C499.205 12.355 500.315 12.295 501.185 12.175C502.055 12.025 502.73 11.845 503.21 11.635C503.69 11.425 504.035 11.23 504.245 11.05H506.135C506.195 11.38 506.225 11.65 506.225 11.86C506.225 12.07 506.24 12.295 506.27 12.535C506.3 12.745 506.345 13.06 506.405 13.48C507.005 12.97 507.695 12.52 508.475 12.13C509.285 11.71 510.095 11.38 510.905 11.14C511.715 10.9 512.465 10.78 513.155 10.78C515.855 10.78 517.79 11.575 518.96 13.165C520.13 14.755 520.715 17.29 520.715 20.77V27.565C520.715 28.045 520.7 28.63 520.67 29.32C520.67 29.98 520.625 30.625 520.535 31.255C521.045 31.195 521.57 31.165 522.11 31.165C522.65 31.135 523.1 31.12 523.46 31.12V34H512.525V31.615C513.395 31.615 514.01 31.435 514.37 31.075C514.76 30.685 515 30.145 515.09 29.455C515.18 28.765 515.225 27.985 515.225 27.115L515.18 20.725C515.18 18.565 514.85 16.96 514.19 15.91C513.56 14.83 512.51 14.29 511.04 14.29C510.17 14.32 509.315 14.53 508.475 14.92C507.635 15.31 506.93 15.805 506.36 16.405C506.39 16.765 506.405 17.14 506.405 17.53C506.405 17.92 506.405 18.31 506.405 18.7L506.36 27.565C506.36 28.045 506.345 28.63 506.315 29.32C506.315 29.98 506.27 30.625 506.18 31.255C506.66 31.195 507.17 31.165 507.71 31.165C508.28 31.135 508.745 31.12 509.105 31.12V34H498.17ZM542.526 46.195C541.446 46.195 540.531 45.895 539.781 45.295C539.031 44.695 538.656 43.87 538.656 42.82C538.656 42.1 538.896 41.455 539.376 40.885C539.856 40.345 540.471 40.06 541.221 40.03C541.881 40 542.406 40.21 542.796 40.66C543.216 41.14 543.426 41.71 543.426 42.37C543.426 42.46 543.426 42.55 543.426 42.64C543.426 42.76 543.411 42.88 543.381 43C543.441 43 543.546 43 543.696 43C543.996 42.94 544.311 42.715 544.641 42.325C545.001 41.965 545.331 41.47 545.631 40.84C545.991 40.15 546.366 39.295 546.756 38.275C547.146 37.285 547.521 36.175 547.881 34.945L540.816 20.41C540.006 18.73 539.451 17.44 539.151 16.54C538.881 15.64 538.686 14.89 538.566 14.29L536.496 14.38V11.5H547.071V13.885H546.981C545.841 13.975 545.211 14.41 545.091 15.19C544.971 15.94 545.166 16.87 545.676 17.98L550.401 28.465C550.821 27.295 551.286 25.855 551.796 24.145C552.336 22.435 552.936 20.635 553.596 18.745C553.746 18.265 553.926 17.74 554.136 17.17C554.376 16.57 554.616 16 554.856 15.46C555.096 14.92 555.336 14.515 555.576 14.245L552.831 14.38V11.5H560.526V13.885C559.536 14.155 558.741 14.77 558.141 15.73C557.571 16.66 557.031 17.83 556.521 19.24L550.896 35.17C550.026 37.63 549.216 39.67 548.466 41.29C547.716 42.94 546.876 44.17 545.946 44.98C545.046 45.79 543.906 46.195 542.526 46.195ZM573.269 34.72C571.139 34.72 569.204 34.255 567.464 33.325C565.724 32.365 564.344 31.03 563.324 29.32C562.334 27.58 561.839 25.555 561.839 23.245C561.839 20.815 562.349 18.655 563.369 16.765C564.389 14.875 565.754 13.405 567.464 12.355C569.204 11.305 571.109 10.78 573.179 10.78C575.309 10.78 577.229 11.26 578.939 12.22C580.649 13.18 581.999 14.515 582.989 16.225C584.009 17.935 584.519 19.96 584.519 22.3C584.519 24.76 584.024 26.935 583.034 28.825C582.074 30.685 580.739 32.14 579.029 33.19C577.349 34.21 575.429 34.72 573.269 34.72ZM573.494 31.975C574.844 31.975 575.879 31.555 576.599 30.715C577.319 29.875 577.814 28.81 578.084 27.52C578.384 26.2 578.534 24.85 578.534 23.47C578.534 22.3 578.429 21.115 578.219 19.915C578.039 18.715 577.739 17.635 577.319 16.675C576.899 15.685 576.344 14.905 575.654 14.335C574.964 13.735 574.124 13.435 573.134 13.435C571.814 13.465 570.764 13.9 569.984 14.74C569.204 15.58 568.634 16.645 568.274 17.935C567.944 19.225 567.779 20.59 567.779 22.03C567.779 23.65 567.974 25.24 568.364 26.8C568.754 28.33 569.369 29.59 570.209 30.58C571.049 31.54 572.144 32.005 573.494 31.975ZM597.311 34.72C595.571 34.72 594.146 34.39 593.036 33.73C591.956 33.07 591.161 32.02 590.651 30.58C590.141 29.11 589.886 27.19 589.886 24.82V18.7C589.886 18.19 589.901 17.62 589.931 16.99C589.961 16.36 589.991 15.73 590.021 15.1C589.541 15.13 589.001 15.16 588.401 15.19C587.801 15.19 587.306 15.205 586.916 15.235V12.355H587.681C589.331 12.355 590.606 12.22 591.506 11.95C592.436 11.65 593.066 11.35 593.396 11.05H595.466V24.82C595.466 26.98 595.751 28.585 596.321 29.635C596.921 30.685 597.881 31.21 599.201 31.21C600.101 31.18 600.986 30.91 601.856 30.4C602.756 29.89 603.476 29.29 604.016 28.6V18.88C604.016 18.28 604.031 17.665 604.061 17.035C604.091 16.375 604.136 15.73 604.196 15.1C603.716 15.13 603.161 15.16 602.531 15.19C601.931 15.19 601.436 15.205 601.046 15.235V12.355H602.216C603.596 12.355 604.736 12.205 605.636 11.905C606.566 11.605 607.181 11.32 607.481 11.05H609.551V27.205C609.551 27.625 609.536 28.24 609.506 29.05C609.476 29.86 609.431 30.595 609.371 31.255C609.881 31.195 610.421 31.165 610.991 31.165C611.561 31.135 612.026 31.105 612.386 31.075V34H604.556C604.496 33.58 604.436 33.16 604.376 32.74C604.346 32.32 604.316 31.915 604.286 31.525C603.356 32.365 602.306 33.115 601.136 33.775C599.996 34.405 598.721 34.72 597.311 34.72ZM615.46 31.615C616.33 31.615 616.945 31.435 617.305 31.075C617.665 30.685 617.89 30.145 617.98 29.455C618.07 28.765 618.115 27.985 618.115 27.115V18.655C618.115 18.115 618.13 17.545 618.16 16.945C618.19 16.345 618.235 15.73 618.295 15.1C617.785 15.13 617.23 15.16 616.63 15.19C616.03 15.19 615.535 15.205 615.145 15.235V12.355H616.81C618.01 12.355 619.015 12.22 619.825 11.95C620.635 11.65 621.205 11.35 621.535 11.05H623.425C623.485 11.41 623.53 11.98 623.56 12.76C623.59 13.54 623.605 14.32 623.605 15.1C624.295 14.2 625.015 13.435 625.765 12.805C626.515 12.145 627.28 11.65 628.06 11.32C628.87 10.96 629.695 10.78 630.535 10.78C631.495 10.78 632.335 11.05 633.055 11.59C633.805 12.13 634.18 13 634.18 14.2C634.18 14.59 634.075 15.01 633.865 15.46C633.685 15.91 633.385 16.285 632.965 16.585C632.575 16.885 632.035 17.035 631.345 17.035C630.715 17.035 630.115 16.84 629.545 16.45C629.005 16.03 628.72 15.37 628.69 14.47C628.06 14.44 627.4 14.665 626.71 15.145C626.05 15.625 625.45 16.21 624.91 16.9C624.37 17.59 623.95 18.295 623.65 19.015L623.695 27.565C623.695 28.045 623.68 28.63 623.65 29.32C623.62 29.98 623.575 30.625 623.515 31.255C623.995 31.195 624.505 31.165 625.045 31.165C625.585 31.135 626.035 31.12 626.395 31.12V34H615.46V31.615ZM40.1717 74.33C40.1717 70.79 40.9067 68.18 42.3767 66.5C43.8467 64.79 45.9767 63.935 48.7667 63.935C49.9367 63.935 50.9117 64.115 51.6917 64.475C52.5017 64.805 53.1167 65.255 53.5367 65.825C53.9567 66.395 54.1667 67.025 54.1667 67.715C54.1667 68.405 53.9567 69.02 53.5367 69.56C53.1167 70.1 52.5017 70.37 51.6917 70.37C50.8817 70.4 50.2667 70.175 49.8467 69.695C49.4267 69.215 49.2167 68.675 49.2167 68.075C49.2167 67.895 49.2317 67.73 49.2617 67.58C49.2917 67.43 49.3217 67.265 49.3517 67.085C49.2017 66.905 48.9917 66.785 48.7217 66.725C48.4817 66.635 48.2567 66.59 48.0467 66.59C47.4167 66.59 46.9217 66.785 46.5617 67.175C46.2017 67.535 45.9617 67.985 45.8417 68.525C45.7217 69.065 45.6617 69.635 45.6617 70.235V75.5H51.0167V78.38L45.6617 78.515L45.7067 91.52C45.7067 92 45.6917 92.585 45.6617 93.275C45.6617 93.965 45.6167 94.625 45.5267 95.255C46.0367 95.195 46.5767 95.165 47.1467 95.165C47.7467 95.135 48.2267 95.12 48.5867 95.12V98H37.5167V95.615C38.3867 95.615 39.0017 95.435 39.3617 95.075C39.7517 94.685 39.9917 94.145 40.0817 93.455C40.1717 92.765 40.2167 91.985 40.2167 91.115L40.1717 78.605L36.7517 78.65V75.5H40.1717V74.33ZM67.1717 98C67.0817 97.55 67.0217 97.175 66.9917 96.875C66.9917 96.545 66.9767 96.17 66.9467 95.75C65.9267 96.77 64.8317 97.52 63.6617 98C62.5217 98.48 61.3367 98.72 60.1067 98.72C58.0667 98.72 56.4917 98.165 55.3817 97.055C54.3017 95.945 53.7617 94.58 53.7617 92.96C53.7617 91.52 54.1517 90.305 54.9317 89.315C55.7117 88.295 56.7317 87.47 57.9917 86.84C59.2517 86.18 60.6467 85.685 62.1767 85.355C63.7067 84.995 65.2217 84.8 66.7217 84.77V82.295C66.7217 81.425 66.6167 80.63 66.4067 79.91C66.2267 79.16 65.8817 78.575 65.3717 78.155C64.8617 77.705 64.1117 77.48 63.1217 77.48C62.4617 77.51 61.7867 77.66 61.0967 77.93C60.4367 78.17 59.9117 78.56 59.5217 79.1C59.7617 79.37 59.9117 79.67 59.9717 80C60.0317 80.3 60.0617 80.57 60.0617 80.81C60.0617 81.35 59.8517 81.92 59.4317 82.52C59.0117 83.09 58.3367 83.36 57.4067 83.33C56.5967 83.3 55.9667 83.015 55.5167 82.475C55.0967 81.935 54.8867 81.29 54.8867 80.54C54.8867 79.4 55.2917 78.41 56.1017 77.57C56.9417 76.7 58.0667 76.025 59.4767 75.545C60.8867 75.035 62.4617 74.78 64.2017 74.78C66.7817 74.78 68.7617 75.455 70.1417 76.805C71.5217 78.155 72.1967 80.315 72.1667 83.285C72.1667 84.335 72.1667 85.295 72.1667 86.165C72.1667 87.005 72.1517 87.86 72.1217 88.73C72.1217 89.57 72.1217 90.515 72.1217 91.565C72.1217 92.015 72.1067 92.585 72.0767 93.275C72.0467 93.935 72.0017 94.595 71.9417 95.255C72.4817 95.195 73.0217 95.165 73.5617 95.165C74.1317 95.135 74.5967 95.105 74.9567 95.075V98H67.1717ZM66.6767 87.425C65.7767 87.485 64.8917 87.635 64.0217 87.875C63.1517 88.085 62.3717 88.385 61.6817 88.775C60.9917 89.165 60.4367 89.66 60.0167 90.26C59.6267 90.83 59.4467 91.49 59.4767 92.24C59.5067 93.17 59.8067 93.86 60.3767 94.31C60.9467 94.73 61.6067 94.94 62.3567 94.94C63.2267 94.94 64.0067 94.76 64.6967 94.4C65.4167 94.04 66.0767 93.56 66.6767 92.96C66.6767 92.66 66.6767 92.345 66.6767 92.015C66.6767 91.685 66.6767 91.355 66.6767 91.025C66.6767 90.605 66.6767 90.08 66.6767 89.45C66.6767 88.82 66.6767 88.145 66.6767 87.425ZM85.6112 98.135L78.7262 82.835C78.3662 81.965 78.0962 81.26 77.9162 80.72C77.7362 80.18 77.6012 79.73 77.5112 79.37C77.4512 79.01 77.3912 78.65 77.3312 78.29L75.5762 78.38V75.5H85.3412V77.885C84.6212 77.885 84.1412 78.08 83.9012 78.47C83.6912 78.83 83.6312 79.325 83.7212 79.955C83.8412 80.555 84.0362 81.2 84.3062 81.89L87.0062 88.37C87.2462 88.91 87.4862 89.48 87.7262 90.08C87.9662 90.65 88.1912 91.235 88.4012 91.835H88.4462C88.6562 91.265 88.8662 90.695 89.0762 90.125C89.3162 89.525 89.5262 88.925 89.7062 88.325L92.1812 81.395C92.4512 80.645 92.7062 80.03 92.9462 79.55C93.1862 79.07 93.4112 78.635 93.6212 78.245L90.8312 78.38V75.5H98.8862V77.885C98.1962 77.945 97.5962 78.275 97.0862 78.875C96.5762 79.445 96.1262 80.15 95.7362 80.99C95.3462 81.8 94.9862 82.64 94.6562 83.51L88.8512 98.135H85.6112ZM111.557 98.72C109.427 98.72 107.492 98.255 105.752 97.325C104.012 96.365 102.632 95.03 101.612 93.32C100.622 91.58 100.127 89.555 100.127 87.245C100.127 84.815 100.637 82.655 101.657 80.765C102.677 78.875 104.042 77.405 105.752 76.355C107.492 75.305 109.397 74.78 111.467 74.78C113.597 74.78 115.517 75.26 117.227 76.22C118.937 77.18 120.287 78.515 121.277 80.225C122.297 81.935 122.807 83.96 122.807 86.3C122.807 88.76 122.312 90.935 121.322 92.825C120.362 94.685 119.027 96.14 117.317 97.19C115.637 98.21 113.717 98.72 111.557 98.72ZM111.782 95.975C113.132 95.975 114.167 95.555 114.887 94.715C115.607 93.875 116.102 92.81 116.372 91.52C116.672 90.2 116.822 88.85 116.822 87.47C116.822 86.3 116.717 85.115 116.507 83.915C116.327 82.715 116.027 81.635 115.607 80.675C115.187 79.685 114.632 78.905 113.942 78.335C113.252 77.735 112.412 77.435 111.422 77.435C110.102 77.465 109.052 77.9 108.272 78.74C107.492 79.58 106.922 80.645 106.562 81.935C106.232 83.225 106.067 84.59 106.067 86.03C106.067 87.65 106.262 89.24 106.652 90.8C107.042 92.33 107.657 93.59 108.497 94.58C109.337 95.54 110.432 96.005 111.782 95.975ZM135.599 98.72C133.859 98.72 132.434 98.39 131.324 97.73C130.244 97.07 129.449 96.02 128.939 94.58C128.429 93.11 128.174 91.19 128.174 88.82V82.7C128.174 82.19 128.189 81.62 128.219 80.99C128.249 80.36 128.279 79.73 128.309 79.1C127.829 79.13 127.289 79.16 126.689 79.19C126.089 79.19 125.594 79.205 125.204 79.235V76.355H125.969C127.619 76.355 128.894 76.22 129.794 75.95C130.724 75.65 131.354 75.35 131.684 75.05H133.754V88.82C133.754 90.98 134.039 92.585 134.609 93.635C135.209 94.685 136.169 95.21 137.489 95.21C138.389 95.18 139.274 94.91 140.144 94.4C141.044 93.89 141.764 93.29 142.304 92.6V82.88C142.304 82.28 142.319 81.665 142.349 81.035C142.379 80.375 142.424 79.73 142.484 79.1C142.004 79.13 141.449 79.16 140.819 79.19C140.219 79.19 139.724 79.205 139.334 79.235V76.355H140.504C141.884 76.355 143.024 76.205 143.924 75.905C144.854 75.605 145.469 75.32 145.769 75.05H147.839V91.205C147.839 91.625 147.824 92.24 147.794 93.05C147.764 93.86 147.719 94.595 147.659 95.255C148.169 95.195 148.709 95.165 149.279 95.165C149.849 95.135 150.314 95.105 150.674 95.075V98H142.844C142.784 97.58 142.724 97.16 142.664 96.74C142.634 96.32 142.604 95.915 142.574 95.525C141.644 96.365 140.594 97.115 139.424 97.775C138.284 98.405 137.009 98.72 135.599 98.72ZM153.749 95.615C154.619 95.615 155.234 95.435 155.594 95.075C155.954 94.685 156.179 94.145 156.269 93.455C156.359 92.765 156.404 91.985 156.404 91.115V82.655C156.404 82.115 156.419 81.545 156.449 80.945C156.479 80.345 156.524 79.73 156.584 79.1C156.074 79.13 155.519 79.16 154.919 79.19C154.319 79.19 153.824 79.205 153.434 79.235V76.355H155.099C156.299 76.355 157.304 76.22 158.114 75.95C158.924 75.65 159.494 75.35 159.824 75.05H161.714C161.774 75.41 161.819 75.98 161.849 76.76C161.879 77.54 161.894 78.32 161.894 79.1C162.584 78.2 163.304 77.435 164.054 76.805C164.804 76.145 165.569 75.65 166.349 75.32C167.159 74.96 167.984 74.78 168.824 74.78C169.784 74.78 170.624 75.05 171.344 75.59C172.094 76.13 172.469 77 172.469 78.2C172.469 78.59 172.364 79.01 172.154 79.46C171.974 79.91 171.674 80.285 171.254 80.585C170.864 80.885 170.324 81.035 169.634 81.035C169.004 81.035 168.404 80.84 167.834 80.45C167.294 80.03 167.009 79.37 166.979 78.47C166.349 78.44 165.689 78.665 164.999 79.145C164.339 79.625 163.739 80.21 163.199 80.9C162.659 81.59 162.239 82.295 161.939 83.015L161.984 91.565C161.984 92.045 161.969 92.63 161.939 93.32C161.909 93.98 161.864 94.625 161.804 95.255C162.284 95.195 162.794 95.165 163.334 95.165C163.874 95.135 164.324 95.12 164.684 95.12V98H153.749V95.615ZM174.623 95.615C175.493 95.615 176.108 95.435 176.468 95.075C176.828 94.685 177.053 94.145 177.143 93.455C177.233 92.765 177.278 91.985 177.278 91.115V82.7C177.278 82.19 177.293 81.635 177.323 81.035C177.353 80.405 177.398 79.76 177.458 79.1C176.948 79.13 176.393 79.16 175.793 79.19C175.193 79.22 174.698 79.25 174.308 79.28V76.355C175.658 76.355 176.768 76.295 177.638 76.175C178.538 76.025 179.228 75.845 179.708 75.635C180.218 75.425 180.578 75.23 180.788 75.05H182.813V91.565C182.813 92.045 182.798 92.63 182.768 93.32C182.768 93.98 182.723 94.625 182.633 95.255C183.113 95.195 183.623 95.165 184.163 95.165C184.733 95.135 185.198 95.12 185.558 95.12V98H174.623V95.615ZM179.798 71.18C178.928 71.18 178.193 70.865 177.593 70.235C176.993 69.575 176.693 68.78 176.693 67.85C176.693 66.92 176.993 66.125 177.593 65.465C178.223 64.805 178.958 64.475 179.798 64.475C180.668 64.475 181.388 64.805 181.958 65.465C182.558 66.125 182.858 66.92 182.858 67.85C182.858 68.78 182.573 69.575 182.003 70.235C181.433 70.865 180.698 71.18 179.798 71.18ZM197.504 98.72C196.664 98.72 195.839 98.615 195.029 98.405C194.249 98.195 193.529 97.805 192.869 97.235C192.239 96.665 191.729 95.825 191.339 94.715C190.949 93.575 190.754 92.075 190.754 90.215L190.844 78.605L187.649 78.65V75.5C188.549 75.47 189.419 75.17 190.259 74.6C191.099 74 191.834 73.22 192.464 72.26C193.094 71.3 193.514 70.28 193.724 69.2H196.469L196.424 75.5H202.769V78.38L196.424 78.515L196.379 90.08C196.379 90.98 196.454 91.82 196.604 92.6C196.784 93.35 197.084 93.95 197.504 94.4C197.954 94.85 198.554 95.075 199.304 95.075C199.874 95.075 200.519 94.895 201.239 94.535C201.989 94.175 202.739 93.455 203.489 92.375L205.334 94.04C204.584 95.18 203.804 96.065 202.994 96.695C202.214 97.325 201.449 97.79 200.699 98.09C199.979 98.39 199.334 98.57 198.764 98.63C198.194 98.69 197.774 98.72 197.504 98.72ZM217.678 98.72C215.518 98.72 213.598 98.24 211.918 97.28C210.238 96.29 208.933 94.91 208.003 93.14C207.073 91.34 206.608 89.225 206.608 86.795C206.608 84.695 207.073 82.73 208.003 80.9C208.933 79.07 210.238 77.6 211.918 76.49C213.628 75.35 215.608 74.78 217.858 74.78C219.118 74.78 220.333 74.96 221.503 75.32C222.673 75.68 223.723 76.28 224.653 77.12C225.583 77.96 226.318 79.07 226.858 80.45C227.428 81.83 227.698 83.51 227.668 85.49L212.548 85.76C212.548 87.62 212.758 89.27 213.178 90.71C213.628 92.12 214.348 93.245 215.338 94.085C216.328 94.895 217.633 95.3 219.253 95.3C219.973 95.3 220.738 95.18 221.548 94.94C222.388 94.67 223.213 94.28 224.023 93.77C224.833 93.23 225.553 92.57 226.183 91.79L227.893 93.365C226.903 94.805 225.808 95.915 224.608 96.695C223.408 97.475 222.208 98 221.008 98.27C219.808 98.57 218.698 98.72 217.678 98.72ZM212.773 83.06H222.133C222.103 81.86 221.923 80.855 221.593 80.045C221.293 79.205 220.843 78.575 220.243 78.155C219.643 77.705 218.908 77.48 218.038 77.48C216.568 77.48 215.383 77.975 214.483 78.965C213.613 79.925 213.043 81.29 212.773 83.06ZM242.372 95.615C243.242 95.615 243.857 95.435 244.217 95.075C244.607 94.685 244.832 94.145 244.892 93.455C244.982 92.765 245.027 91.985 245.027 91.115V71.675C245.027 71.165 245.042 70.61 245.072 70.01C245.102 69.38 245.147 68.735 245.207 68.075C244.697 68.105 244.142 68.135 243.542 68.165C242.942 68.195 242.432 68.225 242.012 68.255V65.33C243.392 65.33 244.517 65.27 245.387 65.15C246.287 65 246.977 64.82 247.457 64.61C247.967 64.4 248.327 64.205 248.537 64.025H250.562L250.607 91.565C250.607 92.045 250.592 92.63 250.562 93.32C250.532 93.98 250.472 94.625 250.382 95.255C250.892 95.195 251.417 95.165 251.957 95.165C252.497 95.135 252.947 95.12 253.307 95.12V98H242.372V95.615ZM267.519 98.72C265.389 98.72 263.454 98.255 261.714 97.325C259.974 96.365 258.594 95.03 257.574 93.32C256.584 91.58 256.089 89.555 256.089 87.245C256.089 84.815 256.599 82.655 257.619 80.765C258.639 78.875 260.004 77.405 261.714 76.355C263.454 75.305 265.359 74.78 267.429 74.78C269.559 74.78 271.479 75.26 273.189 76.22C274.899 77.18 276.249 78.515 277.239 80.225C278.259 81.935 278.769 83.96 278.769 86.3C278.769 88.76 278.274 90.935 277.284 92.825C276.324 94.685 274.989 96.14 273.279 97.19C271.599 98.21 269.679 98.72 267.519 98.72ZM267.744 95.975C269.094 95.975 270.129 95.555 270.849 94.715C271.569 93.875 272.064 92.81 272.334 91.52C272.634 90.2 272.784 88.85 272.784 87.47C272.784 86.3 272.679 85.115 272.469 83.915C272.289 82.715 271.989 81.635 271.569 80.675C271.149 79.685 270.594 78.905 269.904 78.335C269.214 77.735 268.374 77.435 267.384 77.435C266.064 77.465 265.014 77.9 264.234 78.74C263.454 79.58 262.884 80.645 262.524 81.935C262.194 83.225 262.029 84.59 262.029 86.03C262.029 87.65 262.224 89.24 262.614 90.8C263.004 92.33 263.619 93.59 264.459 94.58C265.299 95.54 266.394 96.005 267.744 95.975ZM292.956 98.72C290.946 98.72 289.086 98.27 287.376 97.37C285.696 96.47 284.346 95.165 283.326 93.455C282.336 91.715 281.841 89.63 281.841 87.2C281.841 85.55 282.126 83.99 282.696 82.52C283.266 81.02 284.061 79.7 285.081 78.56C286.131 77.39 287.376 76.475 288.816 75.815C290.256 75.125 291.846 74.78 293.586 74.78C295.416 74.78 296.961 75.065 298.221 75.635C299.481 76.175 300.441 76.91 301.101 77.84C301.761 78.74 302.091 79.7 302.091 80.72C302.091 81.53 301.851 82.235 301.371 82.835C300.921 83.435 300.261 83.75 299.391 83.78C298.371 83.81 297.651 83.525 297.231 82.925C296.841 82.295 296.646 81.71 296.646 81.17C296.646 80.87 296.691 80.555 296.781 80.225C296.871 79.865 297.021 79.535 297.231 79.235C297.021 78.695 296.676 78.305 296.196 78.065C295.716 77.795 295.221 77.615 294.711 77.525C294.201 77.435 293.796 77.405 293.496 77.435C291.846 77.495 290.481 78.245 289.401 79.685C288.321 81.125 287.781 83.225 287.781 85.985C287.781 87.635 288.006 89.165 288.456 90.575C288.936 91.955 289.656 93.08 290.616 93.95C291.576 94.79 292.806 95.225 294.306 95.255C295.626 95.285 296.901 94.97 298.131 94.31C299.361 93.62 300.366 92.735 301.146 91.655L302.946 93.32C301.956 94.73 300.891 95.825 299.751 96.605C298.611 97.385 297.456 97.925 296.286 98.225C295.146 98.555 294.036 98.72 292.956 98.72ZM318.627 98C318.537 97.55 318.477 97.175 318.447 96.875C318.447 96.545 318.432 96.17 318.402 95.75C317.382 96.77 316.287 97.52 315.117 98C313.977 98.48 312.792 98.72 311.562 98.72C309.522 98.72 307.947 98.165 306.837 97.055C305.757 95.945 305.217 94.58 305.217 92.96C305.217 91.52 305.607 90.305 306.387 89.315C307.167 88.295 308.187 87.47 309.447 86.84C310.707 86.18 312.102 85.685 313.632 85.355C315.162 84.995 316.677 84.8 318.177 84.77V82.295C318.177 81.425 318.072 80.63 317.862 79.91C317.682 79.16 317.337 78.575 316.827 78.155C316.317 77.705 315.567 77.48 314.577 77.48C313.917 77.51 313.242 77.66 312.552 77.93C311.892 78.17 311.367 78.56 310.977 79.1C311.217 79.37 311.367 79.67 311.427 80C311.487 80.3 311.517 80.57 311.517 80.81C311.517 81.35 311.307 81.92 310.887 82.52C310.467 83.09 309.792 83.36 308.862 83.33C308.052 83.3 307.422 83.015 306.972 82.475C306.552 81.935 306.342 81.29 306.342 80.54C306.342 79.4 306.747 78.41 307.557 77.57C308.397 76.7 309.522 76.025 310.932 75.545C312.342 75.035 313.917 74.78 315.657 74.78C318.237 74.78 320.217 75.455 321.597 76.805C322.977 78.155 323.652 80.315 323.622 83.285C323.622 84.335 323.622 85.295 323.622 86.165C323.622 87.005 323.607 87.86 323.577 88.73C323.577 89.57 323.577 90.515 323.577 91.565C323.577 92.015 323.562 92.585 323.532 93.275C323.502 93.935 323.457 94.595 323.397 95.255C323.937 95.195 324.477 95.165 325.017 95.165C325.587 95.135 326.052 95.105 326.412 95.075V98H318.627ZM318.132 87.425C317.232 87.485 316.347 87.635 315.477 87.875C314.607 88.085 313.827 88.385 313.137 88.775C312.447 89.165 311.892 89.66 311.472 90.26C311.082 90.83 310.902 91.49 310.932 92.24C310.962 93.17 311.262 93.86 311.832 94.31C312.402 94.73 313.062 94.94 313.812 94.94C314.682 94.94 315.462 94.76 316.152 94.4C316.872 94.04 317.532 93.56 318.132 92.96C318.132 92.66 318.132 92.345 318.132 92.015C318.132 91.685 318.132 91.355 318.132 91.025C318.132 90.605 318.132 90.08 318.132 89.45C318.132 88.82 318.132 88.145 318.132 87.425ZM328.549 95.615C329.419 95.615 330.034 95.435 330.394 95.075C330.784 94.685 331.009 94.145 331.069 93.455C331.159 92.765 331.204 91.985 331.204 91.115V71.675C331.204 71.165 331.219 70.61 331.249 70.01C331.279 69.38 331.324 68.735 331.384 68.075C330.874 68.105 330.319 68.135 329.719 68.165C329.119 68.195 328.609 68.225 328.189 68.255V65.33C329.569 65.33 330.694 65.27 331.564 65.15C332.464 65 333.154 64.82 333.634 64.61C334.144 64.4 334.504 64.205 334.714 64.025H336.739L336.784 91.565C336.784 92.045 336.769 92.63 336.739 93.32C336.709 93.98 336.649 94.625 336.559 95.255C337.069 95.195 337.594 95.165 338.134 95.165C338.674 95.135 339.124 95.12 339.484 95.12V98H328.549V95.615ZM342.626 95.615C343.496 95.615 344.111 95.435 344.471 95.075C344.831 94.685 345.056 94.145 345.146 93.455C345.236 92.765 345.281 91.985 345.281 91.115V82.7C345.281 82.19 345.296 81.635 345.326 81.035C345.356 80.405 345.401 79.76 345.461 79.1C344.951 79.13 344.396 79.16 343.796 79.19C343.196 79.22 342.701 79.25 342.311 79.28V76.355C343.661 76.355 344.771 76.295 345.641 76.175C346.541 76.025 347.231 75.845 347.711 75.635C348.221 75.425 348.581 75.23 348.791 75.05H350.816V91.565C350.816 92.045 350.801 92.63 350.771 93.32C350.771 93.98 350.726 94.625 350.636 95.255C351.116 95.195 351.626 95.165 352.166 95.165C352.736 95.135 353.201 95.12 353.561 95.12V98H342.626V95.615ZM347.801 71.18C346.931 71.18 346.196 70.865 345.596 70.235C344.996 69.575 344.696 68.78 344.696 67.85C344.696 66.92 344.996 66.125 345.596 65.465C346.226 64.805 346.961 64.475 347.801 64.475C348.671 64.475 349.391 64.805 349.961 65.465C350.561 66.125 350.861 66.92 350.861 67.85C350.861 68.78 350.576 69.575 350.006 70.235C349.436 70.865 348.701 71.18 347.801 71.18ZM365.507 98.72C364.667 98.72 363.842 98.615 363.032 98.405C362.252 98.195 361.532 97.805 360.872 97.235C360.242 96.665 359.732 95.825 359.342 94.715C358.952 93.575 358.757 92.075 358.757 90.215L358.847 78.605L355.652 78.65V75.5C356.552 75.47 357.422 75.17 358.262 74.6C359.102 74 359.837 73.22 360.467 72.26C361.097 71.3 361.517 70.28 361.727 69.2H364.472L364.427 75.5H370.772V78.38L364.427 78.515L364.382 90.08C364.382 90.98 364.457 91.82 364.607 92.6C364.787 93.35 365.087 93.95 365.507 94.4C365.957 94.85 366.557 95.075 367.307 95.075C367.877 95.075 368.522 94.895 369.242 94.535C369.992 94.175 370.742 93.455 371.492 92.375L373.337 94.04C372.587 95.18 371.807 96.065 370.997 96.695C370.217 97.325 369.452 97.79 368.702 98.09C367.982 98.39 367.337 98.57 366.767 98.63C366.197 98.69 365.777 98.72 365.507 98.72ZM374.926 95.615C375.796 95.615 376.411 95.435 376.771 95.075C377.131 94.685 377.356 94.145 377.446 93.455C377.536 92.765 377.581 91.985 377.581 91.115V82.7C377.581 82.19 377.596 81.635 377.626 81.035C377.656 80.405 377.701 79.76 377.761 79.1C377.251 79.13 376.696 79.16 376.096 79.19C375.496 79.22 375.001 79.25 374.611 79.28V76.355C375.961 76.355 377.071 76.295 377.941 76.175C378.841 76.025 379.531 75.845 380.011 75.635C380.521 75.425 380.881 75.23 381.091 75.05H383.116V91.565C383.116 92.045 383.101 92.63 383.071 93.32C383.071 93.98 383.026 94.625 382.936 95.255C383.416 95.195 383.926 95.165 384.466 95.165C385.036 95.135 385.501 95.12 385.861 95.12V98H374.926V95.615ZM380.101 71.18C379.231 71.18 378.496 70.865 377.896 70.235C377.296 69.575 376.996 68.78 376.996 67.85C376.996 66.92 377.296 66.125 377.896 65.465C378.526 64.805 379.261 64.475 380.101 64.475C380.971 64.475 381.691 64.805 382.261 65.465C382.861 66.125 383.161 66.92 383.161 67.85C383.161 68.78 382.876 69.575 382.306 70.235C381.736 70.865 381.001 71.18 380.101 71.18ZM399.699 98.72C397.539 98.72 395.619 98.24 393.939 97.28C392.259 96.29 390.954 94.91 390.024 93.14C389.094 91.34 388.629 89.225 388.629 86.795C388.629 84.695 389.094 82.73 390.024 80.9C390.954 79.07 392.259 77.6 393.939 76.49C395.649 75.35 397.629 74.78 399.879 74.78C401.139 74.78 402.354 74.96 403.524 75.32C404.694 75.68 405.744 76.28 406.674 77.12C407.604 77.96 408.339 79.07 408.879 80.45C409.449 81.83 409.719 83.51 409.689 85.49L394.569 85.76C394.569 87.62 394.779 89.27 395.199 90.71C395.649 92.12 396.369 93.245 397.359 94.085C398.349 94.895 399.654 95.3 401.274 95.3C401.994 95.3 402.759 95.18 403.569 94.94C404.409 94.67 405.234 94.28 406.044 93.77C406.854 93.23 407.574 92.57 408.204 91.79L409.914 93.365C408.924 94.805 407.829 95.915 406.629 96.695C405.429 97.475 404.229 98 403.029 98.27C401.829 98.57 400.719 98.72 399.699 98.72ZM394.794 83.06H404.154C404.124 81.86 403.944 80.855 403.614 80.045C403.314 79.205 402.864 78.575 402.264 78.155C401.664 77.705 400.929 77.48 400.059 77.48C398.589 77.48 397.404 77.975 396.504 78.965C395.634 79.925 395.064 81.29 394.794 83.06ZM423.192 98.72C421.812 98.72 420.522 98.54 419.322 98.18C418.122 97.82 417.162 97.385 416.442 96.875L416.577 98.315H413.652L413.427 90.575H415.857C415.947 91.595 416.307 92.525 416.937 93.365C417.567 94.175 418.377 94.82 419.367 95.3C420.387 95.75 421.512 95.975 422.742 95.975C423.342 95.975 423.912 95.885 424.452 95.705C425.022 95.525 425.487 95.24 425.847 94.85C426.237 94.43 426.432 93.905 426.432 93.275C426.432 92.615 426.207 92.075 425.757 91.655C425.337 91.235 424.737 90.845 423.957 90.485C423.177 90.125 422.262 89.75 421.212 89.36C420.282 89 419.352 88.625 418.422 88.235C417.492 87.845 416.637 87.38 415.857 86.84C415.077 86.27 414.447 85.58 413.967 84.77C413.487 83.96 413.247 82.97 413.247 81.8C413.247 80.99 413.397 80.18 413.697 79.37C413.997 78.56 414.477 77.81 415.137 77.12C415.797 76.4 416.637 75.83 417.657 75.41C418.707 74.99 419.982 74.78 421.482 74.78C422.292 74.78 423.207 74.915 424.227 75.185C425.247 75.425 426.147 75.845 426.927 76.445L426.882 75.005H429.807V82.925H427.377C427.227 81.875 426.897 80.945 426.387 80.135C425.877 79.295 425.202 78.635 424.362 78.155C423.522 77.675 422.517 77.435 421.347 77.435C420.387 77.435 419.577 77.675 418.917 78.155C418.257 78.605 417.927 79.28 417.927 80.18C417.927 80.93 418.182 81.545 418.692 82.025C419.202 82.505 419.892 82.91 420.762 83.24C421.632 83.57 422.577 83.93 423.597 84.32C425.007 84.8 426.282 85.37 427.422 86.03C428.592 86.69 429.522 87.485 430.212 88.415C430.902 89.345 431.247 90.5 431.247 91.88C431.247 93.44 430.857 94.73 430.077 95.75C429.297 96.74 428.292 97.49 427.062 98C425.832 98.48 424.542 98.72 423.192 98.72ZM447.638 71.675C447.638 71.165 447.638 70.61 447.638 70.01C447.668 69.38 447.713 68.735 447.773 68.075C447.293 68.105 446.738 68.135 446.108 68.165C445.508 68.195 445.013 68.225 444.623 68.255V65.33C446.003 65.33 447.128 65.27 447.998 65.15C448.868 65 449.543 64.82 450.023 64.61C450.533 64.4 450.893 64.205 451.103 64.025H453.173V77.3C454.133 76.4 455.153 75.755 456.233 75.365C457.313 74.975 458.393 74.78 459.473 74.78C461.333 74.78 462.968 75.245 464.378 76.175C465.818 77.105 466.943 78.425 467.753 80.135C468.563 81.845 468.968 83.855 468.968 86.165C468.968 88.625 468.488 90.8 467.528 92.69C466.568 94.58 465.248 96.065 463.568 97.145C461.888 98.195 459.953 98.72 457.763 98.72C456.893 98.72 455.828 98.54 454.568 98.18C453.338 97.82 452.213 97.1 451.193 96.02L449.933 98H447.638V71.675ZM453.173 91.16C453.173 92.36 453.368 93.305 453.758 93.995C454.148 94.685 454.643 95.18 455.243 95.48C455.873 95.75 456.503 95.9 457.133 95.93C458.513 95.93 459.623 95.525 460.463 94.715C461.333 93.905 461.963 92.825 462.353 91.475C462.773 90.095 462.983 88.61 462.983 87.02C462.983 85.4 462.788 83.93 462.398 82.61C462.008 81.26 461.408 80.195 460.598 79.415C459.788 78.605 458.723 78.2 457.403 78.2C456.593 78.23 455.813 78.44 455.063 78.83C454.313 79.22 453.683 79.73 453.173 80.36V91.16ZM476.498 110.195C475.418 110.195 474.503 109.895 473.753 109.295C473.003 108.695 472.628 107.87 472.628 106.82C472.628 106.1 472.868 105.455 473.348 104.885C473.828 104.345 474.443 104.06 475.193 104.03C475.853 104 476.378 104.21 476.768 104.66C477.188 105.14 477.398 105.71 477.398 106.37C477.398 106.46 477.398 106.55 477.398 106.64C477.398 106.76 477.383 106.88 477.353 107C477.413 107 477.518 107 477.668 107C477.968 106.94 478.283 106.715 478.613 106.325C478.973 105.965 479.303 105.47 479.603 104.84C479.963 104.15 480.338 103.295 480.728 102.275C481.118 101.285 481.493 100.175 481.853 98.945L474.788 84.41C473.978 82.73 473.423 81.44 473.123 80.54C472.853 79.64 472.658 78.89 472.538 78.29L470.468 78.38V75.5H481.043V77.885H480.953C479.813 77.975 479.183 78.41 479.063 79.19C478.943 79.94 479.138 80.87 479.648 81.98L484.373 92.465C484.793 91.295 485.258 89.855 485.768 88.145C486.308 86.435 486.908 84.635 487.568 82.745C487.718 82.265 487.898 81.74 488.108 81.17C488.348 80.57 488.588 80 488.828 79.46C489.068 78.92 489.308 78.515 489.548 78.245L486.803 78.38V75.5H494.498V77.885C493.508 78.155 492.713 78.77 492.113 79.73C491.543 80.66 491.003 81.83 490.493 83.24L484.868 99.17C483.998 101.63 483.188 103.67 482.438 105.29C481.688 106.94 480.848 108.17 479.918 108.98C479.018 109.79 477.878 110.195 476.498 110.195ZM523.598 98.72C520.418 98.72 517.688 98.045 515.408 96.695C513.128 95.315 511.373 93.425 510.143 91.025C508.913 88.595 508.298 85.85 508.298 82.79C508.298 80.72 508.613 78.68 509.243 76.67C509.903 74.63 510.878 72.8 512.168 71.18C513.458 69.53 515.078 68.225 517.028 67.265C519.008 66.275 521.303 65.78 523.913 65.78C524.813 65.78 525.788 65.87 526.838 66.05C527.888 66.23 528.923 66.5 529.943 66.86C530.993 67.19 531.923 67.595 532.733 68.075L532.553 66.095H535.703V76.535H533.228C532.988 74.765 532.463 73.295 531.653 72.125C530.843 70.955 529.808 70.07 528.548 69.47C527.318 68.84 525.938 68.525 524.408 68.525C522.848 68.525 521.438 68.885 520.178 69.605C518.948 70.325 517.898 71.3 517.028 72.53C516.188 73.76 515.543 75.17 515.093 76.76C514.643 78.35 514.418 80.045 514.418 81.845C514.418 84.485 514.823 86.855 515.633 88.955C516.473 91.025 517.658 92.66 519.188 93.86C520.718 95.03 522.563 95.615 524.723 95.615C525.383 95.615 526.118 95.57 526.928 95.48C527.738 95.36 528.548 95.18 529.358 94.94C530.168 94.7 530.888 94.415 531.518 94.085V89.45C531.518 88.67 531.533 87.905 531.563 87.155C531.593 86.405 531.623 85.79 531.653 85.31C531.143 85.34 530.558 85.37 529.898 85.4C529.238 85.4 528.713 85.415 528.323 85.445V82.475H539.708V84.95C539.078 84.98 538.568 85.1 538.178 85.31C537.788 85.49 537.473 85.775 537.233 86.165C536.993 86.525 536.828 86.975 536.738 87.515C536.648 88.055 536.603 88.67 536.603 89.36V96.425H535.478C534.758 96.425 533.963 96.545 533.093 96.785C532.223 96.995 531.278 97.265 530.258 97.595C529.328 97.895 528.293 98.15 527.153 98.36C526.013 98.6 524.828 98.72 523.598 98.72ZM542.851 98V95.525C543.691 95.495 544.336 95.345 544.786 95.075C545.236 94.805 545.551 94.355 545.731 93.725C545.911 93.065 546.001 92.15 546.001 90.98V73.205C546.001 72.395 546.016 71.645 546.046 70.955C546.106 70.265 546.151 69.725 546.181 69.335C545.671 69.365 545.086 69.395 544.426 69.425C543.766 69.425 543.241 69.44 542.851 69.47V66.5C544.771 66.47 546.706 66.455 548.656 66.455C550.606 66.455 552.571 66.44 554.551 66.41C558.091 66.38 560.896 67.025 562.966 68.345C565.036 69.665 566.011 71.69 565.891 74.42C565.861 75.32 565.591 76.205 565.081 77.075C564.571 77.945 563.821 78.725 562.831 79.415C561.841 80.105 560.596 80.63 559.096 80.99V81.035C562.186 81.365 564.481 82.295 565.981 83.825C567.481 85.325 568.231 87.08 568.231 89.09C568.231 91.01 567.766 92.63 566.836 93.95C565.906 95.27 564.616 96.275 562.966 96.965C561.346 97.655 559.501 98 557.431 98H542.851ZM551.491 95.255C552.001 95.285 552.526 95.3 553.066 95.3C553.636 95.3 554.176 95.3 554.686 95.3C555.196 95.27 555.631 95.255 555.991 95.255C557.971 95.195 559.471 94.625 560.491 93.545C561.541 92.435 562.066 90.95 562.066 89.09C562.066 87.56 561.751 86.36 561.121 85.49C560.521 84.62 559.726 84.005 558.736 83.645C557.776 83.285 556.741 83.105 555.631 83.105C554.821 83.105 554.116 83.105 553.516 83.105C552.916 83.105 552.301 83.135 551.671 83.195V91.475C551.671 92.285 551.656 93.02 551.626 93.68C551.596 94.34 551.551 94.865 551.491 95.255ZM551.671 80.45L554.326 80.405C555.736 80.375 556.846 80.075 557.656 79.505C558.466 78.905 559.051 78.14 559.411 77.21C559.771 76.25 559.951 75.215 559.951 74.105C559.921 72.785 559.621 71.765 559.051 71.045C558.511 70.295 557.836 69.77 557.026 69.47C556.216 69.17 555.376 69.035 554.506 69.065C553.876 69.065 553.351 69.155 552.931 69.335C552.511 69.515 552.196 69.89 551.986 70.46C551.776 71.03 551.671 71.885 551.671 73.025V80.45ZM571.591 95.525C572.431 95.495 573.076 95.36 573.526 95.12C573.976 94.85 574.291 94.4 574.471 93.77C574.651 93.11 574.741 92.21 574.741 91.07V73.115C574.741 72.365 574.756 71.645 574.786 70.955C574.846 70.265 574.891 69.725 574.921 69.335C574.411 69.365 573.826 69.395 573.166 69.425C572.506 69.425 571.981 69.44 571.591 69.47V66.5C573.541 66.47 575.506 66.455 577.486 66.455C579.466 66.455 581.446 66.44 583.426 66.41C586.156 66.38 588.511 66.725 590.491 67.445C592.471 68.135 593.986 69.2 595.036 70.64C596.086 72.05 596.611 73.88 596.611 76.13C596.611 77.33 596.356 78.53 595.846 79.73C595.366 80.9 594.586 81.995 593.506 83.015C592.456 84.005 591.061 84.815 589.321 85.445C587.611 86.075 585.541 86.42 583.111 86.48C582.631 86.48 582.166 86.48 581.716 86.48C581.266 86.48 580.831 86.465 580.411 86.435V91.25C580.411 92.09 580.396 92.855 580.366 93.545C580.336 94.235 580.291 94.775 580.231 95.165C580.621 95.135 581.056 95.12 581.536 95.12C582.016 95.09 582.496 95.075 582.976 95.075C583.486 95.045 583.876 95.03 584.146 95.03V98H571.591V95.525ZM580.411 83.6C580.801 83.63 581.176 83.66 581.536 83.69C581.896 83.72 582.286 83.735 582.706 83.735C584.386 83.735 585.796 83.435 586.936 82.835C588.106 82.235 588.991 81.38 589.591 80.27C590.191 79.13 590.491 77.75 590.491 76.13C590.491 74.66 590.281 73.46 589.861 72.53C589.441 71.6 588.886 70.895 588.196 70.415C587.506 69.905 586.741 69.56 585.901 69.38C585.061 69.2 584.221 69.11 583.381 69.11C582.601 69.11 581.986 69.23 581.536 69.47C581.116 69.71 580.816 70.145 580.636 70.775C580.486 71.375 580.411 72.2 580.411 73.25V83.6Z" fill="#434343"/>
</svg>
